<?xml version="1.0" encoding="utf-8"?>
<!-- Generator: Adobe Illustrator 16.0.0, SVG Export Plug-In . SVG Version: 6.00 Build 0)  -->
<!DOCTYPE svg PUBLIC "-//W3C//DTD SVG 1.1//EN" "http://www.w3.org/Graphics/SVG/1.1/DTD/svg11.dtd">
<svg version="1.1" id="Layer_1" xmlns="http://www.w3.org/2000/svg" xmlns:xlink="http://www.w3.org/1999/xlink" x="0px" y="0px"
	 width="3116.426px" height="1869.828px" viewBox="0 0 3116.426 1869.828" enable-background="new 0 0 3116.426 1869.828"
	 xml:space="preserve">
<g>
	<path fill="#FFFFFF" d="M17.154,364.856c-15.323,8.847-17.203,22.506-17.153,40.195s2,29.144,17.324,20.296
		c13.408-7.742,16.072-20.141,16.036-32.694l-10.215,5.898c0.035,12.553-2.653,16.31-6.343,18.44
		c-4.399,2.54-6.534,0.583-6.583-17.025c-0.046-16.463,1.144-23.111,6.321-26.101c4.61-2.662,6.114,0.145,6.138,8.618l10.215-5.898
		C32.869,368.113,31.769,356.417,17.154,364.856"/>
	<polyline fill="#FFFFFF" points="49.789,347.151 39.574,353.05 39.738,411.26 49.953,405.362 49.789,347.151 	"/>
	<path fill="#FFFFFF" d="M73.549,332.294c-15.323,8.847-17.203,22.506-17.153,40.195c0.05,17.689,2.001,29.144,17.324,20.296
		c13.407-7.742,16.078-20.145,16.042-32.698l-10.215,5.898c0.036,12.553-2.659,16.313-6.35,18.444
		c-4.392,2.536-6.534,0.583-6.583-17.025c-0.046-16.464,1.144-23.11,6.322-26.101c4.616-2.665,6.114,0.145,6.138,8.618l10.215-5.898
		C89.265,335.551,88.164,323.855,73.549,332.294"/>
	<polyline fill="#FFFFFF" points="105.686,314.877 95.471,320.775 95.635,378.986 123.944,362.64 123.917,353.021 105.823,363.469 
		105.686,314.877 	"/>
	<path fill="#FFFFFF" d="M144.635,343.183c-6.027,3.48-7.04-1.895-7.084-17.552c-0.044-15.568,0.935-22.175,6.962-25.655
		c6.033-3.483,7.04,1.977,7.083,17.545C151.641,333.178,150.668,339.699,144.635,343.183 M144.489,291.334
		c-15.323,8.847-17.204,22.506-17.153,40.195c0.05,17.689,2,29.144,17.324,20.296c15.323-8.847,17.203-22.513,17.153-40.203
		C161.762,293.934,159.812,282.487,144.489,291.334"/>
	<path fill="#FFFFFF" d="M195.638,312.588l-0.116-40.925l4.329-2.499c7.802-4.505,8.74,1.729,8.778,14.935
		c0.044,15.818-1.358,21.772-8.452,25.868L195.638,312.588 M202.023,259.253l-16.74,9.666l0.164,58.21l16.102-9.297
		c13.555-7.826,17.359-19.334,17.301-39.958C218.802,260.757,216.216,251.058,202.023,259.253"/>
	<polyline fill="#FFFFFF" points="253.809,229.353 225.506,245.694 225.67,303.905 254.682,287.154 254.655,277.535 
		235.858,288.388 235.814,272.731 252.842,262.899 252.815,253.281 235.787,263.112 235.749,249.415 253.836,238.971 
		253.809,229.353 	"/>
	<path fill="#FFFFFF" d="M292.822,205.688c-15.323,8.848-17.203,22.507-17.153,40.195c0.05,17.689,2.001,29.144,17.324,20.296
		c13.408-7.741,16.071-20.141,16.036-32.694l-10.215,5.898c0.035,12.554-2.653,16.31-6.343,18.44
		c-4.399,2.54-6.534,0.584-6.583-17.024c-0.047-16.464,1.144-23.111,6.321-26.101c4.609-2.662,6.114,0.144,6.138,8.618l10.215-5.898
		C308.537,208.945,307.437,197.25,292.822,205.688"/>
	<path fill="#FFFFFF" d="M324.78,224.714l4.823-28.998l0.141-0.081l4.971,23.343L324.78,224.714 M335.959,181.92l-12.628,7.292
		l-13.244,65.952l10.637-6.142l2.309-13.664l13.478-7.782l2.377,10.958l10.643-6.145L335.959,181.92"/>
	<path fill="#FFFFFF" d="M363.2,192.566l-0.05-17.689l4.258-2.459c5.108-2.949,7.103-0.83,7.119,4.87
		c0.017,5.958-2.74,10.32-6.788,12.657L363.2,192.566 M370.788,161.811l-17.877,10.322l0.164,58.21l10.215-5.898l-0.065-23.235
		l5.465-3.156c9.647-5.57,16.087-14.756,16.053-26.825C384.718,162.505,381.143,155.831,370.788,161.811"/>
	<path fill="#FFFFFF" d="M397.207,182.896l4.823-28.998l0.141-0.081l4.971,23.343L397.207,182.896 M408.387,140.101l-12.629,7.292
		l-13.244,65.952l10.643-6.146l2.309-13.664l13.478-7.782l2.378,10.958l10.637-6.142L408.387,140.101"/>
	<path fill="#FFFFFF" d="M441.513,119.835c-15.323,8.847-17.203,22.506-17.153,40.195c0.05,17.689,2.001,29.144,17.324,20.296
		c13.408-7.742,16.071-20.141,16.036-32.694l-10.215,5.898c0.036,12.553-2.653,16.31-6.343,18.44
		c-4.399,2.54-6.534,0.584-6.583-17.024c-0.046-16.464,1.144-23.111,6.321-26.101c4.61-2.662,6.114,0.144,6.138,8.618l10.215-5.898
		C457.228,123.093,456.127,111.397,441.513,119.835"/>
	<polyline fill="#FFFFFF" points="474.148,102.131 463.933,108.029 464.097,166.24 474.312,160.342 474.148,102.131 	"/>
	<polyline fill="#FFFFFF" points="511.389,80.628 479.039,99.308 479.065,108.926 490.136,102.534 490.273,151.125 500.489,145.227 
		500.352,96.636 511.417,90.247 511.389,80.628 	"/>
	<path fill="#FFFFFF" d="M523.201,110.148l4.817-28.994l0.147-0.085l4.964,23.347L523.201,110.148 M534.374,67.357l-12.628,7.292
		l-13.243,65.952l10.643-6.145l2.308-13.664l13.478-7.782l2.378,10.958l10.643-6.145L534.374,67.357"/>
	<path fill="#FFFFFF" d="M567.5,47.092c-15.323,8.848-17.203,22.506-17.153,40.195c0.049,17.205,1.858,28.491,16.117,20.993
		l-3.315,8.278l1.569,0.733c0.778-0.78,1.416-1.31,2.406-1.881c1.915-1.105,3.125-0.665,3.13,0.971
		c0.004,1.548-1.55,3.666-3.536,4.812c-1.775,1.025-3.903,1.688-4.9,1.609l-1.336,4.527c1.138,0.078,3.975-0.745,7.098-2.547
		c5.746-3.317,8.93-8.096,8.917-12.82c-0.011-3.837-3.209-4.195-5.974-2.599c-0.855,0.494-1.493,1.031-2.342,1.764l2.115-5.138
		c11.137-7.819,13.452-19.363,13.418-31.102l-10.222,5.902c0.036,12.553-2.652,16.31-6.343,18.44
		c-4.393,2.537-6.534,0.583-6.583-17.025c-0.046-16.463,1.143-23.11,6.321-26.1c4.61-2.662,6.114,0.144,6.138,8.618l10.215-5.898
		C583.216,50.349,582.115,38.654,567.5,47.092"/>
	<path fill="#FFFFFF" d="M599.458,66.118l4.823-28.998l0.141-0.081l4.971,23.343L599.458,66.118 M610.638,23.323l-12.629,7.292
		l-13.244,65.952l10.643-6.145l2.302-13.661l13.478-7.782l2.378,10.958l10.643-6.146L610.638,23.323 M615.417,6.109l-5.108,2.949
		c0.003,1.063-0.63,3.303-1.977,4.081c-0.708,0.409-1.418,0.657-2.127,0.743l-3.408,0.248c-0.857,0.09-1.776,0.46-3.054,1.198
		c-3.62,2.09-5.806,7.106-6.573,13.921l4.967-2.868c0.352-2.246,1.198-3.631,2.264-4.247c2.267-1.309,5.396-0.345,8.449-2.107
		C612.471,17.937,614.942,12.182,615.417,6.109"/>
	<path fill="#FFFFFF" d="M643.911,54.907c-6.034,3.483-7.04-1.895-7.084-17.552c-0.044-15.568,0.929-22.171,6.962-25.655
		c6.027-3.48,7.04,1.976,7.084,17.545C650.917,44.901,649.938,51.427,643.911,54.907 M643.764,3.058
		c-15.329,8.851-17.209,22.51-17.16,40.199c0.05,17.689,2.001,29.144,17.331,20.292c15.323-8.847,17.203-22.514,17.153-40.203
		C661.038,5.658,659.087-5.79,643.764,3.058"/>
</g>
<polygon fill="#FFFFFF" points="675,70.146 0,459.858 2441.426,1869.828 3116.426,1869.828 3116.426,1480.117 "/>
</svg>
