<?xml version="1.0" encoding="utf-8"?>
<!-- Generator: Adobe Illustrator 16.0.0, SVG Export Plug-In . SVG Version: 6.00 Build 0)  -->
<!DOCTYPE svg PUBLIC "-//W3C//DTD SVG 1.1//EN" "http://www.w3.org/Graphics/SVG/1.1/DTD/svg11.dtd">
<svg version="1.1" id="_x2014_ÎÓÈ_1" xmlns="http://www.w3.org/2000/svg" xmlns:xlink="http://www.w3.org/1999/xlink" x="0px"
	 y="0px" width="522.354px" height="495.037px" viewBox="0 0 522.354 495.037" enable-background="new 0 0 522.354 495.037"
	 xml:space="preserve">
<rect x="171.784" y="155.012" fill="#FED296" width="144.933" height="256.77"/>
<rect x="171.784" y="155.012" fill="#FED296" width="144.933" height="256.77"/>
<rect x="244.25" y="155.012" fill="#F8B777" width="72.467" height="256.77"/>
<rect x="156.036" y="355.481" fill="#DAE5EB" width="176.429" height="139.556"/>
<rect x="244.25" y="355.481" fill="#BDC7CC" width="88.215" height="139.556"/>
<path fill="#F8B777" d="M262.382,230.331l-18.259,1.142c0,0-4.565,43.366-20.542,47.932c-15.977,4.562-17.118,15.976,0,21.681
	c17.118,5.707,21.683-1.14,21.683-1.14L262.382,230.331z"/>
<path fill="#DEA56B" d="M244.25,300.786c0,0,13.619-8.17,15.435-0.908C261.501,307.142,248.79,304.417,244.25,300.786z"/>
<path fill="#987359" d="M244.821,191.53c0,0-79.885,47.93-114.12-20.542c-8.721-17.441,7.988-47.93,7.988-47.93
	s22.824,33.095,50.213,28.53c0,0-22.824-14.835-7.988-30.812c20.541,28.53,73.937-11.97,111.837-1.141
	c31.954,9.129,25.106,37.66,25.106,37.66s29.041-2.384,29.041,26.146s-31.323,89.404-31.323,89.404V191.53H244.821z"/>
<g>
	<circle fill="#DAE5EB" cx="273.36" cy="239.46" r="11.412"/>
	<circle fill="#829CAA" cx="273.36" cy="234.896" r="6.847"/>
	<circle fill="#231F20" cx="273.36" cy="231.934" r="3.884"/>
</g>
<g>
	<circle fill="#FFFFFF" cx="215.052" cy="239.46" r="11.412"/>
	<circle fill="#829CAA" cx="215.051" cy="234.896" r="6.847"/>
	<circle fill="#231F20" cx="215.052" cy="231.934" r="3.885"/>
</g>
<ellipse fill="#FED296" cx="171.784" cy="272.845" rx="15.748" ry="17.405"/>
<path fill="#F8B777" d="M332.769,273.15c0,9.61-7.05,17.403-15.747,17.403s-15.748-7.793-15.748-17.403
	c0-9.616,7.051-17.409,15.748-17.409S332.769,263.534,332.769,273.15z"/>
<path fill="#987359" d="M284.771,209.458c0,0-15.538-2.591-11.412-8.217C280.483,191.53,284.771,209.458,284.771,209.458z"/>
<path fill="#987359" d="M261.947,330.091c-0.689,0-1.311-0.479-1.464-1.179c-0.103-0.449-2.687-11.147-16.233-11.147
	c-13.556,0-16.218,10.706-16.324,11.162c-0.188,0.805-0.992,1.311-1.798,1.123c-0.805-0.186-1.309-0.986-1.126-1.792
	c0.031-0.134,3.246-13.493,19.249-13.493c16.012,0,19.134,13.368,19.163,13.504c0.178,0.809-0.334,1.609-1.143,1.787
	C262.162,330.079,262.054,330.091,261.947,330.091z"/>
<path fill="#829CAA" d="M261.546,372.821c0,9.576-7.764,17.34-17.34,17.34s-17.34-7.764-17.34-17.34l17.34-17.34L261.546,372.821z"
	/>
<path fill="#6A7D8D" d="M244.25,390.158c9.557-0.022,17.296-7.776,17.296-17.337l-17.296-17.295V390.158z"/>
<polygon fill="#829CAA" points="244.206,375.695 244.206,471.858 222.097,449.749 "/>
<polygon fill="#6A7D8D" points="244.206,375.695 244.206,471.858 266.314,449.749 "/>
<g>
	<path fill="#FED296" d="M156.036,355.904c-55.842,0-92.932-34.875-92.932-103.243H0.237c0,63.219,34.502,155.262,155.799,155.262
		V355.904z"/>
	<path fill="#FED296" d="M11.863,253.577c0,3.118-2.551,5.669-5.669,5.669H5.669c-3.118,0-5.669-2.551-5.669-5.669v-38.45
		c0-3.118,2.551-5.669,5.669-5.669h0.524c3.118,0,5.669,2.551,5.669,5.669V253.577z"/>
	<path fill="#FED296" d="M28.943,253.577c0,3.118-2.551,5.669-5.669,5.669H22.75c-3.118,0-5.669-2.551-5.669-5.669v-38.45
		c0-3.118,2.551-5.669,5.669-5.669h0.523c3.118,0,5.669,2.551,5.669,5.669V253.577z"/>
	<path fill="#FED296" d="M46.024,253.577c0,3.118-2.551,5.669-5.669,5.669h-0.523c-3.118,0-5.669-2.551-5.669-5.669v-38.45
		c0-3.118,2.551-5.669,5.669-5.669h0.523c3.118,0,5.669,2.551,5.669,5.669V253.577z"/>
	<path fill="#FED296" d="M63.104,253.577c0,3.118-2.551,5.669-5.669,5.669h-0.522c-3.118,0-5.669-2.551-5.669-5.669v-38.45
		c0-3.118,2.551-5.669,5.669-5.669h0.522c3.118,0,5.669,2.551,5.669,5.669V253.577z"/>
	<path fill="#FED296" d="M58.421,284.921c-2.205,2.205-5.812,2.205-8.018,0l-0.37-0.371c-2.205-2.204-2.205-5.812,0-8.017
		l27.188-27.188c2.205-2.206,5.813-2.206,8.018,0l0.37,0.37c2.205,2.203,2.205,5.811,0,8.016L58.421,284.921z"/>
	<path fill="#DAE5EB" d="M95.905,398.763c17.147,5.825,37.065,9.16,60.131,9.16v-52.019c-16.455,0-31.279-3.033-44.009-9.054
		L95.905,398.763z"/>
</g>
<g>
	<path fill="#F8B777" d="M332.47,355.472c45.082,25.143,90.728,13.689,121.513-41.508l50.754,28.307
		c-28.465,51.038-97.762,109.814-195.689,55.199L332.47,355.472z"/>
	<path fill="#F8B777" d="M495.148,337.401c-1.52,2.723-0.607,6.154,2.026,7.624c2.634,1.468,6.03,0.44,7.55-2.282l16.895-30.295
		c1.52-2.723,0.607-6.152-2.026-7.621s-6.03-0.443-7.55,2.279L495.148,337.401z"/>
	<path fill="#F8B777" d="M481.357,329.71c-1.52,2.723-0.606,6.154,2.027,7.623s6.031,0.442,7.551-2.281l16.895-30.294
		c1.52-2.724,0.606-6.153-2.027-7.622s-6.031-0.44-7.551,2.281L481.357,329.71z"/>
	<path fill="#F8B777" d="M467.567,322.021c-1.52,2.723-0.606,6.152,2.027,7.621c2.633,1.47,6.031,0.441,7.55-2.28l16.895-30.294
		c1.519-2.723,0.607-6.154-2.026-7.622c-2.634-1.47-6.031-0.442-7.55,2.279L467.567,322.021z"/>
	<path fill="#F8B777" d="M453.778,314.327c-1.52,2.723-0.606,6.154,2.027,7.623c2.633,1.469,6.03,0.441,7.549-2.281l16.895-30.294
		c1.519-2.721,0.606-6.151-2.027-7.62s-6.03-0.443-7.55,2.279L453.778,314.327z"/>
	<path fill="#F8B777" d="M443.12,341.706c0.852,3,3.923,4.78,6.824,3.956c2.9-0.823,4.577-3.952,3.726-6.952l-9.475-33.367
		c-0.852-3-3.922-4.78-6.823-3.955c-2.9,0.822-4.576,3.951-3.725,6.951L443.12,341.706z"/>
	<path fill="#BDC7CC" d="M361.718,417.15c-16.468-3.021-34.05-9.296-52.671-19.681l23.423-41.998
		c13.284,7.41,26.618,11.637,39.604,12.508L361.718,417.15z"/>
</g>
<path fill="#B3DBAC" d="M352.303,278.679c-0.81,0-1.477-0.646-1.498-1.459c-0.023-0.828,0.63-1.518,1.458-1.541
	c51.591-1.406,92.167-22.881,98.674-52.222C462.435,171.616,385.3,99.755,278.989,63.268
	c-74.103-25.432-147.183-27.737-186.182-5.873c-14.887,8.346-23.997,19.617-27.076,33.5c-3.277,14.778,0.483,31.321,11.176,49.169
	c10.299,17.19,26.989,35.057,48.266,51.668c0.653,0.51,0.769,1.452,0.259,2.105c-0.509,0.653-1.452,0.771-2.105,0.259
	c-45.264-35.338-67.325-73.19-60.525-103.851C66.074,75.493,75.676,63.56,91.34,54.778c19.338-10.841,46.949-16.136,79.824-15.321
	c33.638,0.837,71.26,8.09,108.8,20.973c52.033,17.859,98.759,44.616,131.571,75.342c33.064,30.962,48.098,62.333,42.331,88.335
	c-6.806,30.685-48.553,53.126-101.521,54.569C352.331,278.679,352.316,278.679,352.303,278.679z"/>
<path fill="#B3DBAC" d="M358.844,265.581c-0.809,0-1.476-0.645-1.498-1.459c-0.023-0.828,0.629-1.518,1.457-1.541
	c24.394-0.686,52.883-7.791,76.208-19.006c24.396-11.73,40.16-26.453,43.253-40.393c11.538-51.991-65.56-123.989-171.863-160.497
	c-52.751-18.114-105.97-26.971-149.833-24.932c-44.806,2.08-75.754,15.547-87.142,37.921c-8.279,16.263-14.054,47.122-3.08,80.565
	c11.994,36.554,41.627,67.585,85.695,89.738c0.74,0.372,1.039,1.273,0.667,2.014c-0.373,0.739-1.273,1.041-2.014,0.666
	c-44.797-22.519-74.95-54.153-87.198-91.482c-11.261-34.318-5.283-66.085,3.257-82.862c11.899-23.376,43.747-37.424,89.677-39.557
	c44.235-2.055,97.846,6.857,150.947,25.092c52.031,17.869,98.748,44.664,131.544,75.449c33.047,31.02,48.061,62.462,42.274,88.535
	c-7.213,32.503-72.806,60.356-122.307,61.747C358.872,265.581,358.858,265.581,358.844,265.581z"/>
<path fill="#B3DBAC" d="M375.949,254.188c-0.665,0-1.271-0.444-1.449-1.117c-0.212-0.8,0.267-1.622,1.067-1.833
	c50.069-13.208,70.817-30.983,74.003-63.396c5.532-56.31-77.631-113.082-185.386-126.553
	c-73.064-9.134-141.575,3.667-178.788,33.406c-16.013,12.798-24.957,27.676-26.583,44.22c-1.572,15.994,3.237,31.573,13.542,43.868
	c14.146,16.878,37.762,27.056,68.296,29.434c0.826,0.064,1.443,0.786,1.379,1.612c-0.064,0.826-0.774,1.444-1.612,1.379
	c-31.355-2.442-55.687-12.988-70.362-30.499c-10.827-12.917-15.879-29.285-14.228-46.088c1.684-17.136,11.261-33.136,27.696-46.271
	c37.822-30.226,107.187-43.271,181.033-34.039c52.819,6.604,101.435,23.647,136.89,47.992
	c35.732,24.535,53.883,53.596,51.109,81.831c-3.29,33.466-25.373,52.587-76.224,66.003
	C376.205,254.173,376.076,254.188,375.949,254.188z"/>
<polygon fill="#FFFFFF" points="289.745,42.637 283.716,41.059 278.999,45.131 278.636,38.909 273.306,35.681 279.111,33.414 
	280.535,27.347 284.484,32.167 290.694,31.646 287.331,36.893 "/>
<polygon fill="#FFFFFF" points="370.987,101.296 367.358,94.625 359.807,93.831 365.03,88.319 363.452,80.893 370.307,84.158 
	376.884,80.361 375.897,87.89 381.541,92.97 374.075,94.36 "/>
<polygon fill="#FFFFFF" points="466.425,162.516 461.771,161.352 458.175,164.528 457.844,159.742 453.713,157.304 458.161,155.511 
	459.205,150.828 462.286,154.505 467.061,154.05 464.516,158.117 "/>
<polygon fill="#FFFFFF" points="97.412,189.438 92.759,188.276 89.163,191.451 88.831,186.665 84.701,184.228 89.149,182.433 
	90.193,177.75 93.273,181.427 98.049,180.974 95.504,185.038 "/>
<polygon fill="#FFFFFF" points="119.815,98.793 115.162,97.63 111.566,100.806 111.233,96.02 107.104,93.583 111.552,91.788 
	112.597,87.105 115.677,90.782 120.451,90.328 117.907,94.394 "/>
<polygon fill="#FFFFFF" points="399.211,247.188 394.559,246.025 390.962,249.198 390.629,244.415 386.501,241.978 390.949,240.184 
	391.992,235.499 395.073,239.177 399.848,238.721 397.303,242.786 "/>
<polygon fill="#FFFFFF" points="68.322,110.861 61.182,109.078 55.664,113.947 55.153,106.605 48.818,102.866 55.644,100.111 
	57.244,92.927 61.972,98.569 69.298,97.87 65.395,104.109 "/>
<polygon fill="#FFFFFF" points="475.977,212.584 468.746,210.779 463.16,215.71 462.643,208.275 456.228,204.487 463.138,201.7 
	464.76,194.424 469.545,200.137 476.965,199.431 473.012,205.747 "/>
<polygon fill="#FFFFFF" points="151.381,37.839 144.151,36.033 138.564,40.964 138.048,33.529 131.631,29.743 138.543,26.955 
	140.164,19.679 144.951,25.391 152.369,24.686 148.417,31.002 "/>
<g>
	<polygon fill="#FFD400" points="203.639,0 213.492,19.963 235.521,23.164 219.58,38.702 223.344,60.644 203.639,50.285 
		183.935,60.644 187.699,38.702 171.757,23.164 193.787,19.963 	"/>
	<polygon fill="#FCB116" points="213.492,19.963 203.639,0 203.639,0 203.639,50.285 203.639,50.285 223.344,60.644 219.58,38.702 
		235.521,23.164 	"/>
</g>
<g>
	<polygon fill="#FFD400" points="317.021,29.164 323.792,42.882 338.931,45.081 327.976,55.759 330.562,70.837 317.021,63.719 
		303.48,70.837 306.067,55.759 295.111,45.081 310.251,42.882 	"/>
	<polygon fill="#FCB116" points="323.792,42.882 317.021,29.164 317.021,29.164 317.021,63.719 317.021,63.719 330.562,70.837 
		327.976,55.759 338.931,45.081 	"/>
</g>
<g>
	<polygon fill="#FFD400" points="415.083,73.119 421.854,86.837 436.993,89.036 426.038,99.714 428.624,114.792 415.083,107.674 
		401.543,114.792 404.13,99.714 393.174,89.036 408.313,86.837 	"/>
	<polygon fill="#FCB116" points="421.854,86.837 415.083,73.119 415.083,73.119 415.083,107.674 415.083,107.674 428.624,114.792 
		426.038,99.714 436.993,89.036 	"/>
</g>
<g>
	<polygon fill="#FFD400" points="432.099,155.563 436.34,164.154 445.82,165.531 438.96,172.218 440.579,181.661 432.099,177.203 
		423.619,181.661 425.239,172.218 418.378,165.531 427.859,164.154 	"/>
	<polygon fill="#FCB116" points="436.34,164.154 432.099,155.563 432.099,155.563 432.099,177.203 432.099,177.203 440.579,181.661 
		438.96,172.218 445.82,165.531 	"/>
</g>
<g>
	<polygon fill="#FFD400" points="418.378,219.625 423.165,229.32 433.864,230.874 426.122,238.421 427.949,249.079 418.378,244.05 
		408.808,249.079 410.636,238.421 402.892,230.874 413.593,229.32 	"/>
	<polygon fill="#FCB116" points="423.165,229.32 418.378,219.625 418.378,219.625 418.378,244.05 418.378,244.05 427.949,249.079 
		426.122,238.421 433.864,230.874 	"/>
</g>
<g>
	<polygon fill="#FFD400" points="91.375,38.77 97.583,51.348 111.463,53.364 101.418,63.155 103.791,76.979 91.375,70.453 
		78.959,76.979 81.332,63.155 71.287,53.364 85.167,51.348 	"/>
	<polygon fill="#FCB116" points="97.583,51.348 91.375,38.77 91.375,38.77 91.375,70.453 91.375,70.453 103.791,76.979 
		101.418,63.155 111.463,53.364 	"/>
</g>
<g>
	<polygon fill="#FFD400" points="67.821,133.044 73.6,144.752 86.521,146.63 77.17,155.743 79.378,168.612 67.821,162.537 
		56.264,168.612 58.472,155.743 49.122,146.63 62.043,144.752 	"/>
	<polygon fill="#FCB116" points="73.6,144.752 67.821,133.044 67.821,133.044 67.821,162.537 67.821,162.537 79.378,168.612 
		77.17,155.743 86.521,146.63 	"/>
</g>
</svg>
