<?xml version="1.0" encoding="utf-8"?>
<!-- Generator: Adobe Illustrator 16.0.0, SVG Export Plug-In . SVG Version: 6.00 Build 0)  -->
<!DOCTYPE svg PUBLIC "-//W3C//DTD SVG 1.1//EN" "http://www.w3.org/Graphics/SVG/1.1/DTD/svg11.dtd">
<svg version="1.1" xmlns="http://www.w3.org/2000/svg" xmlns:xlink="http://www.w3.org/1999/xlink" x="0px" y="0px"
	 width="697.584px" height="492.711px" viewBox="0 0 697.584 492.711" enable-background="new 0 0 697.584 492.711"
	 xml:space="preserve">
<g id="BG">
</g>
<g id="Graphics">
	<g>
		<g>
			<path fill="#FFE1CC" d="M396.295,179.375c1.11-5.771,0.888-12.876,0.888-12.876c0.062-16.274-10.064-12.31-10.064-12.505
				l-9.418,24.775c-0.963,3.338,4.629,10.14,4.849,10.359c0,0,5.887-0.896,6.198-0.871
				C394.297,188.7,396.295,179.375,396.295,179.375z"/>
		</g>
		<g>
			<path fill="#FFE1CC" d="M276.756,178.432c-0.857-1.297-1.423-16.809-1.423-16.809c-0.467-5.762,11.015-11.19,14.284-4.115
				l5.731,16.751c0.964,3.339-1.542,8.375-2,8.725c0,0-7.673,3.15-10.596,2.695C278.233,184.971,276.756,178.432,276.756,178.432z"
				/>
		</g>
		<g>
			<path fill="#FFE1CC" d="M369.095,277.568l-17.618-11.325c-1.896-0.293-3.38-2.253-3.405-4.289l-0.471-9.41h-10.947h-9.706
				l-0.483,9.809c-0.096,1.916-1.528,3.512-3.427,3.805l-21.215,3.289c-5.946,1.104,5.154,18.209,5.154,26.753v58.008h30.121h0.591
				h30.12v-51.776c0-0.547,0.454-0.982,0.998-0.961c0.101,0.002,0.193,0.036,0.287,0.062V277.568z"/>
		</g>
		<g>
			<path fill="#2C5871" d="M289.983,466.653l-2.948,9.123c-1.369,1.711-5.599,5.617-6.054,6.638c-0.448,1.009-0.26,3.552-0.26,5.29
				c0,2.804,0.889,2.804,2.771,2.804h17.994c6.054,0,8.781-6.205,11.269-8.853c1.679-1.787,1.548-3.821,1.548-7.24v-7.779
				L289.983,466.653z"/>
		</g>
		<g>
			<path fill="#253F59" d="M315.176,478.314c0,1.398-0.018,1.855-0.915,2.733l-8.185,5.273l-1.832-19.686h9.23
				c1.506,0,1.701,0,1.701,2.727V478.314z"/>
		</g>
		<g>
			<path fill="#10323E" d="M315.176,469.362c0-2.089-0.122-2.572-0.871-2.692v-0.034h-24.348l-6.827,10.799
				c-1.855,2.636-2.403,3.732-2.403,6.623c0.021,2.7,0.907,2.714,2.767,2.714h17.311c6.932,0,8.515-5.489,10.529-7.415l3.843-2.991
				V469.362z"/>
		</g>
		<g>
			<g>
				<path fill="#2C5871" d="M385.166,466.653l2.947,9.123c1.371,1.711,5.601,5.617,6.056,6.638c0.448,1.009,0.259,3.552,0.259,5.29
					c0,2.804-0.89,2.804-2.771,2.804h-17.995c-6.054,0-8.779-6.205-11.269-8.853c-1.679-1.787-1.547-3.821-1.547-7.24v-7.779
					L385.166,466.653z"/>
			</g>
			<g>
				<path fill="#253F59" d="M359.972,478.314c0,1.398,0.019,1.855,0.916,2.733l8.185,5.273l1.831-19.686h-9.229
					c-1.508,0-1.703,0-1.703,2.727V478.314z"/>
			</g>
			<g>
				<path fill="#10323E" d="M359.972,469.362c0-2.089,0.122-2.572,0.873-2.692v-0.034h24.347l6.828,10.799
					c1.854,2.636,2.401,3.732,2.401,6.623c-0.02,2.7-0.907,2.714-2.766,2.714h-17.311c-6.933,0-8.516-5.489-10.529-7.415
					l-3.844-2.991V469.362z"/>
			</g>
		</g>
		<g>
			<path fill="#FFE1CC" d="M337.602,354.207H307.21l-16.414,113.224l21.55,0.041l21.122-90.509c0.136-1.639,1.526-2.9,3.196-2.9
				h0.938V354.207z"/>
		</g>
		<g>
			<path fill="#FFE1CC" d="M337.602,354.207h30.439l16.413,112.174l-21.611-0.029l-21.104-89.389c-0.139-1.639-1.529-2.9-3.198-2.9
				h-0.939V354.207z"/>
		</g>
		<g>
			<path fill="#14546D" d="M307.21,346.098v8.109v9.771l26.009,14.327l0.25-1.343c0.136-1.639,1.526-2.9,3.196-2.9h0.938h0.939
				c1.669,0,3.059,1.262,3.198,2.9l0.249,1.038l26.054-14.022v-9.771v-8.109H307.21z"/>
		</g>
		<g>
			<path fill="#E8C5AC" d="M346.632,260l1.274-1.325l-0.305-6.131h-10.947h-9.706l-0.282,5.748l1.641,1.713
				c1.459,1.516,3.485,2.38,5.591,2.38h3.64v-0.003h3.505C343.148,262.382,345.175,261.52,346.632,260z"/>
		</g>
		<g>
			<path fill="#10323E" d="M337.664,345.72L337.664,345.72h-0.099h-0.096l0,0l-30.443,0.197L289.449,466.75
				c0,1.718,0.935,1.75,1.818,1.75l20.865-0.032c1.701-0.032,3.189-0.673,3.808-3.434l19.368-85.535
				c0.166-3.689,3.957-3.543,4.125,0.147l19.474,85.973c0.683,2.541,1.181,3.012,2.751,3.012l21.864-0.012
				c2.461-0.009,2.163-0.935,2.163-1.968l-17.577-120.734L337.664,345.72z"/>
		</g>
		<g>
			<path fill="#E8C5AC" d="M353.439,229.473l1.211,0.074c1.816,0.507,3.777,2.217,3.317,4.981c-0.417,2.516-0.616,2.729-1.128,5.848
				c-0.724,4.41-4.333,2.973-4.333,2.973L353.439,229.473z"/>
		</g>
		<g>
			<path fill="#E8C5AC" d="M321.688,229.473l-1.208,0.074c-1.817,0.507-3.778,2.217-3.317,4.981
				c0.416,2.516,0.615,2.729,1.128,5.848c0.721,4.41,4.332,2.973,4.332,2.973L321.688,229.473z"/>
		</g>
		<g>
			<path fill="#FFE1CC" d="M337.404,214.554v0.003l-16.436,0.068v31.294c0,2.111,0.823,4.155,2.287,5.682l5.053,5.262
				c1.459,1.518,3.485,2.381,5.591,2.381h3.64v-0.006h3.505c2.104,0,4.132-0.863,5.589-2.38l5.056-5.261
				c1.462-1.525,2.285-3.57,2.285-5.685v-31.29L337.404,214.554z"/>
		</g>
		<g>
			<path fill="#10323E" d="M320.954,233.675v-10.913c-0.049-3.788,2.572-7.604,6.739-7.666h8.003c2.123,0.78,0.031,5.469,2.141,4.66
				l12.615-4.772c2.266-0.487,3.564,1.477,3.564,3.304v15.259c0,0.635,2.443-1.056,3.29-4.654l1.516-21.426
				c0.055-2.907-0.788-5.772-4.85-5.772l-9.157,0.004h-12.419c-10.226-0.179-17.928,4.809-16.208,15.797l1.958,12.179
				C318.5,232.49,320.954,234.235,320.954,233.675z"/>
		</g>
		<g opacity="0.09">
			<g>
				<path fill="#F5F5F5" d="M289.449,466.75c0,1.718,0.935,1.75,1.818,1.75l11.23-0.017l17.578-117.757h-13.05L289.449,466.75z"/>
			</g>
		</g>
		<g opacity="0.09">
			<g>
				<path fill="#F5F5F5" d="M355.5,350.727l17.576,117.897l10.444-0.005c2.461-0.009,2.163-0.935,2.163-1.968l-17.577-115.925H355.5
					z"/>
			</g>
		</g>
		<g>
			<circle fill="#D7E9F7" cx="297.429" cy="361.394" r="1.624"/>
		</g>
		<g>
			<path fill="#EBF2F7" d="M367.303,347.167l0.507-44.736c0-0.547,0.454-0.982,0.998-0.961c0.101,0.002,0.193,0.036,0.287,0.062
				v-23.963l-17.618-11.325c-0.64-0.101-1.231-0.393-1.736-0.81l-0.796,0.106l-11.658,7.882l-12.364-7.687l-0.645,0.012
				c-0.381,0.197-0.795,0.341-1.239,0.41l-21.215,3.289c-0.145,0.027-0.285,0.064-0.427,0.095l-0.465,17.435
				c3.287,2.58,6.046,5.773,6.046,9.224v50.968H367.303z"/>
		</g>
		<g>
			<path fill="#FC611F" d="M339.07,285.733c-0.142-0.732-0.039-1.309,0.261-1.908l1.832-3.698l-3.717-6.499v-0.158l-0.047,0.079
				l-0.044-0.079v0.158l-3.711,6.499l1.848,3.794c0.63,1.067,0.375,1.373,0.271,1.897l-2.13,41.39l3.722,3.161l3.886-3.161
				L339.07,285.733z"/>
		</g>
		<g>
			<g>
				<g>
					<path fill="#10323E" d="M315.744,316.706l3.515-36.031l-0.527-14.334l-12.362,1.518l-19.92,89.859
						c-0.292,0.86-0.512,2.782,1.171,3.516l20.416,7.623c0.792,0.296,1.65-0.229,1.748-1.071L315.744,316.706z"/>
				</g>
			</g>
			<g>
				<g>
					<path fill="#10323E" d="M379.423,184.778l-17.143,74.22l-11.425,5.712l1.506,8.056l3.809,41.596l4.972,52.908
						c0.079,0.848,0.924,1.399,1.731,1.134l22.591-7.463c0.786,0,1.58,0.232,1.58-2.227l-11.484-52.453
						c-1.366-8.496-0.293-13.965,1.312-22.167l16.759-94.876L379.423,184.778z"/>
				</g>
			</g>
		</g>
		<g>
			<path fill="#FFE1CC" d="M291.712,171.58c0.872,0.162,3.138-1.415,3.917-2.436l2.25-3.375c1.503-2.417,2.448-2.427,3.669-1.953
				c1.296,0.502,1.63,1.291,0.729,3.407c0,0-7.898,17.083-8.555,17.009l-9.811,0.456C283.91,184.688,285.722,170.475,291.712,171.58
				z"/>
		</g>
		<g>
			<path fill="#FFE1CC" d="M386.972,176.49c-4.44-1.11-5.822-3.755-6.482-4.856l-1.86-3.603c-1.227-2.569-2.164-2.685-3.43-2.348
				c-1.344,0.355-1.764,1.101-1.103,3.305c0,0,4.888,18.157,5.548,18.157l10.764,1.238
				C390.409,188.384,392.904,177.973,386.972,176.49z"/>
		</g>
		<g>
			<path fill="#10323E" d="M298.028,305.284c0.586-3.318-0.684-12.891-2.343-22.068l-14.304-94.498l14.768-3.306l14.476,75.441
				l10.937,4.589L298.028,305.284z"/>
		</g>
		<g>
			<path fill="#FFFFFF" d="M378.23,185.318c0.357-1.26,0.849-1.448,2.001-1.237l13.358,2.4c1.118,0.209,1.24,0.555,1.013,1.812
				l-1.197,6.65c-0.226,1.256-0.224,1.694-1.83,1.404l-14.404-2.59c-1.085-0.197-1.002-0.727-0.664-1.912L378.23,185.318z"/>
		</g>
		<g>
			<path fill="#D7E9F7" d="M378.952,189.065c0.158-0.883,0.948-1.482,1.77-1.334c0.816,0.147,1.352,0.979,1.193,1.867
				c-0.159,0.881-0.951,1.479-1.768,1.33C379.326,190.781,378.793,189.947,378.952,189.065z"/>
		</g>
		<g>
			<path fill="#FFFFFF" d="M295.999,183.556c-0.355-1.261-0.846-1.448-2-1.24l-14.549,2.794c-1.117,0.208-1.239,0.553-1.012,1.811
				l1.191,6.652c0.224,1.256,0.223,1.694,1.829,1.404l15.594-2.981c1.086-0.196,1.003-0.725,0.667-1.913L295.999,183.556z"/>
		</g>
		<g>
			<path fill="#D7E9F7" d="M294.886,187.266c-0.159-0.884-0.947-1.481-1.769-1.334c-0.816,0.146-1.352,0.98-1.194,1.865
				c0.158,0.881,0.949,1.48,1.766,1.334C294.51,188.981,295.042,188.149,294.886,187.266z"/>
		</g>
		<g>
			<path fill="#2C5871" d="M322.635,264.954l-7.11,0.707c0,0-0.958,0.119-1.257,0.436c-0.102,0.107-0.307,0.494-0.307,0.494
				l-3.562,8.696c-0.712,1.854-0.62,2.233,0.968,2.843l5.486,2.098l-7.491,4.376c-1.667,0.955-1.471,2.03-1.239,3.845l6.743,35.389
				L322.635,264.954z"/>
		</g>
		<g>
			<path fill="#2C5871" d="M351.148,263.881l5.787,0.684c0,0,0.388,0,0.535,0.08c0.157,0.083,0.385,0.43,0.385,0.43l4.013,10.746
				c0.68,1.864,0.583,2.244-1.016,2.825l-5.522,2.008l7.419,4.5c2.219,1.242,1.387,2.554,1.173,3.867l-6.97,34.034L351.148,263.881z
				"/>
		</g>
		<g>
			<g>
				<path fill="#FFFFFF" d="M326.545,260.936c-0.873-1.009-1.274-1.274-1.88-0.065l-2.282,3.689
					c-0.536,0.865-0.547,1.966-0.028,2.842l8.887,15.019c0.673,1.142,1.21,1.071,1.814-0.069l4.296-8.929L326.545,260.936z"/>
			</g>
			<g>
				<path fill="#FFFFFF" d="M348.096,260.936c0.873-1.009,1.276-1.274,1.88-0.065l2.282,3.689c0.536,0.865,0.547,1.966,0.028,2.842
					l-8.887,15.019c-0.672,1.142-1.211,1.071-1.814-0.069l-4.297-8.929L348.096,260.936z"/>
			</g>
		</g>
		<g>
			<g>
				<g>
					<path fill="#FC611F" d="M432.324,92.474l-2.442-19.005c-0.345-2.63-2.739-4.483-5.377-4.147l-11.224,1.452
						c-2.124-6.712-5.185-13.18-9.141-19.247l8.264-7.793c1.937-1.819,2.012-4.849,0.203-6.777L399.46,23.017
						c-1.816-1.932-4.856-2.006-6.787-0.199l-8.291,7.832c-2.801-2.074-5.714-3.992-8.77-5.674
						c-3.223-1.777-6.523-3.248-9.872-4.543l2.116-11.204c0.485-2.604-1.226-5.103-3.823-5.588l-18.842-3.559
						c-2.598-0.485-5.097,1.227-5.593,3.821l-2.096,11.122c-7.148-0.047-14.242,0.852-21.156,2.695l-4.821-10.213
						c-1.141-2.394-3.99-3.414-6.383-2.282l-17.321,8.2c-2.398,1.131-3.414,3.991-2.283,6.377l4.822,10.191
						c-2.931,2.102-5.776,4.369-8.459,6.907c-2.585,2.438-4.954,5.013-7.137,7.696l-9.819-5.373
						c-2.324-1.274-5.226-0.429-6.508,1.904l-9.196,16.809c-1.266,2.326-0.419,5.226,1.905,6.501l9.749,5.343
						c-2.277,6.838-3.597,13.921-3.99,21.059l-11.016,1.421c-2.611,0.333-4.475,2.737-4.139,5.36l2.446,19.007
						c0.335,2.632,2.743,4.486,5.368,4.148l10.882-1.401c2.129,6.785,5.2,13.33,9.182,19.482l-7.971,7.505
						c-1.914,1.819-2.006,4.84-0.186,6.777l13.136,13.94c1.814,1.92,4.855,2.007,6.785,0.203l7.954-7.499
						c2.848,2.086,5.797,4.042,8.892,5.759c3.258,1.785,6.608,3.288,10.002,4.593l-2.023,10.735
						c-0.489,2.602,1.22,5.102,3.817,5.591l18.842,3.553c2.602,0.483,5.11-1.224,5.602-3.822l2.013-10.712
						c7.222,0.038,14.417-0.897,21.375-2.78l4.683,9.891c1.136,2.395,3.983,3.411,6.371,2.287l17.336-8.204
						c2.391-1.13,3.413-3.985,2.276-6.374l-4.738-10.022c2.821-2.036,5.57-4.227,8.152-6.665c2.699-2.551,5.163-5.257,7.444-8.074
						l9.738,5.336c2.32,1.265,5.235,0.414,6.505-1.905l9.192-16.816c1.276-2.32,0.423-5.229-1.903-6.497l-9.803-5.378
						c2.219-6.828,3.491-13.894,3.85-21.003l11.214-1.441C430.799,97.497,432.656,95.098,432.324,92.474z M387.815,123.198
						c-15.499,28.127-50.855,38.372-78.993,22.869c-28.125-15.488-38.375-50.854-22.879-78.98
						c15.485-28.128,50.855-38.382,78.984-22.881C393.062,59.697,403.309,95.072,387.815,123.198z"/>
				</g>
			</g>
			<g>
				<g>
					<path fill="#FC611F" d="M361.35,50.702c-24.541-13.523-55.4-4.577-68.91,19.962c-13.519,24.54-4.577,55.394,19.961,68.907
						c24.549,13.526,55.396,4.587,68.918-19.952C394.836,95.08,385.896,64.218,361.35,50.702z M372.625,114.83
						c-10.877,19.739-35.689,26.929-55.436,16.049c-19.738-10.87-26.931-35.688-16.056-55.426
						c10.867-19.74,35.689-26.936,55.429-16.058C376.307,70.267,383.499,95.091,372.625,114.83z"/>
				</g>
			</g>
		</g>
	</g>
	<g>
		<g>
			<path fill="#2C5871" d="M174.033,308.614c-2.529-7.053-8.783-18.366-12.244-38.594l-5.473-56.893l10.497-1.735
				c0,0,5.794,36.265,6.022,37.734c3.459,22.357,8.65,32.739,8.65,32.739L174.033,308.614z"/>
		</g>
		<g>
			<path fill="#2C5871" d="M230.665,308.614c2.528-7.053,9.022-18.632,11.507-39.125l7.545-55.203l-10.114-2.662
				c0,0-6.785,37.23-7.013,38.701c-3.46,22.357-9.227,32.116-9.227,32.116L230.665,308.614z"/>
		</g>
		<g>
			<path fill="#FFE1CC" d="M252.429,204.807c0.699-1.056,1.159-13.687,1.159-13.687c0.381-4.69-6.935-5.327-6.935-5.488
				l-8.505,13.74c-0.785,2.719,2.177,9.75,2.316,9.898c0,0,4.703,1.809,7.082,1.438
				C251.228,210.133,252.429,204.807,252.429,204.807z"/>
		</g>
		<g>
			<path fill="#FFE1CC" d="M154.348,206.639c-0.699-1.056-1.159-13.685-1.159-13.685c-0.38-4.691,6.935-5.328,6.935-5.488
				l8.505,13.738c0.785,2.721-0.598,8.932-3.061,9.715c0,0-3.958,1.994-6.338,1.622C155.55,211.965,154.348,206.639,154.348,206.639
				z"/>
		</g>
		<g>
			<path fill="#5C7E91" d="M218.146,226.181c-3.147-1.072-6.953-0.456-6.953-0.456s-7.634-7.597-17.898-4.612
				c-5.658,1.646-16.244,6.285-16.244,23.304c0,9.729,2.15,14.96,4.778,19.665c7.235,12.956,20.478,14.655,20.478,14.655
				s11.837-0.588,20.478-14.655c2.821-4.591,4.863-9.936,4.863-19.665C227.648,235.448,225.288,228.609,218.146,226.181z"/>
		</g>
		<g>
			<g>
				<path fill="#FDC00F" d="M261.9,164.981c0.32-1.698-0.797-3.327-2.496-3.642l-7.165-1.35c-0.008-4.68-0.649-9.317-1.867-13.797
					l6.659-3.163c1.554-0.739,2.22-2.602,1.482-4.162l-5.362-11.285c-0.746-1.559-2.606-2.224-4.173-1.48l-6.662,3.172
					c-2.675-3.729-5.883-7.12-9.562-10.078l3.543-6.504c0.832-1.52,0.265-3.413-1.246-4.241l-10.971-5.979
					c-1.518-0.829-3.417-0.26-4.247,1.25l-3.553,6.534c-2.157-0.718-4.35-1.317-6.585-1.741c-2.356-0.449-4.701-0.692-7.038-0.817
					l-0.957-7.373c-0.228-1.713-1.793-2.915-3.502-2.689l-12.399,1.61c-1.708,0.225-2.91,1.792-2.693,3.501l0.953,7.318
					c-4.439,1.418-8.655,3.412-12.567,5.954l-5.055-5.354c-1.192-1.253-3.165-1.308-4.419-0.122l-9.076,8.589
					c-1.257,1.187-1.308,3.166-0.124,4.415l5.052,5.341c-1.391,1.895-2.695,3.876-3.844,5.993c-1.109,2.036-2.056,4.111-2.865,6.216
					l-7.174-1.342c-1.699-0.318-3.325,0.793-3.648,2.499l-2.296,12.28c-0.314,1.699,0.797,3.325,2.496,3.644l7.125,1.338
					c-0.027,4.699,0.589,9.357,1.791,13.86l-6.54,3.111c-1.551,0.734-2.219,2.604-1.48,4.161l5.365,11.286
					c0.74,1.562,2.608,2.225,4.167,1.484l6.461-3.072c2.694,3.774,5.922,7.209,9.636,10.215l-3.42,6.268
					c-0.818,1.514-0.264,3.405,1.256,4.237l10.964,5.981c1.514,0.82,3.417,0.26,4.248-1.249l3.412-6.259
					c2.186,0.715,4.411,1.33,6.677,1.77c2.381,0.446,4.762,0.698,7.129,0.82l0.919,7.064c0.224,1.712,1.79,2.914,3.499,2.692
					l12.397-1.614c1.711-0.227,2.92-1.792,2.699-3.502l-0.921-7.049c4.483-1.438,8.753-3.475,12.686-6.051l4.904,5.183
					c1.19,1.255,3.161,1.308,4.413,0.127l9.083-8.596c1.253-1.185,1.309-3.161,0.121-4.409l-4.966-5.254
					c1.336-1.832,2.597-3.748,3.704-5.781c1.156-2.128,2.135-4.305,2.98-6.512l7.116,1.334c1.694,0.315,3.329-0.803,3.646-2.497
					L261.9,164.981z M194.202,187.443c-15.273-2.899-25.308-17.637-22.406-32.912c2.897-15.274,17.636-25.313,32.914-22.408
					c15.278,2.9,25.314,17.642,22.414,32.917C224.218,180.316,209.484,190.349,194.202,187.443z"/>
			</g>
		</g>
		<g>
			<path fill="#FFE1CC" d="M226.947,354.154c-2.315-7.778-3.149-11.205-0.607-25.293l8.434-39.32
				c-1.605-1.191-3.616-2.027-6.089-2.37l-9.914-2.117v-0.002l-1.775-0.379c-2.718-0.581-4.711-2.932-4.837-5.703l-0.217-4.739
				l-0.139-3.009h-8.514h-0.743h-0.741h-8.516l-0.137,3.009l-0.217,4.739c-0.128,2.771-2.119,5.122-4.837,5.703l-1.776,0.379v0.002
				l-9.913,2.117c-2.813,0.392-5.028,1.418-6.727,2.887l6.653,28.647l2.419,10.156c2.402,14.088,2.17,16.312-0.515,25.106
				l-3.736,11.748c-1.485,5.092-1.485,14.817-1.485,14.817l1.501,26.389h0.022l6.105,68.865l13.488-0.271l4.503-68.595l1.227-17.295
				c0,0,0.489-2.473,0.895-2.999c0.908-1.172,2.762-1.079,3.576,0c0.401,0.531,0.896,2.999,0.896,2.999l1.229,17.295l4.501,68.595
				l13.486,0.271l6.107-68.865h0.022l1.499-26.389c0,0,0-9.726-1.484-14.817L226.947,354.154z"/>
		</g>
		<g>
			<path fill="#2C5871" d="M226.947,354.154c-2.315-7.778-3.149-11.205-0.607-25.293l8.434-39.32
				c-1.605-1.191-8.14-7.822-10.612-8.163l-5.39,3.676v-0.002l-1.775-0.379c-0.928-0.199-1.761-0.615-2.475-1.174l-12.003,6.616
				l-11.947-6.616c-0.715,0.559-1.547,0.975-2.476,1.174l-1.776,0.379v0.002l-8.56-5.718c-2.813,0.391-10.146,5.482-8.08,10.722
				l9.072,38.804c2.402,14.088,2.17,16.312-0.515,25.106l-3.736,11.748c-0.209,0.719-0.387,1.535-0.541,2.396h57.172
				c-0.153-0.86-0.332-1.677-0.541-2.396L226.947,354.154z"/>
		</g>
		<g>
			<path fill="#14546D" d="M230.59,365.716H174.5c-0.614,2.101-0.973,4.987-1.182,7.659l27.048,14.2
				c0.128-0.414,0.262-0.781,0.39-0.947c0.908-1.172,2.762-1.079,3.576,0c0.116,0.153,0.239,0.474,0.355,0.842l27.075-14.216
				C231.549,370.616,231.195,367.784,230.59,365.716z"/>
		</g>
		<g>
			<path fill="#14546D" d="M230.59,365.716H174.5c-0.614,2.101-0.973,4.987-1.182,7.659l27.048,14.2
				c0.128-0.414,0.262-0.781,0.39-0.947c0.908-1.172,2.762-1.079,3.576,0c0.116,0.153,0.239,0.474,0.355,0.842l27.075-14.216
				C231.549,370.616,231.195,367.784,230.59,365.716z"/>
		</g>
		<g>
			<path fill="#E8C5AC" d="M211.971,274.896l-0.03-0.665l-0.139-3.009h-8.514h-0.743h-0.741h-8.516l-0.137,3.009l-0.031,0.742
				c2.127,2.089,5.218,4.032,9.398,4.032C206.702,279.009,209.8,277.079,211.971,274.896z"/>
		</g>
		<g>
			<path fill="#10323E" d="M184.967,492.711h8.722c0.887,0,1.213-0.305,1.213-1.312v-13.526h-9.935V492.711z"/>
		</g>
		<g>
			<path fill="#10323E" d="M194.902,480.808v-8.043c0,0,0.183-6.167-2.004-6.167l-8.069,5.239c-0.948,0-6.303,7.222-6.584,8.389
				c-0.64,2.654-1.862,7.207-1.997,7.665c-1.183,4.072,1.707,4.804,3.695,4.804l5.815-0.014c0,0,4.56,0.504,6.623-4.917
				C193.032,486.051,194.902,480.808,194.902,480.808z"/>
		</g>
		<g>
			<path fill="#FFE1CC" d="M194.576,468.909c0.031,7.526-3.507,16.604-10.268,16.604h-0.611c-4.786,0.071-5.954-3.797-5.147-6.448
				c1.938-6.398,1.782-9.595,1.782-9.595l14.032-4.042L194.576,468.909z"/>
		</g>
		<g>
			<path fill="#10323E" d="M222.241,492.688h-11.128c-0.822,0-0.937-0.327-0.937-1.839v-13.001h12.065V492.688z"/>
		</g>
		<g>
			<path fill="#10323E" d="M210.176,480.782v-8.043c0,0-0.181-6.161,2.007-6.161l10.196,5.234c0.95,0,4.175,7.224,4.457,8.388
				c0.64,2.656,1.86,7.209,1.997,7.669c1.182,4.069-1.708,4.8-3.695,4.8l-5.816-0.012c0,0-4.56,0.503-6.623-4.914
				C212.048,486.025,210.176,480.782,210.176,480.782z"/>
		</g>
		<g>
			<path fill="#FFE1CC" d="M210.504,468.884c-0.031,7.526,5.89,16.606,12.65,16.606h-1.341c4.784,0.07,5.531-3.798,4.718-6.448
				c-2.032-6.613-1.782-9.184-1.782-9.184l-14.033-4.455L210.504,468.884z"/>
		</g>
		<g>
			<path fill="#10323E" d="M232.075,380.533c0,0,0-4.599-0.481-9.125c-0.365-3.415-3.524-5.692-6.959-5.692h-44.178
				c-3.433,0-6.595,2.277-6.959,5.692c-0.482,4.526-0.482,9.125-0.482,9.125l1.028,36.105c0,2.538,0.692,2.43,2.794,2.43h51.568
				c1.928,0,2.698-0.59,2.646-2.677L232.075,380.533z"/>
		</g>
		<g>
			<path fill="#2C5871" d="M210.174,480.926c2.815,12.708,7.679,11.731,7.679,11.731l7.284,0.012c1.479,0,4.606-0.585,3.879-4.018
				c0,0-0.099,1.677-1.466,1.728h-9.16c0,0-3.4,0.227-5.545-4.243c-1.267-2.637-2.67-7.208-2.67-7.208L210.174,480.926z"/>
		</g>
		<g>
			<path fill="#2C5871" d="M194.915,480.926c-2.814,12.708-7.679,11.731-7.679,11.731l-7.284,0.012c-1.478,0-4.607-0.585-3.88-4.018
				c0,0,0.099,1.677,1.466,1.728h9.158c0,0,3.403,0.227,5.548-4.243c1.265-2.637,2.668-7.208,2.668-7.208L194.915,480.926z"/>
		</g>
		<g>
			<path fill="#3F3B3B" d="M231.103,367.942c-0.147-0.801-0.316-1.556-0.513-2.227H174.5c-0.195,0.671-0.365,1.426-0.512,2.227
				H231.103z"/>
		</g>
		<g>
			<path fill="#0A262D" d="M231.562,371.146c-0.218-1.969-0.526-3.909-0.971-5.43H174.5c-0.444,1.521-0.753,3.461-0.973,5.43
				H231.562z"/>
		</g>
		<g>
			<path fill="#EDEDED" d="M190.792,280.079c0.769-0.506,1.084-0.44,1.954,0.256l8.919,8.282c1.267,1.177,0.958,2.315-0.366,3.915
				l-6.637,8.219c-1.488,1.828-2.875,1.828-3.584-0.297l-4.724-13.52c-0.301-1.267-0.604-1.318,0.355-2.417L190.792,280.079z"/>
		</g>
		<g>
			<path fill="#EDEDED" d="M214.149,280.079c-0.768-0.506-1.084-0.44-1.953,0.256l-8.921,8.282
				c-1.265,1.177-0.959,2.315,0.366,3.915l6.639,8.219c1.488,1.828,2.873,1.828,3.582-0.297l4.724-13.52
				c0.301-1.267,0.605-1.318-0.354-2.417L214.149,280.079z"/>
		</g>
		<g>
			<path fill="#FFE1CC" d="M243.743,202.661c-0.652-0.107-3.348-0.706-2.627-2.702l2.245-3.076c0.759-0.987-0.314-2.063-1.271-2.265
				c-1.014-0.215-2.865,2.541-3.779,3.798c0,0-2.039,1.983-0.992,4.573c0.115,0.285,2.535,6.559,2.535,6.503l7.102,0.689
				C246.955,210.182,249.056,203.529,243.743,202.661z"/>
		</g>
		<g>
			<g>
				<path fill="#EDEDED" d="M237.615,215.634c-0.539-0.097-0.896-0.611-0.799-1.15l1.044-5.797c0.096-0.537,0.612-0.896,1.15-0.801
					l10.711,1.931c0.56,0.102,0.964,0.598,0.947,1.168l-0.174,5.976c-0.012,0.522-0.489,0.907-1.004,0.814L237.615,215.634z"/>
			</g>
		</g>
		<g>
			<path fill="#FFE1CC" d="M202.328,232.638l-14.914,0.062v27.206c0,1.462,0.873,5.784,1.928,7.543c0,0,3.991,9.036,12.985,9.036
				c9.613,0.009,13.48-10.228,13.48-10.228c0.663-1.566,1.383-5.444,1.43-6.352v-27.206L202.328,232.638z"/>
		</g>
		<g>
			<path fill="#5C7E91" d="M183.754,253.735c0,0,10.622,2.105,17.208-7.965c8.09-12.373,12.725-10.677,12.725-10.677l-1.104-5.266
				l-27.714-1.219l-1.114,23.907V253.735z"/>
		</g>
		<g>
			<path fill="#5C7E91" d="M211.192,228.609c0,0-13.148,6.167-2.054,7.138c9.399,0.82,8.1,13.83,8.1,13.83l2.173-21.775
				L211.192,228.609z"/>
		</g>
		<g>
			<path fill="#FFE1CC" d="M164.21,202.565c0.661,0.037,2.501,0.11,2.697-1.658l1.011-3.203c0.439-2.515,2.144-3.114,3.107-2.95
				c1.023,0.175,0.96,0.956,0.572,3.818c0,0-0.476,2.107-0.554,3.171c-0.164,2.225-0.589,3.078-0.85,3.57
				c-1.832,3.467-4.394,6.698-4.285,6.718l-6.479-1.021C159.431,211.011,157.616,202.19,164.21,202.565z"/>
		</g>
		<g>
			<g>
				<path fill="#EDEDED" d="M167.807,217.186c0.542-0.077,0.917-0.58,0.84-1.122l-0.837-5.83c-0.078-0.539-0.581-0.916-1.121-0.84
					l-10.774,1.548c-0.562,0.082-0.983,0.563-0.988,1.133l-0.039,5.979c-0.004,0.524,0.457,0.924,0.975,0.852L167.807,217.186z"/>
			</g>
		</g>
	</g>
	<g>
		<g>
			<path fill="#DBA144" d="M501.859,258.271c3.545,5.782,9.567,1.612,9.567,1.612s-5.993-0.452-6.604-10.935
				c-0.246-4.244,0.27-8.432,0.717-11.095c0.219-0.913,0.413-1.862,0.562-2.855c0.381-2.545,0.5-5.363,0.176-8.491
				c-1.277-12.371-12.425-19.377-21.018-19.375c-1.74,0-2.726,0.001-3.261,0.001c-0.541,0-1.524-0.001-3.265-0.001
				c-8.592-0.002-19.74,7.004-21.02,19.375c-0.322,3.128-0.205,5.946,0.178,8.491c0.148,0.995,0.342,1.942,0.562,2.859
				c0.447,2.663,0.961,6.849,0.716,11.091c-0.61,10.482-6.605,10.935-6.605,10.935s6.025,4.17,9.569-1.612
				c0.902-1.475,1.478-3.312,1.842-5.143c1.307,7.721-5.386,11.118-5.386,11.118s7.173,5.802,22.445,5.802
				c16.496,0,24.368-5.802,24.368-5.802s-6.691-3.397-5.385-11.118C500.381,254.958,500.957,256.796,501.859,258.271z"/>
		</g>
		<g>
			<path fill="#FFE1CC" d="M527.318,180.202c0.604-1.188-2.189-12.864-2.189-12.864c-1.321-5.704-16.429-6.28-16.448-6.447
				l2.894,17.688c0.744,3.555,2.539,7.495,5.207,8.019c0,0,4.005-0.07,6.447-0.744C527.006,184.808,527.318,180.202,527.318,180.202
				z"/>
		</g>
		<g>
			<path fill="#FFE1CC" d="M507.859,344.721c-2.436-8.184-3.312-11.79-0.638-26.612l8.873-41.373
				c-1.688-1.255-3.805-2.133-6.405-2.494l-10.432-2.228v-0.001l-1.868-0.398c-2.86-0.613-4.956-3.086-5.09-6.002l-0.229-4.986
				l-0.146-3.166h-8.959h-0.781h-0.78h-8.961l-0.144,3.166l-0.229,4.986c-0.135,2.916-2.23,5.389-5.09,6.002l-1.869,0.398v0.001
				l-10.429,2.228c-2.962,0.413-5.291,1.492-7.079,3.037l7.001,30.144l2.545,10.687c2.527,14.822,2.283,17.163-0.543,26.415
				l-3.93,12.361c-1.564,5.357-1.564,15.591-1.564,15.591l1.58,27.768h0.024l6.424,72.457l14.19-0.283l4.738-72.174l1.291-18.199
				c0,0,0.515-2.602,0.943-3.155c0.955-1.232,2.904-1.137,3.762,0c0.422,0.558,0.943,3.155,0.943,3.155l1.292,18.199l4.736,72.174
				l14.19,0.283l6.426-72.457h0.023l1.579-27.768c0,0,0-10.233-1.562-15.591L507.859,344.721z"/>
		</g>
		<g>
			<path fill="#14546D" d="M511.694,356.885h-59.017c-0.646,2.21-1.023,5.25-1.244,8.062l28.459,14.939
				c0.136-0.437,0.276-0.824,0.412-0.998c0.955-1.232,2.904-1.137,3.762,0c0.122,0.161,0.252,0.498,0.373,0.886l28.489-14.958
				C512.703,362.043,512.33,359.062,511.694,356.885z"/>
		</g>
		<g>
			<path fill="#14546D" d="M511.694,356.885h-59.017c-0.646,2.21-1.023,5.25-1.244,8.062l28.459,14.939
				c0.136-0.437,0.276-0.824,0.412-0.998c0.955-1.232,2.904-1.137,3.762,0c0.122,0.161,0.252,0.498,0.373,0.886l28.489-14.958
				C512.703,362.043,512.33,359.062,511.694,356.885z"/>
		</g>
		<g>
			<path fill="#E8C5AC" d="M492.102,261.325l-0.031-0.699l-0.146-3.166h-8.959h-0.781h-0.78h-8.961l-0.144,3.166l-0.033,0.781
				c2.238,2.197,5.49,4.245,9.89,4.245C486.56,265.653,489.818,263.622,492.102,261.325z"/>
		</g>
		<g>
			<path fill="#FFE1CC" d="M482.156,216.237l-15.758,0.065v28.754c0,1.546,0.919,6.114,2.038,7.974c0,0,4.214,9.551,13.72,9.551
				c10.162,0.008,14.25-10.807,14.25-10.807c0.699-1.658,1.459-5.76,1.511-6.718v-28.754L482.156,216.237z"/>
		</g>
		<g>
			<path fill="#40768E" d="M463.69,490.508h9.177c0.934,0,1.275-0.321,1.275-1.381v-14.233H463.69V490.508z"/>
		</g>
		<g>
			<path fill="#18959B" d="M474.142,477.982v-8.462c0,0,0.193-6.488-2.108-6.488l-8.489,5.512c-0.997,0-6.632,7.599-6.928,8.827
				c-0.674,2.793-1.96,7.583-2.102,8.063c-1.244,4.286,1.795,5.054,3.888,5.054l6.119-0.013c0,0,4.797,0.53,6.969-5.173
				C472.175,483.499,474.142,477.982,474.142,477.982z"/>
		</g>
		<g>
			<path fill="#FFE1CC" d="M473.8,465.463c0.031,7.918-3.691,17.474-10.803,17.474h-0.646c-5.034,0.07-6.264-3.995-5.415-6.787
				c2.039-6.732,1.875-10.096,1.875-10.096l14.765-4.252L473.8,465.463z"/>
		</g>
		<g>
			<path fill="#40768E" d="M502.91,490.482h-11.711c-0.864,0-0.983-0.344-0.983-1.934v-13.681h12.694V490.482z"/>
		</g>
		<g>
			<path fill="#18959B" d="M490.215,477.955v-8.463c0,0-0.192-6.482,2.111-6.482l10.728,5.51c1,0,4.393,7.598,4.689,8.825
				c0.674,2.792,1.957,7.583,2.1,8.07c1.244,4.279-1.796,5.049-3.887,5.049l-6.12-0.014c0,0-4.798,0.529-6.968-5.171
				C492.183,483.474,490.215,477.955,490.215,477.955z"/>
		</g>
		<g>
			<path fill="#FFE1CC" d="M490.56,465.437c-0.033,7.919,6.196,17.473,13.309,17.473h-1.41c5.033,0.075,5.818-3.994,4.963-6.785
				c-2.139-6.956-1.874-9.662-1.874-9.662l-14.766-4.686L490.56,465.437z"/>
		</g>
		<g>
			<path fill="#2C5871" d="M490.212,478.107c2.961,13.372,8.079,12.343,8.079,12.343l7.665,0.014c1.555,0,4.847-0.615,4.082-4.229
				c0,0-0.105,1.765-1.543,1.818h-9.638c0,0-3.577,0.238-5.835-4.464c-1.332-2.774-2.808-7.585-2.808-7.585L490.212,478.107z"/>
		</g>
		<g>
			<path fill="#2C5871" d="M474.157,478.107c-2.962,13.372-8.08,12.343-8.08,12.343l-7.664,0.014c-1.556,0-4.849-0.615-4.083-4.229
				c0,0,0.104,1.765,1.543,1.818h9.635c0,0,3.581,0.238,5.838-4.464c1.332-2.774,2.809-7.585,2.809-7.585L474.157,478.107z"/>
		</g>
		<g>
			<path fill="#3F3B3B" d="M512.234,359.226c-0.156-0.84-0.334-1.635-0.54-2.341h-59.017c-0.205,0.706-0.384,1.501-0.539,2.341
				H512.234z"/>
		</g>
		<g>
			<path fill="#3A3535" d="M512.715,362.598c-0.229-2.072-0.554-4.111-1.021-5.713h-59.017c-0.467,1.602-0.792,3.641-1.023,5.713
				H512.715z"/>
		</g>
		<g>
			<path fill="#FFE1CC" d="M437.792,178.2c-0.489-1.239,1.784-14.342,1.784-14.342c1.416-7.792,7.302-6.147,7.336-6.312
				l6.764,18.166c0.216,2.969-2.559,9.064-5.265,9.334c0,0-4.507,1.19-6.876,0.292C437.871,183.943,437.792,178.2,437.792,178.2z"/>
		</g>
		<g>
			<g>
				<path fill="#2C5871" d="M532.38,167.935c1.341-1.209,1.441-3.272,0.225-4.611l-5.113-5.659c2.957-3.902,5.356-8.17,7.178-12.671
					l7.549,1.581c1.762,0.367,3.495-0.764,3.867-2.529l2.678-12.792c0.365-1.772-0.763-3.501-2.537-3.875l-7.559-1.576
					c0.134-4.797-0.392-9.651-1.584-14.445l7.068-3.174c1.654-0.739,2.381-2.674,1.646-4.32l-5.353-11.924
					c-0.739-1.652-2.681-2.379-4.328-1.646l-7.096,3.192c-1.34-1.962-2.788-3.85-4.382-5.618c-1.678-1.864-3.477-3.552-5.345-5.134
					l3.869-6.747c0.896-1.569,0.352-3.563-1.214-4.456l-11.345-6.508c-1.566-0.892-3.558-0.35-4.458,1.212l-3.839,6.697
					c-4.595-1.629-9.367-2.636-14.235-2.995l-0.822-7.659c-0.198-1.798-1.807-3.093-3.602-2.898l-12.996,1.41
					c-1.797,0.192-3.093,1.808-2.896,3.598l0.827,7.646c-2.358,0.698-4.698,1.522-6.994,2.559c-2.211,0.992-4.314,2.121-6.321,3.361
					l-5.126-5.657c-1.214-1.34-3.271-1.444-4.619-0.229l-9.687,8.774c-1.335,1.216-1.438,3.273-0.227,4.615l5.088,5.624
					c-2.997,3.897-5.431,8.167-7.282,12.677L426,102.208c-1.756-0.369-3.495,0.764-3.865,2.529l-2.677,12.794
					c-0.371,1.771,0.766,3.503,2.532,3.874l7.325,1.531c-0.146,4.849,0.369,9.753,1.56,14.607l-6.814,3.051
					c-1.641,0.746-2.375,2.673-1.636,4.327l5.348,11.92c0.739,1.644,2.68,2.38,4.327,1.648l6.801-3.052
					c1.369,1.981,2.832,3.9,4.441,5.701c1.7,1.879,3.523,3.596,5.418,5.195l-3.704,6.466c-0.897,1.565-0.354,3.56,1.208,4.456
					l11.348,6.502c1.568,0.896,3.566,0.356,4.466-1.21l3.692-6.452c4.645,1.642,9.489,2.645,14.396,2.991l0.804,7.42
					c0.197,1.799,1.805,3.09,3.596,2.898l13.004-1.41c1.793-0.193,3.092-1.804,2.894-3.594l-0.812-7.52
					c2.273-0.682,4.533-1.478,6.742-2.473c2.311-1.038,4.502-2.233,6.603-3.535l5.082,5.615c1.214,1.334,3.282,1.438,4.618,0.228
					L532.38,167.935z M463.9,142.508c-9.814-10.894-8.939-27.686,1.957-37.499c10.892-9.815,27.686-8.943,37.5,1.957
					c9.818,10.896,8.942,27.691-1.955,37.505C490.505,154.283,473.717,153.41,463.9,142.508z"/>
			</g>
		</g>
		<g>
			<path fill="#FFE1CC" d="M447.51,177.591c0.685,0.126,3.568,0.485,3.559-1.749l-1.138-3.841c-0.402-1.249,1.04-1.936,2.061-1.797
				c1.081,0.146,1.536,2.443,1.998,4.01c0,0,0.912,3.07,0.636,4.118c-1.007,3.816-3.71,7.463-6.199,7.356l-6.757-1.778
				C441.669,183.91,441.938,176.574,447.51,177.591z"/>
		</g>
		<g>
			<path fill="#FFE1CC" d="M519.013,177.345c-0.672-0.181-2.619-1.209-1.654-3.224l1.819-2.563c1.405-1.817,0.661-3.636-0.661-3.801
				c-1.083-0.135-3.044,2.501-4.133,3.719c0,0-2.386,3.09-2.586,4.157c-0.728,3.88,1.582,8.712,3.879,9.682l5.605,1.056
				C521.283,186.371,524.482,178.814,519.013,177.345z"/>
		</g>
		<g>
			<polygon fill="#DBA144" points="465.827,228.042 472.855,228.042 475.963,220.275 475.963,228.042 487.258,228.042 
				487.258,223.127 490.229,228.042 493.806,228.042 499.415,228.042 499.415,215.457 465.04,215.457 			"/>
		</g>
		<g>
			<rect x="464.519" y="287.236" fill="#C8FAFC" width="35.386" height="39.499"/>
		</g>
		<g>
			<path fill="#18959B" d="M452.185,296.807c-2.66-7.424-9.329-26.249-14.092-52.435c-4.188-23.032,0.992-60.338,0.992-60.338
				l10.579,2.645c0,0,0.66,44.896,0.827,46.452c2.15,20.001,9.535,35.528,9.535,35.528L452.185,296.807z"/>
		</g>
		<g>
			<path fill="#18959B" d="M511.773,296.807c2.66-7.424,6.625-20.15,12.105-41.17c7.119-27.3,2.326-70.775,2.326-70.775
				l-11.188,1.213c0,0-1.137,47.163-1.377,48.71c-3.642,23.523-9.551,34.483-9.551,34.483L511.773,296.807z"/>
		</g>
		<g>
			<g>
				<path fill="#10323E" d="M450.765,374.156l1.6,28.1h0.023l3.463,72.024c0.076,3.142,0.372,4.084-0.332,7.148l18.1,0.075
					c1.373,0,2.065-0.521,2.065-2.299l2.356-76.949l1.309-18.417c0,0,0.521-2.632,0.953-3.19c0.967-1.25,2.938-1.151,3.807,0
					c0.428,0.562,0.956,3.19,0.956,3.19l1.306,18.417l2.355,76.661c0,1.234,0.636,2.3,2.067,2.3h18.004c0,0-0.471-3.684-0.397-6.656
					l3.625-72.305h0.022l1.599-28.1c0,0,0-9.193-1.324-14.789h-60.232C450.767,364.963,450.765,374.156,450.765,374.156z"/>
			</g>
			<g opacity="0.39">
				<path fill="#231F20" d="M465.072,481.495V359.367h-12.982c-1.322,5.596-1.324,14.789-1.324,14.789l1.6,28.1h0.023l3.463,72.024
					c0.076,3.142,0.372,4.084-0.332,7.148L465.072,481.495z"/>
			</g>
			<g opacity="0.39">
				<path fill="#231F20" d="M499.027,359.367v121.85h9.771c0,0-0.471-3.684-0.397-6.656l3.625-72.305h0.022l1.599-28.1
					c0,0,0-9.193-1.324-14.789H499.027z"/>
			</g>
			<g>
				<path fill="#10323E" d="M450.785,372.719c-0.02,0.894-0.02,1.438-0.02,1.438l0.258,4.537l19.803-20.754l-4.536,1.428h-0.235
					L450.785,372.719z"/>
			</g>
			<g>
				<path fill="#10323E" d="M497.97,359.367l-5.655-1.924l21.064,21.405l0.267-4.692c0,0,0-0.495-0.016-1.304l-15.427-13.485H497.97
					z"/>
			</g>
		</g>
		<g>
			<g>
				<path fill="#EDEDED" d="M514.369,193.158c-0.624,0.044-1.166-0.427-1.209-1.052l-0.473-6.725
					c-0.045-0.624,0.426-1.167,1.051-1.212l12.429-0.872c0.648-0.046,1.237,0.392,1.38,1.029l1.488,6.679
					c0.133,0.585-0.287,1.145-0.885,1.188L514.369,193.158z"/>
			</g>
		</g>
		<g>
			<g>
				<path fill="#EDEDED" d="M449.738,193.689c0.602,0.066,1.141-0.368,1.206-0.968l0.704-6.468c0.065-0.598-0.367-1.141-0.969-1.206
					l-11.951-1.302c-0.625-0.067-1.209,0.333-1.368,0.94l-1.683,6.387c-0.148,0.559,0.234,1.113,0.809,1.178L449.738,193.689z"/>
			</g>
		</g>
		<g>
			<path fill="#18959B" d="M507.859,344.721c-2.436-8.184-3.312-11.79-0.638-26.612l8.873-41.373
				c-1.688-1.255-8.564-8.229-11.165-8.59l-7.54,3.469c0.253-0.014-16,37.429-16,37.429s-13.431-37.638-14.408-37.429l-10.876-5.617
				c-2.96,0.411-6.713,9.736-8.501,11.281l9.546,40.83c2.527,14.822,2.283,17.163-0.543,26.415l-3.93,12.361
				c-0.221,0.755-0.408,1.614-0.568,2.522h60.153c-0.161-0.908-0.349-1.768-0.568-2.522L507.859,344.721z"/>
		</g>
	</g>
	<g>
		<g>
			<path fill="#FFE1CC" d="M557.455,167.659c-0.857-1.296-1.424-16.808-1.424-16.808c-0.467-5.761,11.017-11.19,14.284-4.115
				l5.731,16.751c0.964,3.338-1.543,8.375-2,8.724c0,0-7.674,3.151-10.596,2.695C558.93,174.199,557.455,167.659,557.455,167.659z"
				/>
		</g>
		<g>
			<path fill="#FFE1CC" d="M678.912,169.424c0.857-1.297,1.424-16.81,1.424-16.81c0.467-5.761-10.173-7.006-10.173-7.201
				l-10.58,18.735c-0.964,3.338,4.628,10.14,4.849,10.359c0,0,8.285,1.306,8.597,1.323
				C676.996,176.05,678.912,169.424,678.912,169.424z"/>
		</g>
		<g>
			<g>
				<path fill="#1BADBC" d="M684.089,117.599l9.714-0.458c2.188-0.104,3.88-1.962,3.776-4.151l-0.323-6.821
					c-0.104-2.189-1.962-3.881-4.151-3.778l-9.545,0.45c-0.945-6.165-2.82-12.257-5.667-18.078l7.955-5.109
					c1.844-1.185,2.379-3.64,1.194-5.484l-3.689-5.746c-1.184-1.844-3.639-2.379-5.483-1.195l-7.954,5.107
					c-4.107-5.014-8.868-9.254-14.077-12.683l4.382-8.488c1.006-1.947,0.241-4.341-1.706-5.347l-6.071-3.133
					c-1.948-1.005-4.342-0.241-5.346,1.707l-4.457,8.638c-5.91-2.143-12.109-3.395-18.393-3.717l-0.469-10.004
					c-0.103-2.189-1.961-3.881-4.149-3.778l-6.824,0.32c-2.189,0.103-3.881,1.961-3.777,4.15l0.484,10.269
					c-5.965,1.102-11.841,3.079-17.454,5.975l-5.77-8.986c-1.185-1.844-3.64-2.379-5.484-1.195l-5.744,3.688
					c-1.844,1.184-2.379,3.639-1.194,5.483l5.945,9.258c-4.688,4.016-8.661,8.612-11.894,13.615l-10.116-5.222
					c-1.947-1.005-4.341-0.241-5.346,1.707l-3.133,6.071c-1.005,1.948-0.24,4.342,1.708,5.347l10.37,5.353
					c-1.979,5.604-3.175,11.464-3.526,17.404l-11.93,0.562c-2.188,0.103-3.88,1.961-3.777,4.15l0.322,6.823
					c0.103,2.189,1.961,3.881,4.15,3.778l12.072-0.568c1.003,5.696,2.818,11.318,5.456,16.709l-10.272,6.596
					c-1.844,1.184-2.38,3.639-1.196,5.484l3.688,5.747c1.184,1.845,3.638,2.38,5.482,1.196l10.274-6.596
					c3.803,4.64,8.16,8.63,12.921,11.915l-5.541,10.741c-1.006,1.948-0.242,4.342,1.706,5.347l6.071,3.133
					c1.946,1.005,4.341,0.241,5.346-1.707l5.477-10.614c5.549,2.149,11.372,3.507,17.292,4.037l0.548,11.661
					c0.104,2.189,1.961,3.881,4.15,3.777l6.824-0.321c2.189-0.103,3.881-1.962,3.777-4.15l-0.534-11.373
					c5.894-0.858,11.727-2.558,17.325-5.144l5.949,9.261c1.185,1.844,3.64,2.379,5.483,1.195l5.745-3.688
					c1.844-1.184,2.379-3.639,1.195-5.484l-5.771-8.99c4.971-3.893,9.215-8.416,12.699-13.382l9.139,4.717
					c1.947,1.005,4.342,0.241,5.347-1.706l3.132-6.068c1.004-1.948,0.24-4.342-1.707-5.347l-8.902-4.595
					C682.132,130.02,683.58,123.862,684.089,117.599z M620.706,152.71c-22.265,0-40.308-18.045-40.308-40.307
					c0-22.261,18.043-40.31,40.308-40.31c22.26,0,40.309,18.048,40.309,40.31C661.014,134.665,642.965,152.71,620.706,152.71z"/>
			</g>
		</g>
		<g>
			<path fill="#FFE1CC" d="M650.977,277.568l-17.618-11.325c-1.896-0.293-3.38-2.253-3.404-4.289l-0.472-9.41h-10.947h-9.705
				l-0.483,9.809c-0.096,1.916-1.528,3.512-3.426,3.805l-21.216,3.289c-5.946,1.104,5.153,18.209,5.153,26.753v58.008h30.122h0.591
				h30.121v-51.776c0-0.547,0.453-0.982,0.998-0.961c0.1,0.002,0.192,0.036,0.286,0.062V277.568z"/>
		</g>
		<g>
			<path fill="#2C5871" d="M580.565,466.653l-2.947,9.123c-1.37,1.711-5.599,5.617-6.055,6.638c-0.448,1.009-0.259,3.552-0.259,5.29
				c0,2.804,0.89,2.804,2.771,2.804h17.993c6.055,0,8.782-6.205,11.271-8.853c1.679-1.787,1.547-3.821,1.547-7.24v-7.779
				L580.565,466.653z"/>
		</g>
		<g>
			<path fill="#253F59" d="M605.759,478.314c0,1.398-0.02,1.855-0.916,2.733l-8.185,5.273l-1.832-19.686h9.23
				c1.506,0,1.702,0,1.702,2.727V478.314z"/>
		</g>
		<g>
			<path fill="#10323E" d="M605.759,469.362c0-2.089-0.123-2.572-0.873-2.692v-0.034h-24.348l-6.826,10.799
				c-1.856,2.636-2.402,3.732-2.402,6.623c0.02,2.7,0.906,2.714,2.766,2.714h17.311c6.933,0,8.515-5.489,10.529-7.415l3.844-2.991
				V469.362z"/>
		</g>
		<g>
			<g>
				<path fill="#2C5871" d="M658.347,466.653l2.948,9.123c1.369,1.711,5.6,5.617,6.054,6.638c0.449,1.009,0.26,3.552,0.26,5.29
					c0,2.804-0.89,2.804-2.771,2.804h-17.994c-6.054,0-8.78-6.205-11.27-8.853c-1.68-1.787-1.547-3.821-1.547-7.24v-7.779
					L658.347,466.653z"/>
			</g>
			<g>
				<path fill="#253F59" d="M633.154,478.314c0,1.398,0.019,1.855,0.916,2.733l8.184,5.273l1.832-19.686h-9.229
					c-1.507,0-1.702,0-1.702,2.727V478.314z"/>
			</g>
			<g>
				<path fill="#10323E" d="M633.154,469.362c0-2.089,0.123-2.572,0.873-2.692v-0.034h24.347l6.828,10.799
					c1.854,2.636,2.401,3.732,2.401,6.623c-0.02,2.7-0.906,2.714-2.766,2.714h-17.311c-6.933,0-8.516-5.489-10.529-7.415
					l-3.844-2.991V469.362z"/>
			</g>
		</g>
		<g>
			<path fill="#FFE1CC" d="M619.484,354.207h-30.393l-7.713,113.224l21.549,0.041l12.423-90.509c0.137-1.639,1.526-2.9,3.196-2.9
				h0.938V354.207z"/>
		</g>
		<g>
			<path fill="#FFE1CC" d="M619.484,354.207h30.439l7.713,112.174l-21.611-0.029l-12.404-89.389c-0.139-1.639-1.529-2.9-3.197-2.9
				h-0.939V354.207z"/>
		</g>
		<g>
			<path fill="#14546D" d="M589.091,346.098v8.109v9.771l26.01,14.327l0.249-1.343c0.137-1.639,1.526-2.9,3.196-2.9h0.938h0.939
				c1.668,0,3.059,1.262,3.197,2.9l0.249,1.038l26.054-14.022v-9.771v-8.109H589.091z"/>
		</g>
		<g>
			<path fill="#E8C5AC" d="M628.514,260l1.274-1.325l-0.306-6.131h-10.947h-9.705l-0.282,5.748l1.641,1.713
				c1.461,1.516,3.485,2.38,5.592,2.38h3.64v-0.003h3.505C625.03,262.382,627.056,261.52,628.514,260z"/>
		</g>
		<g>
			<path fill="#10323E" d="M619.546,345.72L619.546,345.72h-0.1h-0.097l0,0l-30.443,0.197l-8.876,120.833
				c0,1.718,0.934,1.75,1.817,1.75l20.865-0.032c1.7-0.032,3.188-0.673,3.808-3.434l10.668-85.535
				c0.166-3.689,3.957-3.543,4.125,0.147l10.773,85.973c0.683,2.541,1.181,3.012,2.751,3.012l21.864-0.012
				c2.461-0.009,2.163-0.935,2.163-1.968l-8.877-120.734L619.546,345.72z"/>
		</g>
		<g opacity="0.09">
			<g>
				<path fill="#F5F5F5" d="M580.031,466.75c0,1.718,0.934,1.75,1.817,1.75l11.231-0.017l8.877-117.757h-13.05L580.031,466.75z"/>
			</g>
		</g>
		<g opacity="0.09">
			<g>
				<path fill="#F5F5F5" d="M637.382,350.727l8.877,117.897l10.443-0.005c2.461-0.009,2.163-0.935,2.163-1.968l-8.877-115.925
					H637.382z"/>
			</g>
		</g>
		<g>
			<path fill="#EBF2F7" d="M649.185,347.167l0.508-44.736c0-0.547,0.453-0.982,0.998-0.961c0.1,0.002,0.192,0.036,0.286,0.062
				v-23.963l-17.618-11.325c-0.64-0.101-1.23-0.393-1.736-0.81l-0.796,0.106l-11.657,7.882l-12.364-7.687l-0.646,0.012
				c-0.38,0.197-0.795,0.341-1.238,0.41l-21.216,3.289c-0.145,0.027-0.284,0.064-0.428,0.095l-0.464,17.435
				c3.287,2.58,6.045,5.773,6.045,9.224v50.968H649.185z"/>
		</g>
		<g>
			<path fill="#FCCB51" d="M659.929,178.576l-17.401,80.476l-9.859,6.67l-14.232,37.246l-13.897-37.246l-20.881,13.921l1.45,75.11
				c0,8.119,6.67,8.119,6.67,8.119c4.64,0.58,49.301,0.29,49.301,0.29c7.831,0,12.76-4.35,11.89-11.89l1.74-44.66
				c0-7.54,0.87-14.79,2.596-25.129l17.85-100.731L659.929,178.576z"/>
		</g>
		<g>
			<path fill="#FFE1CC" d="M571.984,161.055c0.884,0.063,2.961-1.755,3.621-2.857l1.861-3.603c1.225-2.569,2.163-2.685,3.43-2.349
				c1.344,0.355,1.763,1.102,1.102,3.306c0,0-5.951,17.854-6.613,17.854l-9.698,1.542
				C565.686,174.948,565.908,160.621,571.984,161.055z"/>
		</g>
		<g>
			<path fill="#FFE1CC" d="M665.619,161.055c-0.884,0.063-2.961-1.755-3.621-2.857l-1.861-3.603
				c-1.226-2.569-2.162-2.685-3.429-2.349c-1.343,0.355-1.764,1.102-1.103,3.306c0,0,5.951,17.854,6.612,17.854l9.698,1.542
				C671.916,174.948,671.695,160.621,665.619,161.055z"/>
		</g>
		<g>
			<path fill="#FCCB51" d="M584.238,304.872c-0.58-4.061-3.27-22.432-4.93-31.609l-16.045-93.245l14.768-3.305l17.518,83.209
				l7.895,5.521L584.238,304.872z"/>
		</g>
		<g>
			<path fill="#FFFFFF" d="M577.584,172.783c-0.356-1.262-0.847-1.448-2-1.24l-14.549,2.796c-1.118,0.207-1.239,0.553-1.013,1.81
				l1.19,6.653c0.224,1.256,0.223,1.694,1.829,1.405l15.596-2.983c1.084-0.195,1.002-0.725,0.665-1.911L577.584,172.783z"/>
		</g>
		<g>
			
				<ellipse transform="matrix(0.9844 -0.1759 0.1759 0.9844 -22.1277 103.9054)" fill="#D7E9F7" cx="574.99" cy="176.759" rx="1.504" ry="1.625"/>
		</g>
		<g>
			<g>
				<path fill="#FFFFFF" d="M608.427,260.936c-0.873-1.009-1.274-1.274-1.88-0.065l-2.282,3.689
					c-0.535,0.865-0.546,1.966-0.027,2.842l8.887,15.019c0.673,1.142,1.211,1.071,1.815-0.069l4.295-8.929L608.427,260.936z"/>
			</g>
			<g>
				<path fill="#FFFFFF" d="M629.978,260.936c0.873-1.009,1.275-1.274,1.879-0.065l2.282,3.689c0.536,0.865,0.546,1.966,0.028,2.842
					l-8.888,15.019c-0.672,1.142-1.211,1.071-1.814-0.069l-4.296-8.929L629.978,260.936z"/>
			</g>
		</g>
		<g>
			<g>
				<path fill="#E8C5AC" d="M635.2,229.258l1.235,0.078c1.857,0.518,3.861,2.264,3.391,5.089c-0.426,2.568-0.633,2.787-1.153,5.973
					c-0.739,4.504-4.423,3.036-4.423,3.036L635.2,229.258z"/>
			</g>
			<g>
				<path fill="#E8C5AC" d="M602.765,229.258l-1.234,0.078c-1.858,0.518-3.859,2.264-3.393,5.089
					c0.427,2.568,0.633,2.787,1.156,5.973c0.738,4.504,4.426,3.036,4.426,3.036L602.765,229.258z"/>
			</g>
			<g>
				<path fill="#FFE1CC" d="M618.817,214.015v0.008l-16.79,0.069v31.966c0,2.16,0.839,4.246,2.339,5.806l5.162,5.377
					c1.489,1.55,3.56,2.431,5.709,2.431h3.721v-0.003h3.577c2.15,0,4.223-0.881,5.713-2.435l5.162-5.375
					c1.494-1.557,2.337-3.646,2.337-5.807v-31.964L618.817,214.015z"/>
			</g>
			<g>
				<path fill="#10323E" d="M615.166,198.911c0.196,1.164-0.564,2.273-1.722,2.504c-1.913,0.381-3.691,0.476-7.222,1.301
					c-10.387,2.431-8.3,15.354-8.3,15.354s1.189,9.161,2.005,12.246c0.711,2.675,2.031,2.675,2.031,2.675v-10.66
					c0,0-0.405-8.322,7.69-8.123c2.629,0.062,2.731,6.537,2.731,6.537s-0.605,2.578,1.723-0.197
					c1.234-1.474,3.136-3.414,4.646-4.908c0.578-0.574,1.491,0.099,1.211,0.867l-0.558,1.768c-0.432,1.183-0.157,1.608,0.579,1.213
					l9.054-4.08c0,0,5.321-2.906,5.639,2.603c0.204,3.51,1.037,14.622,1.037,14.622s0.654,0.992,1.259-2.375
					c0.391-2.162,1.35-6.254,2.198-13.574c0.728-6.258-2.075-12.579-12.301-14.795C625.845,201.665,620.86,200.521,615.166,198.911
					L615.166,198.911z"/>
			</g>
		</g>
		<g>
			<path fill="#FFFFFF" d="M660.556,173.511c0.357-1.262,0.848-1.448,2-1.238l13.359,2.401c1.117,0.208,1.24,0.554,1.012,1.812
				l-1.196,6.651c-0.226,1.255-0.225,1.693-1.83,1.403l-14.405-2.589c-1.085-0.197-1.001-0.727-0.664-1.913L660.556,173.511z"/>
		</g>
		<g>
			<path fill="#D7E9F7" d="M661.277,177.258c0.159-0.884,0.949-1.483,1.771-1.334c0.816,0.146,1.351,0.979,1.192,1.867
				c-0.158,0.881-0.951,1.479-1.768,1.332C661.652,178.972,661.12,178.139,661.277,177.258z"/>
		</g>
		<g>
			<g>
				<path fill="#1BADBC" d="M620.706,77.593c-19.226,0-34.808,15.585-34.808,34.809c0,19.225,15.582,34.808,34.808,34.808
					c19.223,0,34.809-15.583,34.809-34.808C655.514,93.179,639.928,77.593,620.706,77.593z M620.706,140.615
					c-15.584,0-28.212-12.631-28.212-28.213c0-15.582,12.628-28.214,28.212-28.214c15.581,0,28.214,12.633,28.214,28.214
					C648.919,127.984,636.287,140.615,620.706,140.615z"/>
			</g>
		</g>
	</g>
	<g>
		<g>
			<path fill="#FFE1CC" d="M9.135,178.987c-0.857-1.296-1.423-16.808-1.423-16.808c-0.468-5.761,11.015-11.19,14.284-4.115
				l5.731,16.751c0.963,3.338-1.543,8.375-2,8.724c0,0-7.674,3.151-10.597,2.695C10.61,185.527,9.135,178.987,9.135,178.987z"/>
		</g>
		<g>
			<path fill="#FFE1CC" d="M130.147,180.658c0.858-1.296,1.423-16.809,1.423-16.809c0.467-5.761-10.172-7.006-10.172-7.201
				l-10.58,18.734c-0.964,3.338,4.628,10.141,4.848,10.36c0,0,8.286,1.305,8.597,1.323
				C128.232,187.286,130.147,180.658,130.147,180.658z"/>
		</g>
		<g>
			<g>
				<path fill="#1BADBC" d="M127.401,101.681c-0.307-0.572-0.624-1.14-0.947-1.707c-17.033-29.501-54.89-39.645-84.393-22.616
					c-29.084,16.791-39.434,53.109-23.567,82.681c0.307,0.571,0.626,1.144,0.951,1.708c8.252,14.292,21.572,24.518,37.512,28.787
					c15.938,4.272,32.586,2.08,46.879-6.17C132.921,167.576,143.273,131.257,127.401,101.681z M73.07,170.544
					c-21.806,0-39.483-17.677-39.483-39.483c0-21.806,17.677-39.483,39.483-39.483c21.807,0,39.483,17.677,39.483,39.483
					C112.553,152.867,94.876,170.544,73.07,170.544z"/>
			</g>
			<g>
				<g>
					<g>
						<path fill="#1BADBC" d="M16.607,131.642l3.568-20.241l-13.772-2.43c-1.869-0.327-3.643,0.913-3.97,2.778l-2.38,13.495
							c-0.329,1.862,0.915,3.64,2.778,3.968L16.607,131.642z"/>
					</g>
				</g>
				<g>
					<g>
						<path fill="#1BADBC" d="M29.338,95.532l15.745-13.21l-8.99-10.719c-1.219-1.446-3.38-1.634-4.828-0.418l-10.496,8.805
							c-1.448,1.219-1.638,3.379-0.422,4.829L29.338,95.532z"/>
					</g>
				</g>
				<g>
					<g>
						<path fill="#1BADBC" d="M62.298,76.055l20.557,0.001l0-13.989c-0.001-1.89-1.537-3.424-3.425-3.425l-13.704-0.002
							c-1.89,0.002-3.427,1.535-3.426,3.425L62.298,76.055z"/>
					</g>
				</g>
				<g>
					<g>
						<path fill="#1BADBC" d="M100.073,82.323l15.744,13.211l8.992-10.715c1.213-1.45,1.027-3.61-0.423-4.824l-10.496-8.809
							c-1.449-1.217-3.612-1.027-4.824,0.421L100.073,82.323z"/>
					</g>
				</g>
				<g>
					<g>
						<path fill="#1BADBC" d="M124.98,111.405l3.566,20.241l13.775-2.431c1.862-0.328,3.108-2.104,2.777-3.967l-2.376-13.493
							c-0.332-1.864-2.107-3.106-3.97-2.779L124.98,111.405z"/>
					</g>
				</g>
				<g>
					<g>
						<path fill="#1BADBC" d="M125.363,149.69l-10.275,17.799l12.112,6.993c1.638,0.948,3.733,0.387,4.682-1.254l6.852-11.866
							c0.943-1.639,0.382-3.73-1.254-4.68L125.363,149.69z"/>
					</g>
				</g>
				<g>
					<g>
						<path fill="#1BADBC" d="M101.051,179.267l-19.312,7.027l4.779,13.144c0.649,1.781,2.616,2.697,4.393,2.048l12.876-4.688
							c1.774-0.649,2.691-2.612,2.049-4.388L101.051,179.267z"/>
					</g>
				</g>
				<g>
					<g>
						<path fill="#1BADBC" d="M63.411,186.297l-19.313-7.033l-4.784,13.146c-0.648,1.779,0.27,3.739,2.046,4.391l12.876,4.685
							c1.778,0.648,3.746-0.27,4.39-2.046L63.411,186.297z"/>
					</g>
				</g>
				<g>
					<g>
						<path fill="#1BADBC" d="M30.062,167.487l-10.273-17.8L7.671,156.68c-1.636,0.946-2.196,3.042-1.253,4.679l6.853,11.87
							c0.946,1.635,3.043,2.195,4.677,1.253L30.062,167.487z"/>
					</g>
				</g>
			</g>
			<g>
				<path fill="#1BADBC" d="M73.07,97.578c-18.493,0-33.483,14.991-33.483,33.483c0,18.492,14.99,33.483,33.483,33.483
					c18.493,0,33.483-14.991,33.483-33.483C106.553,112.569,91.563,97.578,73.07,97.578z M73.07,158.044
					c-14.903,0-26.983-12.081-26.983-26.983c0-14.903,12.08-26.983,26.983-26.983c14.903,0,26.983,12.081,26.983,26.983
					C100.053,145.964,87.973,158.044,73.07,158.044z"/>
			</g>
		</g>
		<g>
			<path fill="#FFE1CC" d="M102.214,278.438l-17.618-11.325c-1.897-0.294-3.381-2.254-3.405-4.288l-0.471-9.412H69.772h-9.705
				l-0.483,9.811c-0.096,1.915-1.528,3.511-3.426,3.803l-21.216,3.29c-5.946,1.104,5.154,18.208,5.154,26.753v58.008h30.121h0.591
				h30.121v-51.776c0-0.546,0.453-0.981,0.998-0.96c0.1,0.002,0.193,0.034,0.287,0.061V278.438z"/>
		</g>
		<g>
			<path fill="#2C5871" d="M31.801,467.524l-2.947,9.121c-1.37,1.712-5.599,5.618-6.054,6.639c-0.449,1.009-0.26,3.553-0.26,5.29
				c0,2.803,0.89,2.803,2.772,2.803h17.994c6.055,0,8.781-6.205,11.27-8.851c1.679-1.788,1.548-3.82,1.548-7.241v-7.78
				L31.801,467.524z"/>
		</g>
		<g>
			<path fill="#253F59" d="M56.995,479.185c0,1.398-0.018,1.854-0.915,2.734l-8.185,5.272l-1.832-19.687h9.229
				c1.506,0,1.702,0,1.702,2.727V479.185z"/>
		</g>
		<g>
			<path fill="#10323E" d="M56.995,470.231c0-2.087-0.122-2.571-0.872-2.691v-0.035H31.776l-6.828,10.8
				c-1.855,2.636-2.402,3.731-2.402,6.623c0.021,2.701,0.907,2.714,2.767,2.714h17.31c6.933,0,8.515-5.489,10.53-7.416l3.843-2.99
				V470.231z"/>
		</g>
		<g>
			<g>
				<path fill="#2C5871" d="M109.584,467.524l2.947,9.121c1.37,1.712,5.6,5.618,6.054,6.639c0.449,1.009,0.26,3.553,0.26,5.29
					c0,2.803-0.891,2.803-2.772,2.803H98.079c-6.053,0-8.779-6.205-11.269-8.851c-1.68-1.788-1.547-3.82-1.547-7.241v-7.78
					L109.584,467.524z"/>
			</g>
			<g>
				<path fill="#253F59" d="M84.39,479.185c0,1.398,0.019,1.854,0.916,2.734l8.184,5.272l1.832-19.687h-9.229
					c-1.507,0-1.703,0-1.703,2.727V479.185z"/>
			</g>
			<g>
				<path fill="#10323E" d="M84.39,470.231c0-2.087,0.123-2.571,0.873-2.691v-0.035h24.347l6.829,10.8
					c1.854,2.636,2.401,3.731,2.401,6.623c-0.02,2.701-0.907,2.714-2.766,2.714H98.763c-6.933,0-8.515-5.489-10.529-7.416
					l-3.844-2.99V470.231z"/>
			</g>
		</g>
		<g>
			<path fill="#FFE1CC" d="M70.72,355.077H40.328L32.615,468.3l21.549,0.042l12.423-90.508c0.136-1.64,1.526-2.901,3.196-2.901
				h0.938V355.077z"/>
		</g>
		<g>
			<path fill="#FFE1CC" d="M70.72,355.077h30.439l7.713,112.174l-21.611-0.028l-12.405-89.389c-0.139-1.64-1.529-2.901-3.197-2.901
				H70.72V355.077z"/>
		</g>
		<g>
			<path fill="#14546D" d="M40.328,346.967v8.11v9.771l26.009,14.326l0.25-1.341c0.136-1.64,1.526-2.901,3.196-2.901h0.938h0.939
				c1.668,0,3.058,1.262,3.197,2.901l0.249,1.037l26.054-14.022v-9.771v-8.11H40.328z"/>
		</g>
		<g>
			<path fill="#E8C5AC" d="M79.751,260.87l1.273-1.326l-0.305-6.131H69.772h-9.705l-0.282,5.748l1.641,1.713
				c1.46,1.517,3.484,2.381,5.591,2.381h3.64v-0.002h3.504C76.266,263.253,78.293,262.39,79.751,260.87z"/>
		</g>
		<g>
			<path fill="#10323E" d="M70.782,346.59L70.782,346.59h-0.1h-0.096l0,0l-30.443,0.197L31.267,467.62
				c0,1.718,0.934,1.749,1.818,1.749l20.865-0.031c1.7-0.032,3.188-0.674,3.808-3.433l10.667-85.537
				c0.166-3.688,3.958-3.542,4.125,0.148l10.773,85.973c0.683,2.54,1.181,3.011,2.751,3.011l21.864-0.012
				c2.461-0.006,2.163-0.935,2.163-1.966l-8.877-120.735L70.782,346.59z"/>
		</g>
		<g opacity="0.09">
			<g>
				<path fill="#F5F5F5" d="M31.267,467.62c0,1.718,0.934,1.749,1.818,1.749l11.23-0.017l8.877-117.757H40.144L31.267,467.62z"/>
			</g>
		</g>
		<g opacity="0.09">
			<g>
				<path fill="#F5F5F5" d="M88.619,351.596l8.877,117.898l10.443-0.006c2.461-0.006,2.163-0.935,2.163-1.966l-8.877-115.927H88.619
					z"/>
			</g>
		</g>
		<g>
			<path fill="#EBF2F7" d="M100.421,348.037l0.508-44.736c0-0.546,0.453-0.981,0.998-0.96c0.1,0.002,0.193,0.034,0.287,0.061
				v-23.963l-17.618-11.325c-0.64-0.101-1.231-0.392-1.737-0.81l-0.796,0.106l-11.658,7.882l-12.364-7.687l-0.645,0.011
				c-0.381,0.198-0.795,0.342-1.239,0.41l-21.216,3.29c-0.144,0.028-0.285,0.065-0.427,0.095l-0.465,17.436
				c3.288,2.578,6.047,5.773,6.047,9.223v50.968H100.421z"/>
		</g>
		<g>
			<path fill="#178E8E" d="M111.165,189.887l-17.4,70.035l-9.86,6.671l-14.232,37.244l-13.897-37.246l-20.879,13.921l1.449,75.11
				c0,8.121,6.67,8.121,6.67,8.121c4.64,0.579,49.301,0.29,49.301,0.29c7.83,0,12.76-4.351,11.89-11.892l1.74-44.66
				c0-7.539,0.871-14.789,2.597-25.127l17.849-90.293L111.165,189.887z"/>
		</g>
		<g>
			<path fill="#FFE1CC" d="M23.146,171.568c1.667-0.851,2.961-1.755,3.621-2.857l1.861-3.602c1.225-2.57,2.163-2.685,3.429-2.349
				c1.344,0.355,1.763,1.102,1.103,3.306c0,0-5.952,17.854-6.612,17.854l-9.699,1.542C16.849,185.461,17.72,174.338,23.146,171.568z
				"/>
		</g>
		<g>
			<path fill="#FFE1CC" d="M118.46,172.827c-2.442,0.111-4.565-2.292-5.227-3.395l-1.861-3.603
				c-1.225-2.569-2.163-2.685-3.429-2.348c-1.344,0.354-1.764,1.102-1.103,3.305c0,0,5.952,17.855,6.613,17.855l9.698,1.542
				C123.152,186.184,124.545,172.55,118.46,172.827z"/>
		</g>
		<g>
			<path fill="#178E8E" d="M35.474,305.742c-0.579-4.061-3.27-22.431-4.93-31.61l-16.045-82.804l14.768-3.306l17.518,72.77
				l7.895,5.521L35.474,305.742z"/>
		</g>
		<g>
			<path fill="#FFFFFF" d="M28.821,184.094c-0.356-1.262-0.846-1.448-2-1.24l-14.549,2.795c-1.117,0.207-1.239,0.553-1.012,1.811
				l1.191,6.653c0.224,1.254,0.222,1.693,1.829,1.404l15.595-2.982c1.085-0.195,1.003-0.725,0.667-1.913L28.821,184.094z"/>
		</g>
		<g>
			<path fill="#D7E9F7" d="M27.708,187.804c-0.159-0.884-0.947-1.481-1.769-1.334c-0.816,0.146-1.352,0.979-1.194,1.864
				c0.157,0.882,0.949,1.48,1.766,1.333C27.332,189.52,27.864,188.687,27.708,187.804z"/>
		</g>
		<g>
			<g>
				<path fill="#FFFFFF" d="M59.663,261.806c-0.872-1.008-1.274-1.274-1.88-0.066l-2.282,3.69c-0.535,0.866-0.546,1.966-0.027,2.842
					l8.887,15.019c0.673,1.143,1.21,1.071,1.814-0.07l4.295-8.928L59.663,261.806z"/>
			</g>
			<g>
				<path fill="#FFFFFF" d="M81.214,261.806c0.873-1.008,1.276-1.274,1.88-0.066l2.282,3.69c0.536,0.866,0.547,1.966,0.028,2.842
					l-8.888,15.019c-0.672,1.143-1.211,1.071-1.814-0.07l-4.297-8.928L81.214,261.806z"/>
			</g>
		</g>
		<g>
			<path fill="#FFFFFF" d="M111.792,184.821c0.357-1.26,0.849-1.448,2.001-1.238l13.359,2.401c1.118,0.207,1.24,0.553,1.012,1.812
				l-1.197,6.65c-0.225,1.255-0.224,1.693-1.83,1.404l-14.404-2.59c-1.085-0.197-1.002-0.727-0.665-1.913L111.792,184.821z"/>
		</g>
		<g>
			<path fill="#D7E9F7" d="M112.513,188.567c0.159-0.884,0.949-1.482,1.77-1.334c0.817,0.146,1.351,0.98,1.192,1.866
				c-0.158,0.882-0.951,1.479-1.767,1.331C112.888,190.283,112.356,189.448,112.513,188.567z"/>
		</g>
		<g>
			<polygon fill="#E2A60E" points="87.809,233.188 83.893,240.068 83.893,216.271 92.397,211.272 			"/>
		</g>
		<g>
			<path fill="#E8C5AC" d="M86.523,229.639l1.204,0.077c1.807,0.502,3.762,2.207,3.305,4.963c-0.414,2.503-0.614,2.716-1.125,5.822
				c-0.721,4.398-4.315,2.965-4.315,2.965L86.523,229.639z"/>
		</g>
		<g>
			<path fill="#E8C5AC" d="M54.888,229.639l-1.205,0.077c-1.808,0.502-3.762,2.207-3.305,4.963c0.416,2.503,0.615,2.716,1.125,5.822
				c0.72,4.398,4.314,2.965,4.314,2.965L54.888,229.639z"/>
		</g>
		<g>
			<path fill="#FFE1CC" d="M70.542,214.775v0.006l-16.373,0.067v31.176c0,2.105,0.817,4.142,2.277,5.662l5.035,5.242
				c1.454,1.512,3.473,2.372,5.568,2.372h3.628v-0.005h3.491c2.097,0,4.118-0.861,5.57-2.371l5.036-5.242
				c1.459-1.521,2.278-3.558,2.278-5.662v-31.176L70.542,214.775z"/>
		</g>
		<g>
			<path fill="#E2A60E" d="M49.801,218.005c0,0,1.152,5.562,3.334,7.557c1.412,1.289,3.327,2.804,6.795,5.66
				c1.348,1.107,2.104,1.849,4.857-0.498l12.077-10.989c0,0,0,3.204,0,4.142c0.001,1.23,0.228,3.021,2.674,0.682l8.271-7.116
				c0,0,12.72-10.366-3.916-10.416c-0.853-0.003-5.917-1.825-9.773-2.768C58.399,200.411,47.586,207.245,49.801,218.005z"/>
		</g>
		<g>
			<polygon fill="#E2A60E" points="54.17,234.165 54.17,225.463 57.391,219.734 49.801,218.005 			"/>
		</g>
	</g>
</g>
<g id="refs">
</g>
</svg>
