<?xml version="1.0" encoding="utf-8"?>
<!-- Generator: Adobe Illustrator 16.0.0, SVG Export Plug-In . SVG Version: 6.00 Build 0)  -->
<!DOCTYPE svg PUBLIC "-//W3C//DTD SVG 1.1//EN" "http://www.w3.org/Graphics/SVG/1.1/DTD/svg11.dtd">
<svg version="1.1" id="image" xmlns="http://www.w3.org/2000/svg" xmlns:xlink="http://www.w3.org/1999/xlink" x="0px" y="0px"
	 width="619.15px" height="566.579px" viewBox="0 0 619.15 566.579" enable-background="new 0 0 619.15 566.579"
	 xml:space="preserve">
<g id="lightbulb__x26__wire">
	<g>
		<g>
			<path fill="#FF1F3D" d="M60,287.2h-1.695v-17.797H60V287.2z M60,260.927h-1.695V243.13H60V260.927z M60.707,234.914l-1.647-0.397
				c1.439-5.972,4.926-11.338,9.817-15.11l1.035,1.342C65.325,224.285,62.056,229.316,60.707,234.914z M77.092,216.865l-0.556-1.602
				c2.853-0.989,5.843-1.49,8.888-1.49h9.023v1.695h-9.023C82.569,215.468,79.765,215.938,77.092,216.865z M225.811,215.468h-17.797
				v-1.695h17.797V215.468z M199.538,215.468h-17.797v-1.695h17.797V215.468z M173.266,215.468h-17.797v-1.695h17.797V215.468z
				 M146.993,215.468h-17.797v-1.695h17.797V215.468z M120.721,215.468h-17.797v-1.695h17.797V215.468z"/>
		</g>
		<g>
			<path fill="#FF1F3D" d="M226.312,287.2h-1.695v-17.797h1.695V287.2z M226.312,260.927h-1.695V243.13h1.695V260.927z
				 M227.019,234.914l-1.647-0.397c1.439-5.971,4.926-11.337,9.817-15.11l1.035,1.342
				C231.637,224.286,228.368,229.316,227.019,234.914z M243.404,216.865l-0.556-1.602c2.853-0.989,5.843-1.49,8.888-1.49h9.023
				v1.695h-9.023C248.881,215.468,246.077,215.938,243.404,216.865z M306.813,215.468h-11.306v-1.695h11.306V215.468z
				 M287.033,215.468h-17.797v-1.695h17.797V215.468z"/>
		</g>
		<g>
			<path fill="#FF1F3D" d="M559.826,287.2h-1.695v-17.797h1.695V287.2z M559.826,260.927h-1.695V243.13h1.695V260.927z
				 M557.423,234.914c-1.35-5.597-4.617-10.628-9.203-14.166l1.034-1.342c4.892,3.772,8.378,9.139,9.817,15.11L557.423,234.914z
				 M541.039,216.865c-2.672-0.927-5.475-1.396-8.33-1.396c0,0-0.002,0-0.004,0h-9.021v-1.695h9.021c0.002,0,0.004,0,0.004,0
				c3.045,0,6.035,0.501,8.885,1.49L541.039,216.865z M515.207,215.468H497.41v-1.695h17.797V215.468z M488.934,215.468h-17.797
				v-1.695h17.797V215.468z M462.663,215.468h-17.798v-1.695h17.798V215.468z M436.39,215.468h-17.799v-1.695h17.799V215.468z
				 M410.117,215.468H392.32v-1.695h17.797V215.468z"/>
		</g>
		<g>
			<path fill="#FF1F3D" d="M393.513,287.2h-1.695v-17.797h1.695V287.2z M393.513,260.927h-1.695V243.13h1.695V260.927z
				 M391.112,234.914c-1.35-5.597-4.619-10.628-9.204-14.166l1.034-1.342c4.892,3.772,8.378,9.139,9.817,15.11L391.112,234.914z
				 M374.726,216.865c-2.672-0.927-5.474-1.396-8.33-1.396c0,0-0.001,0-0.004,0h-9.021v-1.695h9.021c0.002,0,0.004,0,0.006,0
				c3.043,0,6.032,0.501,8.883,1.49L374.726,216.865z M348.895,215.468h-17.798v-1.695h17.798V215.468z M322.622,215.468h-11.306
				v-1.695h11.306V215.468z"/>
		</g>
		<g>
			<path fill="#FF1F3D" d="M309.913,207.859h-1.695v-16.95h1.695V207.859z M309.913,182.434h-1.695v-17.797h1.695V182.434z
				 M309.913,156.161h-1.695v-17.797h1.695V156.161z"/>
		</g>
	</g>
	<g>
		<g>
			<path fill="#333333" d="M298.15,115.327h22.242c1.087,0,1.975-0.888,1.975-1.975l0,0c0-1.086-0.888-1.975-1.975-1.975H298.15
				c-1.085,0-1.975,0.888-1.975,1.975l0,0C296.176,114.439,297.065,115.327,298.15,115.327z"/>
			<path fill="#333333" d="M319.583,117.388c-0.305,3.176-4.805,5.696-10.311,5.696c-5.508,0-10.008-2.52-10.312-5.696H319.583z"/>
			<path fill="#333333" d="M297.639,109.129h23.267c1.087,0,1.975-0.889,1.975-1.975l0,0c0-1.086-0.888-1.975-1.975-1.975h-23.267
				c-1.088,0-1.975,0.888-1.975,1.975l0,0C295.665,108.241,296.551,109.129,297.639,109.129z"/>
		</g>
		<g>
			<rect x="307.122" fill="#FFE410" width="3.952" height="18.947"/>
			
				<rect x="267.162" y="18.061" transform="matrix(0.6234 -0.7819 0.7819 0.6234 79.8209 220.8023)" fill="#FFE410" width="3.951" height="18.947"/>
			
				<rect x="347.934" y="18.061" transform="matrix(0.6234 0.7819 -0.7819 0.6234 153.2952 -263.2188)" fill="#FFE410" width="3.951" height="18.948"/>
			<rect x="347.734" y="72.96" fill="#FFE410" width="18.947" height="3.949"/>
			<rect x="251.449" y="72.96" fill="#FFE410" width="18.948" height="3.949"/>
		</g>
		<path fill="#FFE410" d="M317.693,49.917c0,1.742-1.379,3.005-3.279,3.005c-1.327,0-2.505-0.984-2.832-1.288l-0.088-0.077
			c-0.607-0.56-0.936-0.834-1.312-0.926c-0.14-0.039-0.28-0.058-0.414-0.058c-0.295,0-0.564,0.092-0.801,0.274
			c-0.617,0.473-0.859,1.424-0.859,3.382v9.494h-9.493c-0.44,0-0.783-0.014-1.047-0.033c0.559-0.618,1.804-2.214,1.804-4.202
			c0-3.049-2.18-5.35-5.07-5.35s-5.065,2.301-5.065,5.35c0,1.988,1.235,3.58,1.799,4.202c-0.267,0.019-0.609,0.033-1.048,0.033
			h-10.146c-0.136-0.998-0.202-1.987-0.202-2.957c0-16.769,12.667-30.489,28.467-31.131v15.969c0,1.963,0.242,2.914,0.864,3.392
			c0.236,0.183,0.507,0.275,0.806,0.275c0.129,0,0.27-0.02,0.404-0.058c0.382-0.092,0.705-0.367,1.308-0.921l0.093-0.087
			c0.327-0.305,1.505-1.289,2.832-1.289C316.314,46.916,317.693,48.18,317.693,49.917z"/>
		<path fill="#FFE410" d="M298.521,79.881c0,2.89,2.295,5.065,5.345,5.065c1.983,0,3.59-1.245,4.208-1.799
			c0.019,0.266,0.033,0.608,0.033,1.047v18.236h-7.839c-4.597,0-5.947,0.415-5.947-4.033v-9.809l-0.589-0.617
			c-7.492-7.869-12.022-15.307-13.527-22.182h9.783c1.968,0,2.92-0.241,3.392-0.858c0.262-0.353,0.338-0.772,0.217-1.211
			c-0.096-0.376-0.371-0.704-0.93-1.312l-0.083-0.082c-0.385-0.435-1.283-1.578-1.283-2.836c0-1.901,1.265-3.281,3.001-3.281
			c1.741,0,3.001,1.38,3.001,3.281c0,1.317-0.98,2.499-1.284,2.836l-0.076,0.087c-0.564,0.604-0.834,0.931-0.927,1.303
			c-0.125,0.448-0.053,0.873,0.212,1.221c0.474,0.612,1.423,0.854,3.388,0.854h9.493v9.779c0,0.443-0.015,0.786-0.033,1.047
			c-0.498-0.45-2.152-1.804-4.208-1.804C300.817,74.811,298.521,76.991,298.521,79.881z"/>
		<path fill="#FFE410" d="M338.328,65.789c-1.52,6.836-6.08,14.275-13.605,22.182l-0.589,0.617v9.809
			c0,4.448-1.351,4.033-5.947,4.033h-8.013V84.194c0-1.963-0.242-2.914-0.859-3.392c-0.242-0.178-0.512-0.27-0.807-0.27
			c-0.136,0-0.27,0.02-0.405,0.053c-0.361,0.092-0.684,0.353-1.312,0.931l-0.091,0.082c-0.333,0.305-1.52,1.283-2.832,1.283
			c-1.895,0-3.276-1.259-3.276-3c0-1.736,1.381-3.001,3.276-3.001c1.333,0,2.504,0.985,2.832,1.284l0.088,0.082
			c0.625,0.579,0.95,0.834,1.311,0.926c0.146,0.039,0.28,0.058,0.415,0.058c0.295,0,0.565-0.092,0.796-0.274
			c0.623-0.473,0.865-1.419,0.865-3.387v-9.779h9.772c0.391,0,0.743,0.015,1.047,0.039c-0.56,0.623-1.804,2.229-1.804,4.202
			c0,3.049,2.18,5.346,5.07,5.346s5.065-2.297,5.065-5.346c0-1.973-1.235-3.57-1.8-4.202c0.271-0.019,0.612-0.039,1.047-0.039
			H338.328z"/>
		<path fill="#FFE410" d="M338.904,60.767c0,0.97-0.065,1.959-0.205,2.957h-10.127c-1.964,0-2.914,0.242-3.391,0.864
			c-0.261,0.348-0.338,0.767-0.219,1.211c0.098,0.381,0.373,0.709,0.933,1.312l0.081,0.086c0.304,0.333,1.283,1.524,1.283,2.833
			c0,1.901-1.26,3.281-3,3.281c-1.736,0-3.001-1.38-3.001-3.281c0-1.366,1.066-2.596,1.283-2.833l0.077-0.086
			c0.564-0.608,0.84-0.936,0.932-1.312c0.12-0.449,0.049-0.868-0.218-1.211c-0.478-0.623-1.428-0.864-3.387-0.864h-9.772V54.23
			c0-0.386,0.013-0.738,0.037-1.042c0.618,0.56,2.22,1.799,4.203,1.799c3.047,0,5.345-2.181,5.345-5.07
			c0-2.885-2.298-5.065-5.345-5.065c-2.041,0-3.706,1.355-4.203,1.803c-0.024-0.304-0.037-0.655-0.037-1.051V29.621
			C326.101,30.124,338.904,43.901,338.904,60.767z"/>
	</g>
	<g>
		<g>
			<path fill="#333333" d="M52.467,367.684h14.023c0.685,0,1.245-0.561,1.245-1.244l0,0c0-0.686-0.561-1.248-1.245-1.248H52.467
				c-0.685,0-1.246,0.562-1.246,1.248l0,0C51.222,367.124,51.782,367.684,52.467,367.684z"/>
			<path fill="#333333" d="M65.98,368.983c-0.192,2.002-3.028,3.59-6.501,3.59c-3.472,0-6.31-1.588-6.5-3.59H65.98z"/>
			<path fill="#333333" d="M52.145,363.776h14.67c0.685,0,1.245-0.561,1.245-1.244l0,0c0-0.686-0.56-1.246-1.245-1.246h-14.67
				c-0.685,0-1.245,0.561-1.245,1.246l0,0C50.9,363.215,51.459,363.776,52.145,363.776z"/>
		</g>
		<path fill="#333333" d="M64.789,326.442c0,1.099-0.87,1.895-2.067,1.895c-0.837,0-1.579-0.619-1.786-0.812l-0.056-0.048
			c-0.382-0.354-0.589-0.527-0.827-0.584c-0.088-0.025-0.176-0.037-0.261-0.037c-0.186,0-0.356,0.059-0.506,0.174
			c-0.389,0.297-0.542,0.896-0.542,2.131v5.986h-5.985c-0.276,0-0.494-0.008-0.661-0.02c0.353-0.391,1.138-1.397,1.138-2.65
			c0-1.922-1.375-3.373-3.197-3.373c-1.822,0-3.193,1.451-3.193,3.373c0,1.253,0.778,2.256,1.134,2.65
			c-0.167,0.012-0.384,0.02-0.661,0.02h-6.396c-0.086-0.629-0.127-1.253-0.127-1.863c0-10.574,7.987-19.225,17.948-19.629v10.068
			c0,1.236,0.153,1.837,0.545,2.139c0.15,0.115,0.319,0.172,0.508,0.172c0.081,0,0.169-0.012,0.255-0.035
			c0.241-0.059,0.444-0.231,0.824-0.582l0.059-0.053c0.207-0.193,0.949-0.813,1.786-0.813
			C63.918,324.55,64.789,325.346,64.789,326.442z"/>
		<path fill="#FFE410" d="M52.701,345.333c0,1.824,1.448,3.195,3.37,3.195c1.25,0,2.264-0.785,2.652-1.135
			c0.012,0.168,0.021,0.383,0.021,0.66v11.498h-4.943c-2.897,0-3.749,0.262-3.749-2.543v-6.184l-0.372-0.391
			c-4.723-4.959-7.581-9.648-8.529-13.984h6.167c1.242,0,1.841-0.152,2.139-0.541c0.166-0.223,0.213-0.486,0.137-0.764
			c-0.061-0.238-0.233-0.445-0.587-0.828l-0.051-0.053c-0.243-0.272-0.81-0.992-0.81-1.787c0-1.199,0.798-2.069,1.892-2.069
			c1.098,0,1.893,0.87,1.893,2.069c0,0.831-0.619,1.576-0.811,1.787l-0.048,0.057c-0.356,0.379-0.525,0.586-0.584,0.822
			c-0.08,0.281-0.033,0.549,0.134,0.77c0.298,0.385,0.897,0.537,2.135,0.537h5.985v6.166c0,0.279-0.009,0.494-0.021,0.66
			c-0.313-0.285-1.356-1.139-2.652-1.139C54.148,342.137,52.701,343.51,52.701,345.333z"/>
		<path fill="#333333" d="M77.799,336.45c-0.958,4.311-3.833,9-8.579,13.984l-0.371,0.391v6.184c0,2.805-0.853,2.543-3.75,2.543
			h-5.053v-11.498c0-1.236-0.152-1.836-0.542-2.139c-0.152-0.111-0.323-0.17-0.508-0.17c-0.086,0-0.171,0.012-0.256,0.033
			c-0.228,0.059-0.431,0.223-0.828,0.586l-0.057,0.055c-0.21,0.191-0.958,0.807-1.786,0.807c-1.195,0-2.065-0.793-2.065-1.893
			c0-1.094,0.87-1.889,2.065-1.889c0.84,0,1.579,0.619,1.786,0.807l0.055,0.053c0.395,0.365,0.599,0.527,0.827,0.584
			c0.092,0.023,0.176,0.037,0.262,0.037c0.186,0,0.356-0.057,0.502-0.174c0.392-0.297,0.544-0.895,0.544-2.135v-6.166h6.163
			c0.246,0,0.468,0.01,0.66,0.023c-0.353,0.395-1.138,1.404-1.138,2.65c0,1.922,1.375,3.369,3.197,3.369
			c1.822,0,3.193-1.447,3.193-3.369c0-1.246-0.778-2.252-1.134-2.65c0.169-0.012,0.386-0.023,0.661-0.023H77.799z"/>
		<path fill="#333333" d="M78.163,333.284c0,0.61-0.042,1.234-0.13,1.863h-6.384c-1.239,0-1.838,0.152-2.139,0.545
			c-0.166,0.221-0.213,0.482-0.138,0.764c0.062,0.24,0.235,0.447,0.588,0.828l0.051,0.053c0.192,0.211,0.809,0.963,0.809,1.787
			c0,1.197-0.794,2.068-1.892,2.068c-1.095,0-1.892-0.871-1.892-2.068c0-0.861,0.672-1.637,0.809-1.787l0.049-0.053
			c0.356-0.383,0.529-0.59,0.587-0.828c0.075-0.281,0.03-0.547-0.137-0.764c-0.301-0.393-0.9-0.545-2.135-0.545h-6.163v-5.986
			c0-0.242,0.008-0.465,0.024-0.656c0.39,0.354,1.399,1.135,2.65,1.135c1.921,0,3.37-1.375,3.37-3.197
			c0-1.818-1.449-3.193-3.37-3.193c-1.287,0-2.337,0.854-2.65,1.137c-0.016-0.191-0.024-0.412-0.024-0.662v-10.078
			C70.09,313.962,78.163,322.649,78.163,333.284z"/>
	</g>
	<g>
		<g>
			<path fill="#333333" d="M218.398,367.684h14.023c0.686,0,1.245-0.561,1.245-1.244l0,0c0-0.686-0.56-1.248-1.245-1.248h-14.023
				c-0.684,0-1.245,0.562-1.245,1.248l0,0C217.153,367.124,217.714,367.684,218.398,367.684z"/>
			<path fill="#333333" d="M231.912,368.983c-0.192,2.002-3.028,3.59-6.501,3.59c-3.472,0-6.311-1.588-6.5-3.59H231.912z"/>
			<path fill="#333333" d="M218.076,363.776h14.67c0.685,0,1.244-0.561,1.244-1.244l0,0c0-0.686-0.559-1.246-1.244-1.246h-14.67
				c-0.686,0-1.246,0.561-1.246,1.246l0,0C216.831,363.215,217.39,363.776,218.076,363.776z"/>
		</g>
		<path fill="#FFE410" d="M230.719,326.442c0,1.099-0.869,1.895-2.066,1.895c-0.838,0-1.579-0.619-1.786-0.812l-0.056-0.048
			c-0.382-0.354-0.59-0.527-0.828-0.584c-0.087-0.025-0.176-0.037-0.261-0.037c-0.186,0-0.356,0.059-0.505,0.174
			c-0.389,0.297-0.542,0.896-0.542,2.131v5.986h-5.985c-0.277,0-0.494-0.008-0.661-0.02c0.353-0.391,1.138-1.397,1.138-2.65
			c0-1.922-1.375-3.373-3.197-3.373c-1.822,0-3.193,1.451-3.193,3.373c0,1.253,0.778,2.256,1.134,2.65
			c-0.169,0.012-0.384,0.02-0.661,0.02h-6.396c-0.085-0.629-0.127-1.253-0.127-1.863c0-10.574,7.987-19.225,17.949-19.629v10.068
			c0,1.236,0.153,1.837,0.544,2.139c0.15,0.115,0.32,0.172,0.508,0.172c0.081,0,0.17-0.012,0.255-0.035
			c0.242-0.059,0.445-0.231,0.825-0.582l0.059-0.053c0.207-0.193,0.948-0.813,1.786-0.813
			C229.85,324.55,230.719,325.346,230.719,326.442z"/>
		<path fill="#333333" d="M218.631,345.333c0,1.824,1.448,3.195,3.37,3.195c1.251,0,2.265-0.785,2.654-1.135
			c0.011,0.168,0.021,0.383,0.021,0.66v11.498h-4.943c-2.898,0-3.749,0.262-3.749-2.543v-6.184l-0.372-0.391
			c-4.724-4.959-7.581-9.648-8.529-13.984h6.168c1.241,0,1.841-0.152,2.138-0.541c0.165-0.223,0.213-0.486,0.137-0.764
			c-0.061-0.238-0.234-0.445-0.587-0.828l-0.051-0.053c-0.244-0.272-0.81-0.992-0.81-1.787c0-1.199,0.797-2.069,1.892-2.069
			c1.098,0,1.893,0.87,1.893,2.069c0,0.831-0.619,1.576-0.811,1.787l-0.048,0.057c-0.356,0.379-0.526,0.586-0.585,0.822
			c-0.079,0.281-0.033,0.549,0.134,0.77c0.299,0.385,0.897,0.537,2.136,0.537h5.985v6.166c0,0.279-0.009,0.494-0.021,0.66
			c-0.315-0.285-1.357-1.139-2.654-1.139C220.079,342.137,218.631,343.51,218.631,345.333z"/>
		<path fill="#333333" d="M243.729,336.45c-0.958,4.311-3.833,9-8.578,13.984l-0.372,0.391v6.184c0,2.805-0.852,2.543-3.75,2.543
			h-5.052v-11.498c0-1.236-0.152-1.836-0.542-2.139c-0.152-0.111-0.322-0.17-0.508-0.17c-0.085,0-0.17,0.012-0.256,0.033
			c-0.228,0.059-0.431,0.223-0.828,0.586l-0.057,0.055c-0.21,0.191-0.958,0.807-1.786,0.807c-1.194,0-2.064-0.793-2.064-1.893
			c0-1.094,0.871-1.889,2.064-1.889c0.84,0,1.579,0.619,1.786,0.807l0.056,0.053c0.394,0.365,0.599,0.527,0.826,0.584
			c0.092,0.023,0.176,0.037,0.262,0.037c0.185,0,0.356-0.057,0.501-0.174c0.393-0.297,0.545-0.895,0.545-2.135v-6.166h6.162
			c0.246,0,0.469,0.01,0.661,0.023c-0.353,0.395-1.138,1.404-1.138,2.65c0,1.922,1.375,3.369,3.197,3.369s3.194-1.447,3.194-3.369
			c0-1.246-0.779-2.252-1.135-2.65c0.17-0.012,0.387-0.023,0.661-0.023H243.729z"/>
		<path fill="#333333" d="M244.094,333.284c0,0.61-0.042,1.234-0.13,1.863h-6.384c-1.238,0-1.838,0.152-2.138,0.545
			c-0.166,0.221-0.213,0.482-0.139,0.764c0.062,0.24,0.234,0.447,0.587,0.828l0.053,0.053c0.191,0.211,0.809,0.963,0.809,1.787
			c0,1.197-0.794,2.068-1.892,2.068c-1.095,0-1.892-0.871-1.892-2.068c0-0.861,0.672-1.637,0.809-1.787l0.049-0.053
			c0.357-0.383,0.53-0.59,0.588-0.828c0.075-0.281,0.031-0.547-0.138-0.764c-0.301-0.393-0.899-0.545-2.135-0.545h-6.162v-5.986
			c0-0.242,0.008-0.465,0.024-0.656c0.39,0.354,1.399,1.135,2.65,1.135c1.921,0,3.369-1.375,3.369-3.197
			c0-1.818-1.448-3.193-3.369-3.193c-1.287,0-2.337,0.854-2.65,1.137c-0.016-0.191-0.024-0.412-0.024-0.662v-10.078
			C236.022,313.962,244.094,322.649,244.094,333.284z"/>
	</g>
	<g>
		<g>
			<path fill="#333333" d="M385.699,367.684h14.023c0.686,0,1.244-0.561,1.244-1.244l0,0c0-0.686-0.559-1.248-1.244-1.248h-14.023
				c-0.684,0-1.245,0.562-1.245,1.248l0,0C384.454,367.124,385.015,367.684,385.699,367.684z"/>
			<path fill="#333333" d="M399.212,368.983c-0.193,2.002-3.028,3.59-6.5,3.59c-3.473,0-6.312-1.588-6.502-3.59H399.212z"/>
			<path fill="#333333" d="M385.377,363.776h14.669c0.686,0,1.245-0.561,1.245-1.244l0,0c0-0.686-0.56-1.246-1.245-1.246h-14.669
				c-0.687,0-1.245,0.561-1.245,1.246l0,0C384.132,363.215,384.691,363.776,385.377,363.776z"/>
		</g>
		<path fill="#333333" d="M398.019,326.442c0,1.099-0.868,1.895-2.065,1.895c-0.837,0-1.579-0.619-1.786-0.812l-0.056-0.048
			c-0.383-0.354-0.591-0.527-0.827-0.584c-0.088-0.025-0.177-0.037-0.262-0.037c-0.186,0-0.355,0.059-0.503,0.174
			c-0.391,0.297-0.544,0.896-0.544,2.131v5.986h-5.984c-0.277,0-0.494-0.008-0.66-0.02c0.352-0.391,1.137-1.397,1.137-2.65
			c0-1.922-1.375-3.373-3.197-3.373c-1.821,0-3.192,1.451-3.192,3.373c0,1.253,0.779,2.256,1.134,2.65
			c-0.17,0.012-0.384,0.02-0.66,0.02h-6.397c-0.085-0.629-0.128-1.253-0.128-1.863c0-10.574,7.989-19.225,17.949-19.629v10.068
			c0,1.236,0.153,1.837,0.545,2.139c0.15,0.115,0.32,0.172,0.508,0.172c0.083,0,0.171-0.012,0.256-0.035
			c0.24-0.059,0.444-0.231,0.824-0.582l0.059-0.053c0.207-0.193,0.949-0.813,1.786-0.813
			C397.151,324.55,398.019,325.346,398.019,326.442z"/>
		<path fill="#333333" d="M385.933,345.333c0,1.824,1.447,3.195,3.369,3.195c1.25,0,2.264-0.785,2.654-1.135
			c0.01,0.168,0.02,0.383,0.02,0.66v11.498h-4.942c-2.897,0-3.749,0.262-3.749-2.543v-6.184l-0.372-0.391
			c-4.724-4.959-7.58-9.648-8.528-13.984h6.168c1.24,0,1.84-0.152,2.137-0.541c0.165-0.223,0.215-0.486,0.139-0.764
			c-0.061-0.238-0.234-0.445-0.588-0.828l-0.052-0.053c-0.242-0.272-0.809-0.992-0.809-1.787c0-1.199,0.798-2.069,1.892-2.069
			c1.098,0,1.893,0.87,1.893,2.069c0,0.831-0.618,1.576-0.81,1.787l-0.048,0.057c-0.355,0.379-0.527,0.586-0.586,0.822
			c-0.078,0.281-0.033,0.549,0.135,0.77c0.299,0.385,0.897,0.537,2.137,0.537h5.984v6.166c0,0.279-0.01,0.494-0.02,0.66
			c-0.315-0.285-1.356-1.139-2.654-1.139C387.38,342.137,385.933,343.51,385.933,345.333z"/>
		<path fill="#333333" d="M411.031,336.45c-0.957,4.311-3.834,9-8.577,13.984l-0.372,0.391v6.184c0,2.805-0.852,2.543-3.75,2.543
			h-5.053v-11.498c0-1.236-0.151-1.836-0.542-2.139c-0.15-0.111-0.32-0.17-0.508-0.17c-0.084,0-0.17,0.012-0.255,0.033
			c-0.229,0.059-0.432,0.223-0.828,0.586l-0.058,0.055c-0.21,0.191-0.958,0.807-1.786,0.807c-1.194,0-2.064-0.793-2.064-1.893
			c0-1.094,0.87-1.889,2.064-1.889c0.84,0,1.58,0.619,1.786,0.807l0.057,0.053c0.393,0.365,0.599,0.527,0.825,0.584
			c0.092,0.023,0.176,0.037,0.263,0.037c0.185,0,0.354-0.057,0.501-0.174c0.394-0.297,0.545-0.895,0.545-2.135v-6.166h6.162
			c0.246,0,0.469,0.01,0.66,0.023c-0.354,0.395-1.138,1.404-1.138,2.65c0,1.922,1.374,3.369,3.196,3.369
			c1.823,0,3.195-1.447,3.195-3.369c0-1.246-0.779-2.252-1.135-2.65c0.17-0.012,0.387-0.023,0.66-0.023H411.031z"/>
		<path fill="#FFE410" d="M411.394,333.284c0,0.61-0.04,1.234-0.128,1.863h-6.386c-1.238,0-1.838,0.152-2.139,0.545
			c-0.164,0.221-0.213,0.482-0.138,0.764c0.062,0.24,0.234,0.447,0.587,0.828l0.053,0.053c0.191,0.211,0.809,0.963,0.809,1.787
			c0,1.197-0.793,2.068-1.893,2.068c-1.094,0-1.891-0.871-1.891-2.068c0-0.861,0.672-1.637,0.81-1.787l0.049-0.053
			c0.355-0.383,0.527-0.59,0.586-0.828c0.075-0.281,0.03-0.547-0.138-0.764c-0.301-0.393-0.898-0.545-2.135-0.545h-6.162v-5.986
			c0-0.242,0.009-0.465,0.025-0.656c0.389,0.354,1.399,1.135,2.649,1.135c1.921,0,3.368-1.375,3.368-3.197
			c0-1.818-1.447-3.193-3.368-3.193c-1.287,0-2.339,0.854-2.649,1.137c-0.017-0.191-0.025-0.412-0.025-0.662v-10.078
			C403.322,313.962,411.394,322.649,411.394,333.284z"/>
	</g>
	<g>
		<g>
			<path fill="#333333" d="M551.703,367.684h14.023c0.687,0,1.246-0.561,1.246-1.244l0,0c0-0.686-0.56-1.248-1.246-1.248h-14.023
				c-0.684,0-1.244,0.562-1.244,1.248l0,0C550.458,367.124,551.019,367.684,551.703,367.684z"/>
			<path fill="#333333" d="M565.216,368.983c-0.191,2.002-3.027,3.59-6.5,3.59s-6.311-1.588-6.5-3.59H565.216z"/>
			<path fill="#333333" d="M551.382,363.776h14.67c0.684,0,1.243-0.561,1.243-1.244l0,0c0-0.686-0.56-1.246-1.243-1.246h-14.67
				c-0.688,0-1.246,0.561-1.246,1.246l0,0C550.136,363.215,550.695,363.776,551.382,363.776z"/>
		</g>
		<path fill="#333333" d="M564.025,326.442c0,1.099-0.869,1.895-2.066,1.895c-0.838,0-1.58-0.619-1.787-0.812l-0.055-0.048
			c-0.383-0.354-0.59-0.527-0.828-0.584c-0.088-0.025-0.176-0.037-0.26-0.037c-0.187,0-0.357,0.059-0.506,0.174
			c-0.389,0.297-0.541,0.896-0.541,2.131v5.986h-5.986c-0.277,0-0.493-0.008-0.659-0.02c0.351-0.391,1.138-1.397,1.138-2.65
			c0-1.922-1.375-3.373-3.197-3.373s-3.193,1.451-3.193,3.373c0,1.253,0.777,2.256,1.133,2.65c-0.168,0.012-0.383,0.02-0.66,0.02
			h-6.396c-0.086-0.629-0.127-1.253-0.127-1.863c0-10.574,7.986-19.225,17.949-19.629v10.068c0,1.236,0.152,1.837,0.543,2.139
			c0.15,0.115,0.32,0.172,0.509,0.172c0.081,0,0.171-0.012,0.255-0.035c0.242-0.059,0.445-0.231,0.824-0.582l0.059-0.053
			c0.207-0.193,0.949-0.813,1.787-0.813C563.156,324.55,564.025,325.346,564.025,326.442z"/>
		<path fill="#333333" d="M551.937,345.333c0,1.824,1.447,3.195,3.369,3.195c1.252,0,2.266-0.785,2.654-1.135
			c0.012,0.168,0.021,0.383,0.021,0.66v11.498h-4.943c-2.898,0-3.75,0.262-3.75-2.543v-6.184l-0.371-0.391
			c-4.725-4.959-7.58-9.648-8.529-13.984h6.168c1.24,0,1.842-0.152,2.139-0.541c0.164-0.223,0.213-0.486,0.137-0.764
			c-0.061-0.238-0.234-0.445-0.586-0.828l-0.053-0.053c-0.243-0.272-0.809-0.992-0.809-1.787c0-1.199,0.797-2.069,1.893-2.069
			s1.893,0.87,1.893,2.069c0,0.831-0.62,1.576-0.811,1.787l-0.049,0.057c-0.355,0.379-0.525,0.586-0.585,0.822
			c-0.079,0.281-0.033,0.549,0.134,0.77c0.299,0.385,0.898,0.537,2.137,0.537h5.986v6.166c0,0.279-0.01,0.494-0.021,0.66
			c-0.314-0.285-1.357-1.139-2.654-1.139C553.384,342.137,551.937,343.51,551.937,345.333z"/>
		<path fill="#FFE410" d="M577.035,336.45c-0.957,4.311-3.834,9-8.578,13.984l-0.369,0.391v6.184c0,2.805-0.854,2.543-3.75,2.543
			h-5.054v-11.498c0-1.236-0.151-1.836-0.542-2.139c-0.152-0.111-0.321-0.17-0.508-0.17c-0.086,0-0.17,0.012-0.256,0.033
			c-0.226,0.059-0.43,0.223-0.828,0.586l-0.057,0.055c-0.211,0.191-0.959,0.807-1.787,0.807c-1.193,0-2.064-0.793-2.064-1.893
			c0-1.094,0.871-1.889,2.064-1.889c0.842,0,1.58,0.619,1.787,0.807l0.055,0.053c0.395,0.365,0.6,0.527,0.827,0.584
			c0.092,0.023,0.175,0.037,0.261,0.037c0.186,0,0.357-0.057,0.502-0.174c0.395-0.297,0.546-0.895,0.546-2.135v-6.166h6.161
			c0.246,0,0.469,0.01,0.662,0.023c-0.354,0.395-1.139,1.404-1.139,2.65c0,1.922,1.375,3.369,3.197,3.369s3.193-1.447,3.193-3.369
			c0-1.246-0.779-2.252-1.134-2.65c0.169-0.012,0.386-0.023,0.661-0.023H577.035z"/>
		<path fill="#333333" d="M577.4,333.284c0,0.61-0.041,1.234-0.131,1.863h-6.383c-1.24,0-1.84,0.152-2.139,0.545
			c-0.166,0.221-0.213,0.482-0.139,0.764c0.062,0.24,0.234,0.447,0.588,0.828l0.051,0.053c0.191,0.211,0.809,0.963,0.809,1.787
			c0,1.197-0.793,2.068-1.891,2.068c-1.096,0-1.893-0.871-1.893-2.068c0-0.861,0.673-1.637,0.809-1.787l0.051-0.053
			c0.355-0.383,0.527-0.59,0.586-0.828c0.076-0.281,0.031-0.547-0.137-0.764c-0.301-0.393-0.9-0.545-2.137-0.545h-6.161v-5.986
			c0-0.242,0.009-0.465,0.024-0.656c0.389,0.354,1.398,1.135,2.65,1.135c1.92,0,3.369-1.375,3.369-3.197
			c0-1.818-1.449-3.193-3.369-3.193c-1.287,0-2.338,0.854-2.65,1.137c-0.016-0.191-0.024-0.412-0.024-0.662v-10.078
			C569.328,313.962,577.4,322.649,577.4,333.284z"/>
	</g>
</g>
<g>
	<path fill="#7D4C1E" d="M585.191,418.458c-2.438-7.844-7.303-12.008-11.139-12.365c-3.466-0.301-7.51-4.037-14.57-4.225v-0.006
		c-0.016,0-0.029,0.004-0.045,0.004c-0.014,0-0.029-0.004-0.045-0.004v0.006c-7.062,0.188-11.104,3.924-14.568,4.225
		c-3.838,0.357-8.703,4.521-11.141,12.365c-1.727,5.551-0.408,13.236,0.329,17.77c0,0-0.421,0.779,0,3.242
		c0.304,1.898,2.108,6.566,2.452,10.389c0.344,3.797,3.309,2.795,3.309,2.795s1.041,5.141,2.967,10.02
		c0.738,1.871,1.002,3.018,1.015,3.795v0.066c0,0.252-0.026,0.447-0.065,0.633l0.66,0.568c0,0,5.799,5.035,12.588,6.078
		c0.303,0.051,0.607,0.09,0.908,0.117c0.475,0.039,0.951,0.064,1.438,0.064h0.109h0.09h0.109c0.487,0,0.961-0.025,1.436-0.064
		c0.305-0.027,0.607-0.066,0.911-0.117c6.788-1.043,12.589-6.078,12.589-6.078l0.658-0.568c-0.039-0.186-0.064-0.381-0.064-0.633
		v-0.066c0.012-0.777,0.277-1.924,1.016-3.795c1.924-4.879,2.965-10.02,2.965-10.02s2.966,1.002,3.309-2.795
		c0.343-3.822,2.148-8.49,2.451-10.389c0.422-2.463,0-3.242,0-3.242C585.6,431.694,586.917,424.008,585.191,418.458z"/>
	<path fill="#DBDBDB" d="M619.15,566.579H499.73c0.149-13.59,1.47-78.061,12.68-81.801c12.529-4.18,22.141-8.359,24.23-9.398
		c0.91-0.451,2.039-1.51,3.08-2.682l1.689-2.039l0.02-0.039l2.26-3.451l0.061-0.629v-0.07c0,0,7.32,7.07,14.811,7.51
		c0.24,0.01,0.48,0.02,0.72,0.02h0.31c0.261,0,0.52-0.01,0.781-0.02c0.09-0.01,0.17-0.01,0.259-0.02c0.021,0,0.05,0,0.07-0.012
		c7.36-0.639,14.421-7.479,14.421-7.479v0.07l0.068,0.629l2.25,3.451l0.031,0.039l1.68,2.039c1.05,1.172,2.18,2.23,3.09,2.682
		c2.08,1.039,11.699,5.219,24.221,9.398C617.67,488.518,619,552.989,619.15,566.579z"/>
	<path fill="#69390B" d="M559.392,401.862v72.133h0.199c0.487,0,0.961-0.025,1.436-0.064c0.305-0.027,0.607-0.066,0.911-0.117
		c6.788-1.043,12.589-6.078,12.589-6.078l0.658-0.568c-0.039-0.186-0.064-0.381-0.064-0.633v-0.066
		c0.012-0.777,0.277-1.924,1.016-3.795c1.924-4.879,2.965-10.02,2.965-10.02s2.966,1.002,3.309-2.795
		c0.343-3.822,2.148-8.49,2.451-10.389c0.422-2.463,0-3.242,0-3.242c0.739-4.533,2.057-12.219,0.33-17.77
		c-2.438-7.844-7.303-12.008-11.139-12.365C570.572,405.79,566.513,402.02,559.392,401.862z"/>
	<path fill="#171917" d="M585.191,418.458c-0.152-0.49-0.313-0.967-0.484-1.426c-0.018-0.047-0.036-0.09-0.055-0.139
		c-0.154-0.408-0.312-0.807-0.478-1.191c-0.112-0.26-0.233-0.506-0.351-0.756c-0.074-0.156-0.145-0.32-0.221-0.473
		c-0.19-0.387-0.393-0.762-0.596-1.121c-0.004-0.004-0.005-0.01-0.01-0.014c-0.37-0.656-0.766-1.26-1.17-1.828
		c-0.053-0.076-0.105-0.156-0.158-0.229c-0.106-0.141-0.213-0.275-0.319-0.412c-0.153-0.197-0.306-0.395-0.462-0.582
		c-0.002,0-0.002-0.002-0.004-0.004c-2.07-2.479-4.354-3.975-6.287-4.863c-3.067-1.41-8.045-3.381-15.115-3.553v-0.006
		c-0.016,0-0.029,0.004-0.045,0.004c-0.014,0-0.029-0.004-0.045-0.004v0.006c-7.062,0.188-11.104,3.924-14.568,4.225
		c-3.838,0.357-8.703,4.521-11.141,12.365c-1.727,5.551-0.408,13.236,0.329,17.77c0.213-0.275,0.476-0.436,0.817-0.461
		c0,0,1.767,0.449,2.268,5.551l3.006,0.051v-12.521c0,0,4.818-3.258,17.562,2.799c0.402,0.191,1.293,0.5,1.727,0.764v0.023
		c0.158,0.027,0.301,0.064,0.453,0.1c0.43,0.109,0.725,0.195,1.08,0.236c0.021,0,0.043,0,0.066,0.004
		c0.043,0.008,0.098,0.023,0.141,0.029c11.457,1.271,17.639-3.955,17.639-3.955v12.521l3.006-0.051
		c0.5-5.102,2.269-5.551,2.269-5.551c0.341,0.025,0.604,0.186,0.815,0.461C585.6,431.694,586.917,424.008,585.191,418.458z"/>
	<path fill="#B0B0B0" d="M619.15,566.579h-59.76v-92.58h0.199c0.261,0,0.52-0.01,0.781-0.02c0.09-0.01,0.17-0.01,0.259-0.02
		c0.021,0,0.05,0,0.07-0.012c7.36-0.639,14.421-7.479,14.421-7.479v0.07l0.068,0.629l2.25,3.451l0.031,0.039l1.68,2.039
		c1.05,1.172,2.18,2.23,3.09,2.682c2.08,1.039,11.699,5.219,24.221,9.398C617.67,488.518,619,552.989,619.15,566.579z"/>
	<path fill="#336699" d="M568.48,566.579H550.4c0.459-12.27,3.17-76.58,5.42-78.891l0.01-0.01c-2.189-0.939-2.391-2.779-2.391-4.959
		c0-3.08,1.761-5.59,5.531-5.59c0.13,0,0.279,0.01,0.42,0.02c0.17-0.02,0.35-0.02,0.52-0.02c3.77,0,5.52,2.51,5.52,5.59
		c0,2.18-0.199,4.02-2.389,4.959l0.02,0.01C565.31,489.999,568.019,554.309,568.48,566.579z"/>
	<path fill="#264D73" d="M568.48,566.579h-9.09v-89.43c0.17-0.02,0.35-0.02,0.52-0.02c3.77,0,5.52,2.51,5.52,5.59
		c0,2.18-0.199,4.02-2.389,4.959l0.02,0.01C565.31,489.999,568.019,554.309,568.48,566.579z"/>
	<path fill="#000200" d="M559.392,401.862v30.57c0.656,0.119,1.268,0.316,1.74,0.369c11.457,1.271,17.639-3.955,17.639-3.955v12.521
		l3.006-0.051c0.5-5.102,2.269-5.551,2.269-5.551c0.341,0.025,0.604,0.186,0.815,0.461c0.739-4.533,2.057-12.219,0.33-17.77
		c-2.438-7.844-7.094-11.43-10.594-13.037C571.517,404.004,566.513,402.02,559.392,401.862z"/>
</g>
<g>
	<path fill="#AF632D" d="M424.17,436.975c-0.842-7.279-1.865-13.365-3.938-17.713c-3.6-7.605-10.604-14.271-16.95-15.436
		c-3.275-0.611-6.385-2.074-10.32-1.957c-3.938-0.117-7.045,1.346-10.32,1.957c-6.346,1.164-13.351,7.83-16.951,15.436
		c-2.072,4.348-3.095,10.434-3.936,17.713c-0.338,5.877-0.181,12.172,0.207,17.727v0.012c0.621,9.014-3.262,16.057-2.588,16.162
		c1.035,0.154,10.708,0.207,12.727-0.221c1.127-0.232,2.266-0.623,3.25-1.23c2.059-1.256,3.627-3.457,4.273-3.781
		c-1.282-1.695-6.008-8.65-6.564-19.541c-0.647-12.623-0.647-12.623-0.647-12.623s8.571-4.207,20.55-4.207s20.55,4.207,20.55,4.207
		s0,0-0.647,12.623c-0.557,10.891-5.283,17.846-6.564,19.541c0.646,0.324,2.215,2.525,4.273,3.781
		c0.984,0.607,2.123,0.998,3.251,1.23c2.019,0.428,11.69,0.375,12.726,0.221c0.674-0.105-3.211-7.148-2.588-16.162v-0.012
		C424.351,449.147,424.507,442.852,424.17,436.975z"/>
	<path fill="#009970" d="M446.791,566.579H339.141c0.669-10.449,5.358-81.48,9.409-83.23c3.279-1.41,13.649-3.52,20.72-6.619h0.01
		c1.931-0.84,3.62-1.76,4.85-2.76c0.28-0.23,0.53-0.461,0.762-0.691c0.529-0.549,1.009-1.059,1.43-1.51
		c2.709,6.42,12.159,28.021,16.64,28.031c4.479-0.01,13.939-21.611,16.64-28.031c0.43,0.451,0.909,0.961,1.44,1.51
		c0.219,0.23,0.479,0.461,0.75,0.691c1.229,1,2.92,1.92,4.851,2.76h0.009c7.08,3.1,17.45,5.209,20.729,6.619
		C441.42,485.098,446.121,556.129,446.791,566.579z"/>
	<path fill="#EFBA58" d="M406.3,465.643c1.281-1.695,6.008-8.65,6.564-19.541c0.647-12.623,0.647-12.623,0.647-12.623
		s-8.571-4.207-20.55-4.207s-20.55,4.207-20.55,4.207s0,0,0.647,12.623c0.557,10.891,5.282,17.846,6.564,19.541
		c0.221-0.117,0.154,2.461-3.303,6.125c2.707,6.422,12.161,28.021,16.641,28.035c4.479-0.014,13.934-21.613,16.639-28.035
		C406.144,468.104,406.08,465.526,406.3,465.643z"/>
	<path fill="#007354" d="M376.322,471.768l-13.299,5.143c0,0,17.04,29.098,29.939,22.893L376.322,471.768z"/>
	<path fill="#146550" d="M409.601,471.768l7.301,5.143c0,0-11.04,29.098-23.939,22.893L409.601,471.768z"/>
	<path fill="#91471C" d="M392.962,429.272c11.979,0,20.55,4.207,20.55,4.207s0,0-0.647,12.623
		c-0.557,10.891-5.283,17.846-6.564,19.541c0.646,0.324,2.215,2.525,4.273,3.781c0.984,0.607,2.123,0.998,3.251,1.23
		c2.019,0.428,11.69,0.375,12.726,0.221c0.674-0.105-3.211-7.148-2.588-16.162v-0.012c0.389-5.555,0.545-11.85,0.208-17.727
		c-0.842-7.279-1.865-13.365-3.938-17.713c-3.6-7.605-10.604-14.271-16.95-15.436c-3.275-0.611-6.385-2.074-10.32-1.957V429.272z"/>
	<path fill="#007354" d="M446.791,566.579h-53.83v-66.779c4.479-0.01,13.939-21.611,16.64-28.031c0.43,0.451,0.909,0.961,1.44,1.51
		c0.219,0.23,0.479,0.461,0.75,0.691c1.229,1,2.92,1.92,4.851,2.76h0.009c7.08,3.1,17.45,5.209,20.729,6.619
		C441.42,485.098,446.121,556.129,446.791,566.579z"/>
	<path fill="#D6A449" d="M392.962,429.272v70.531c4.479-0.014,13.934-21.613,16.639-28.035c-3.457-3.664-3.521-6.242-3.301-6.125
		c1.281-1.695,6.008-8.65,6.564-19.541c0.647-12.623,0.647-12.623,0.647-12.623S404.941,429.272,392.962,429.272z"/>
	<path fill="#125947" d="M409.601,471.768l13.301,5.143c0,0-17.04,29.098-29.939,22.893L409.601,471.768z"/>
</g>
<g>
	<path fill="#333333" d="M257.388,436.981c-0.842-7.277-1.866-13.363-3.936-17.715c-3.6-7.613-10.58-12.287-16.949-15.434
		c-2.989-1.475-6.384-2.07-10.32-1.955c-3.938-0.115-6.885,0.434-10.32,1.955c-5.898,2.613-13.351,7.82-16.95,15.434
		c-2.072,4.352-3.095,10.438-3.936,17.715c-0.234,4.025-0.558,28.031-0.506,42.807c2.436-0.775,4.922-1.645,7.174-2.615h0.026
		l8.648-8.547l1.05,0.906c0.996-1.461,1.384-2.615,1.514-3.262c-0.195-0.453-0.375-0.893-0.569-1.348
		c-1.684-2.447-5.4-8.857-5.996-18.309c-0.027-0.168-0.027-0.338-0.039-0.506c-0.647-12.623-0.647-12.623-0.647-12.623
		s8.572,3.445,20.549,3.445s20.548-3.445,20.548-3.445s0,0-0.648,12.623c-0.013,0.168-0.013,0.338-0.038,0.506
		c-0.596,9.451-4.312,15.861-5.996,18.309c-0.193,0.455-0.375,0.895-0.57,1.348c0.129,0.646,0.519,1.801,1.515,3.262l1.05-0.906
		l8.649,8.547h0.026c2.252,0.971,4.737,1.84,7.174,2.615C257.943,465.012,257.621,441.006,257.388,436.981z"/>
	<path fill="#5EA13F" d="M280.01,566.579H172.36c0.67-10.449,5.37-81.48,9.41-83.23c2.07-0.879,7.92-2.049,12.7-3.559
		c2.44-0.781,4.92-1.65,7.17-2.621h0.03l7.55-1.27c0,0,11.3,23.74,16.96,26.32c5.66-2.58,16.96-26.32,16.96-26.32l7.55,1.27h0.03
		c2.25,0.971,4.74,1.84,7.17,2.621c4.78,1.51,10.63,2.68,12.7,3.559C274.64,485.098,279.34,556.129,280.01,566.579z"/>
	<path fill="#FCD9A7" d="M226.183,436.93c-3.086,0-5.945-0.23-8.49-0.568c-0.394-0.053-0.769-11.605-0.769-11.605
		s-0.621,11.348-1.295,11.221c-5.437-1.008-9.996-2.492-9.996-2.492s0,0,0.647,12.623c0.012,0.168,0.012,0.338,0.039,0.506
		c0.596,9.451,4.312,15.861,5.996,18.309c0.219,0.299,0.387,0.545,0.531,0.725c0.064-0.039,0.103,0.182,0.038,0.623
		c-0.13,0.646-0.519,1.801-1.514,3.262l7.522,6.463l7.291,6.252l7.289-6.252l7.522-6.463c-0.996-1.461-1.386-2.615-1.515-3.262
		c-0.063-0.441-0.026-0.662,0.041-0.623c0.141-0.18,0.31-0.426,0.529-0.725c1.684-2.447,5.4-8.857,5.996-18.309
		c0.025-0.168,0.025-0.338,0.038-0.506c0.648-12.623,0.648-12.623,0.648-12.623S238.16,436.93,226.183,436.93z"/>
	<path fill="#FFFFFF" d="M242.043,468.625l-1.05,0.906l-7.522,6.463l-7.289,6.252l-7.291-6.252l-7.522-6.463l-1.05-0.906
		l-8.648,8.547l7.548-1.27c0,0,11.304,23.734,16.963,26.311c5.658-2.576,16.961-26.311,16.961-26.311l7.549,1.27L242.043,468.625z"
		/>
	<path fill="#262626" d="M257.893,479.788c-2.437-0.775-4.922-1.645-7.174-2.615h-0.026l-8.649-8.547l-1.05,0.906
		c-0.996-1.461-1.386-2.615-1.515-3.262c0.195-0.453,0.376-0.893,0.57-1.348c1.684-2.447,5.4-8.857,5.996-18.309
		c0.025-0.168,0.025-0.338,0.038-0.506c0.648-12.623,0.648-12.623,0.648-12.623s-8.571,3.445-20.548,3.445v-35.053
		c3.936-0.115,7.254,0.648,10.32,1.955c6.038,2.578,13.349,7.82,16.949,15.434c2.07,4.352,3.094,10.438,3.936,17.715
		C257.621,441.006,257.943,465.012,257.893,479.788z"/>
	<path fill="#497D31" d="M280.01,566.579h-53.83v-64.359c5.66-2.58,16.96-26.32,16.96-26.32l7.55,1.27h0.03
		c2.25,0.971,4.74,1.84,7.17,2.621c4.78,1.51,10.63,2.68,12.7,3.559C274.64,485.098,279.34,556.129,280.01,566.579z"/>
	<path fill="#D6B587" d="M246.731,433.485c0,0,0,0-0.648,12.623c-0.013,0.168-0.013,0.338-0.038,0.506
		c-0.596,9.451-4.312,15.861-5.996,18.309c-0.22,0.299-0.388,0.545-0.529,0.725c-0.067-0.039-0.104,0.182-0.041,0.623
		c0.129,0.646,0.519,1.801,1.515,3.262l-7.522,6.463l-7.289,6.252V436.93C238.16,436.93,246.731,433.485,246.731,433.485z"/>
	<path fill="#BFBFBF" d="M250.693,477.172l-7.549-1.27c0,0-11.303,23.734-16.961,26.311v-19.967l7.289-6.252l7.522-6.463l1.05-0.906
		L250.693,477.172z"/>
</g>
<g>
	<path fill="#333333" d="M119.42,566.579H0c0.15-13.59,1.47-78.061,12.68-81.801c12.53-4.18,22.14-8.359,24.23-9.398
		c0.91-0.451,2.04-1.51,3.08-2.67c0.61-0.691,1.19-1.4,1.69-2.051l0.02-0.039c0.62-0.791,1.1-1.471,1.31-1.861
		c0.33-0.58,0.79-0.879,0.95-1.59l0.66,0.971c0,0,5.8,4.709,12.59,5.67c0.3,0.061,0.6,0.1,0.91,0.119
		c0.22,0.02,0.43,0.031,0.65,0.051c0.26,0.01,0.52,0.02,0.78,0.02h0.31c0.26,0,0.52-0.01,0.78-0.02c0.22-0.02,0.44-0.031,0.66-0.051
		c0.3-0.02,0.6-0.059,0.91-0.119c6.79-0.961,12.59-5.67,12.59-5.67l0.66-0.971c0.15,0.711,0.62,1.01,0.94,1.59
		c0.22,0.391,0.69,1.07,1.31,1.861l0.03,0.039c0.5,0.65,1.08,1.359,1.68,2.051c1.05,1.16,2.18,2.219,3.09,2.67
		c2.08,1.039,11.7,5.219,24.22,9.398C117.94,488.518,119.27,552.989,119.42,566.579z"/>
	<path fill="#FFD1B3" d="M85.461,418.458c-2.439-7.842-7.303-12.008-11.139-12.363c-3.466-0.303-7.508-4.037-14.57-4.227v-0.004
		c-0.017,0-0.03,0.002-0.045,0.002s-0.029-0.002-0.044-0.002v0.004c-7.063,0.189-11.105,3.924-14.571,4.227
		c-3.836,0.355-8.7,4.521-11.14,12.363c-1.727,5.551-0.408,13.236,0.33,17.771c0,0-0.422,0.777,0,3.242
		c0.304,1.898,2.11,6.566,2.453,10.389c0.342,3.795,3.308,2.795,3.308,2.795s1.042,5.139,2.966,10.018
		c0.738,1.871,1.002,3.02,1.016,3.797v0.064c0,0.252-0.027,0.449-0.066,0.633l0.659,0.568c0,0,5.8,5.035,12.589,6.078
		c0.304,0.053,0.606,0.092,0.91,0.117c0.474,0.041,0.95,0.064,1.437,0.064h0.11h0.089h0.109c0.487,0,0.963-0.023,1.437-0.064
		c0.304-0.025,0.606-0.064,0.91-0.117c6.789-1.043,12.588-6.078,12.588-6.078l0.66-0.568c-0.039-0.184-0.066-0.381-0.066-0.633
		v-0.064c0.015-0.777,0.277-1.926,1.016-3.797c1.925-4.879,2.965-10.018,2.965-10.018s2.966,1,3.309-2.795
		c0.343-3.822,2.15-8.49,2.453-10.389c0.422-2.465,0-3.242,0-3.242C85.87,431.694,87.188,424.008,85.461,418.458z"/>
	<path fill="#FFFFFF" d="M77.736,470.661l-0.025-0.039l-2.255-3.455l-0.066-0.633v-0.064c0,0-7.791,7.525-15.528,7.525h-0.109
		h-0.089h-0.11c-7.737,0-15.528-7.525-15.528-7.525v0.064l-0.066,0.633l-2.255,3.455l-0.026,0.039l-1.688,2.043l13.248,32.363
		l0.224,0.566h6.2h0.089h6.199l0.224-0.566l13.248-32.363L77.736,470.661z"/>
	<path fill="#E6BA9E" d="M59.663,401.864v72.131h0.198c0.487,0,0.963-0.023,1.437-0.064c0.304-0.025,0.606-0.064,0.91-0.117
		c6.789-1.043,12.588-6.078,12.588-6.078l0.66-0.568c-0.039-0.184-0.066-0.381-0.066-0.633v-0.064
		c0.015-0.777,0.277-1.926,1.016-3.797c1.925-4.879,2.965-10.018,2.965-10.018s2.966,1,3.309-2.795
		c0.343-3.822,2.15-8.49,2.453-10.389c0.422-2.465,0-3.242,0-3.242c0.738-4.535,2.057-12.221,0.33-17.771
		c-2.439-7.842-7.303-12.008-11.139-12.363C70.841,405.792,66.782,402.02,59.663,401.864z"/>
	<path fill="#262626" d="M59.7,505.639l0.01-23.98l-0.05-2.391c0.15,0,0.35-0.359,0.57-0.859c0.49-1.119,1.07-2.939,1.4-2.971
		c0.3-0.02,1.41-0.58,1.71-0.639c6.79-0.961,11.46-6.66,11.46-6.66l1.16,1.299c0.16,0.721,0,0,0.33,0.58
		c0.21,0.391,0.34,1.281,0.96,2.07l0.96,0.48c0.5,0.65,0.61-0.551,1.21,0.141c1.05,1.16,2.18,2.219,3.09,2.67
		c2.08,1.039,11.7,5.219,24.22,9.398c11.21,3.74,12.54,68.211,12.69,81.801H59.66l0.04-59.67V505.639z"/>
	<path fill="#F5E042" d="M85.461,418.458c-2.439-7.842-7.303-12.008-11.139-12.363c-3.466-0.303-7.508-4.037-14.57-4.227v-0.004
		c-0.017,0-0.03,0.002-0.045,0.002s-0.029-0.002-0.044-0.002v0.004c-7.063,0.189-11.105,3.924-14.571,4.227
		c-3.836,0.355-8.7,4.521-11.14,12.363c-1.727,5.551-0.408,13.236,0.33,17.771c0.211-0.275,0.476-0.436,0.818-0.463
		c0,0,1.765,0.449,2.267,5.551l3.005,0.053v-12.521c0,0,10.533,3.625,17.941,3.625c0.46,0,0.921-0.014,1.393-0.041
		c0.471,0.027,0.933,0.041,1.393,0.041c7.408,0,17.94-3.625,17.94-3.625v12.521l3.006-0.053c0.502-5.102,2.268-5.551,2.268-5.551
		c0.342,0.027,0.606,0.188,0.817,0.463C85.87,431.694,87.188,424.008,85.461,418.458z"/>
	<path fill="#D1C732" d="M59.663,401.864v30.568c0.488,0.027,0.962,0.041,1.437,0.041c7.408,0,17.94-3.625,17.94-3.625v12.521
		l3.006-0.053c0.502-5.102,2.268-5.551,2.268-5.551c0.342,0.027,0.606,0.188,0.817,0.463c0.738-4.535,2.057-12.221,0.33-17.771
		c-2.439-7.842-7.093-11.43-10.594-13.037C71.787,404.006,66.782,402.02,59.663,401.864z"/>
	<path fill="#BFBFBF" d="M59.663,473.995v31.639h6.288l0.224-0.566l13.248-32.363l-1.688-2.043l-0.025-0.039l-2.255-3.455
		l-0.066-0.633v-0.064c0,0-7.791,7.525-15.528,7.525H59.663z"/>
	<path fill="#333333" d="M63.329,488.967l-0.015-0.012c2.189-0.938,3.705-2.785,3.705-4.959c0-3.084-3.071-5.59-6.841-5.59
		c-0.156,0-0.313,0.004-0.47,0.014c-0.156-0.01-0.314-0.014-0.47-0.014c-3.77,0-6.841,2.506-6.841,5.59
		c0,2.174,1.515,4.021,3.704,4.959l-0.014,0.012c-2.438,2.504-2.794,14.592-2.847,17.375c-0.013,0.367-0.013,0.566-0.013,0.566
		h6.438h0.089h6.436c0,0,0-0.199-0.013-0.566C66.123,503.559,65.767,491.471,63.329,488.967z"/>
	<path fill="#262626" d="M60.177,478.407c-0.171,0-0.342,0-0.514,0.014v28.488h6.525c0,0,0-0.199-0.013-0.566
		c-0.052-2.783-0.409-14.871-2.847-17.375l-0.015-0.012c2.189-0.938,3.705-2.785,3.705-4.959
		C67.018,480.913,63.947,478.407,60.177,478.407z"/>
</g>
</svg>
