<?xml version="1.0" encoding="utf-8"?>
<!-- Generator: Adobe Illustrator 16.0.0, SVG Export Plug-In . SVG Version: 6.00 Build 0)  -->
<!DOCTYPE svg PUBLIC "-//W3C//DTD SVG 1.1//EN" "http://www.w3.org/Graphics/SVG/1.1/DTD/svg11.dtd">
<svg version="1.1" id="Layer_1" xmlns="http://www.w3.org/2000/svg" xmlns:xlink="http://www.w3.org/1999/xlink" x="0px" y="0px"
	 width="556.949px" height="292.562px" viewBox="0 0 556.949 292.562" enable-background="new 0 0 556.949 292.562"
	 xml:space="preserve">
<g>
	<path fill="#010101" d="M183.66,156.942c-0.353-0.027-0.64-0.614-0.646-1.306l0,0l-0.049-8.348
		c-0.002-0.684,0.275-1.239,0.625-1.239l0,0h7.465c0.392,0,0.716,0.586,0.727,1.314l0,0l0.112,8.882
		c0.012,0.742-0.303,1.313-0.697,1.283l0,0L183.66,156.942L183.66,156.942z M190.94,155.742l-0.096-7.954l-7.036-0.083l0.052,7.571
		L190.94,155.742L190.94,155.742z"/>
	<g>
		<path fill="#010101" d="M201.983,196.185c0.007,0.362-0.154,0.611-0.356,0.55l-24.915-8.256c-0.144-0.045-0.256-0.325-0.256-0.63
			l-0.017-34.083c0-0.286,0.114-0.513,0.254-0.504l24.056,1.361c0.196,0.008,0.361,0.293,0.368,0.633L201.983,196.185z"/>
		<path fill="#2B2C2B" d="M202.698,172.478c0.007,0.348-0.155,0.606-0.364,0.579l-27.772-4.65c-0.147-0.023-0.264-0.275-0.264-0.571
			L176,152.177c0-0.286,0.114-0.51,0.26-0.504l25.064,1.103c0.205,0.009,0.376,0.295,0.385,0.636L202.698,172.478z"/>
		<polygon fill="#8FB0C1" points="189,174.045 184.412,173.211 184.378,169.285 188.952,169.995 		"/>
	</g>
	<g>
		<path fill="#DDAC9E" d="M185.98,135.861c-2.034,2.936-4.748,7.91-4.522,10.172c0.225,2.258,2.787,3.02,5.276,5.283
			c2.488,2.258,5.481-0.777,6.382-1.461c0.909-0.672-0.463-0.139-1.369-2.252c-0.905-2.113-4.413-0.211-4.185-1.117
			c0.225-0.901,2.715-1.585,2.715-1.585s0.891,3.844,1.793,4.748c0.906,0.906,2.135,2.411,1.822-0.223
			c-0.532-4.514-0.9-5.877,0-7.687c0.91-1.806,0-6.104,0-7.91c0-1.813-0.9-5.431-0.9-5.431l-7.012-0.45V135.861z"/>
		<polygon fill="#D1E6E8" points="185.45,128.245 184.31,135.58 196.859,137.048 197.186,129.875 		"/>
		<path fill="#0B253F" d="M198.521,54.054c0,0-2.167-0.725-2.783,2.229c-1.757,8.383-4.775,34.328-5.569,35.916
			c-1.071,2.146-7.58,39.359-7.58,39.359l15.65,2.96c0,0,4.208-20.688,6.962-38.422c1.644-10.575-0.226-24.537-0.026-25.339
			C205.714,68.607,198.521,54.054,198.521,54.054z"/>
	</g>
	<path fill="#2B2C2B" d="M262.562,281.523h5.285c0,0,8.487-3.042,3.063-10.577c-3.251-4.514-3.966-7.396-5.29-11.976
		c-0.835-2.896-11.311-0.357-11.311-0.357s2.036,7.932,1.204,10.828C251.898,282.108,262.562,281.523,262.562,281.523z"/>
	<path fill="#1F4D6C" d="M249.013,119.288c3.684,7.361,5.892,27.263,7.422,40.384c1.143,9.75,6.393,33.052,7.472,41.041
		c0.733,5.433,7.095,62.073,7.095,62.073l-19.288,2.865c0,0-11.038-57.647-12.263-62.552c-1.227-4.907-9.813-39.867-9.813-39.867
		s-4.011,41.298-1.556,46.203c2.454,4.904,4.269,51.321,4.269,51.321l-14.619,0.997c0,0-4.347-47.871-5.57-60.138
		c-1.228-12.263-5.29-75.729-5.29-75.729L249.013,119.288z"/>
	<path fill="#010101" d="M219.605,255.079c-1.203,4.824,1.57,9.458-6.224,12.244c-3.595,1.286-9.468,3.9-8.912,7.521
		c0.758,4.913,11.522,3.145,11.522,3.145s12.058-4.819,15.676-4.819c3.616,0,3.616-10.05,2.41-14.872
		C232.874,253.473,219.605,255.079,219.605,255.079z"/>
	<g>
		<g>
			<path fill="#0B253F" d="M212.897,202.69c1.224,12.268,4.509,60.096,4.509,60.096l20.973-1.166c0,0-2.831-46.213-2.598-51.696
				c1.711-40.295-6.025-44.852-6.025-44.852s7.379,36.877,8.604,41.782c1.227,4.907,11.256,59.193,11.256,59.193l13.5-1.787
				c-0.94-9.303-8.506-44.438-11.233-60.784c-1.343-8.076-12.958-61.486-14.087-77.007h-30.294
				C207.503,126.468,211.668,190.425,212.897,202.69z"/>
		</g>
	</g>
	<g>
		<path fill="#DDAC9E" d="M219.363,31.754L217.725,50.1c0,0,3.612,22.338,9.219,24.378c5.603,2.038,11.106-12.548,10.986-16.425
			c-0.122-3.876-1.347-25.179-1.347-25.179L219.363,31.754z"/>
		<g>
			<path fill="#E9C9BB" d="M237.989,59.714c-0.127-3.878-1.354-25.178-1.354-25.178l-7.509-0.49l-3.089,42.535
				C231.618,78.424,238.107,63.552,237.989,59.714z"/>
		</g>
	</g>
	<path fill="#0B253F" d="M216.619,44.866c0,0-5.867,2.479-15.411,7.026c-7.576,3.605-5.005,2.273-5.458,6.368
		c-0.456,4.092,8.543,16.027,9.452,20.574c0.91,4.548-0.834,27.286-1.949,60.974c-0.148,4.544,17.541,5.29,23.387-4.732
		c0-16.821,1.841-56.152,0.929-65.242C227.344,67.568,216.619,44.866,216.619,44.866z"/>
	<polygon fill="#D1E6E8" points="218.662,48.674 218.105,42.546 214.02,45.517 212.45,50.12 216.285,49.293 213.278,52.756 
		226.86,67.209 	"/>
	<path fill="#1F4D6C" d="M241.079,43.311c0,0,4.321,2.143,14.477,6.311c7.758,3.182,5.713,3.404,6.167,7.495
		c0.454,4.098-9.392,27.473-10.3,32.019c-0.907,4.549,5.102,36.287,6.773,48.262c0.402,2.855-32.171,7.517-32.39-3.157
		c0-10.382-0.818-50.283,0.834-66.822C226.865,65.156,241.079,43.311,241.079,43.311z"/>
	<polygon fill="#FFFFFF" points="232.646,51.67 237.406,40.691 244.09,44.404 241.619,51.75 236.203,51.449 237.707,55.363 
		226.456,67.418 	"/>
	<g>
		
			<linearGradient id="SVGID_1_" gradientUnits="userSpaceOnUse" x1="224.8545" y1="37.1714" x2="244.4819" y2="37.1714" gradientTransform="matrix(0.9995 -0.0315 0.0315 0.9995 -8.7785 13.1686)">
			<stop  offset="0" style="stop-color:#FFFFFF"/>
			<stop  offset="0.6429" style="stop-color:#C6C0B9"/>
		</linearGradient>
		<path fill="url(#SVGID_1_)" d="M217.448,28.5c-1.298-3.309,14.744,5.065,19.115,8.115l-16.77,22.009
			c-2.721-0.926-1.56-9.525-2.51-10.666C218.681,45.732,219.741,34.3,217.448,28.5z"/>
	</g>
	<g>
		<path fill="#E9C9BB" d="M238.069,18.69c-1.185-7.902-3.667-14.342-14.98-12.767c-14.145,1.971-11.738,10.468-10.596,20.141
			c1.139,9.677,8.489,19.3,15.714,18.447c5.494-0.653,9.326-7.191,10.333-14.546c1.387-0.999,2.254-3.162,2.069-5.587
			C240.373,21.217,240.167,18.652,238.069,18.69z"/>
		<g>
			<path fill="#DDAC9E" d="M211.911,22.08c-0.219-0.002-0.445-0.005-0.641,0.034c-2.198,0.435-1.692,3.02-1.068,6.203
				c0.54,2.766,2.339,4.807,4.243,5.02c2.918,6.627,8.331,11.75,13.675,11.118c0.24-0.029,0.47-0.092,0.705-0.146L222.882,5.89
				C210.829,7.618,210.926,14.143,211.911,22.08z"/>
		</g>
		<path fill="#30130D" d="M218.088,4.87c-2-0.75-5.466,0.682-7.536,3.227c-1.813,2.239-2.132,4.948-1.731,9.149
			c0.394,4.202,1.437,5.143,1.437,5.143l1.745,0.19l1.42,0.687l-0.045-3.488c0,0-1.51-2.983,1.523-6.436
			c3.032-3.446,8.367-2.603,8.367-2.603L218.088,4.87z"/>
		<path fill="#5E1D17" d="M218.974,10.476c1.562,1.407,2.756,1.668,6.461,0.94c3.71-0.728,7.561,1.089,8.708,2.578
			c1.147,1.485,1.904,5.331,1.904,5.331l2.37-0.643l1.5,0.557c0,0,0.555-7.098-2.591-11.581c-2.376-3.381-3.747-4.54-8.435-5.188
			c-2.125-0.292-9.528-0.917-10.803,2.399C217.483,6.447,218.974,10.476,218.974,10.476z"/>
	</g>
	<g>
		<g>
			<path fill="#FFFFFF" d="M248.818,114.002c-0.019,0.186-0.174,0.322-0.348,0.304l-31.567-3.185
				c-0.177-0.019-0.304-0.182-0.286-0.364l3.777-41.881c0.019-0.183,0.174-0.318,0.346-0.304l31.571,3.184
				c0.172,0.019,0.301,0.182,0.285,0.366L248.818,114.002z"/>
			<g>
				<g>
					<polygon fill="#AEAEAE" points="239.447,78.623 223.376,77 223.453,76.143 239.524,77.765 					"/>
					<polygon fill="#AEAEAE" points="239.318,80.055 223.249,78.433 223.322,77.577 239.396,79.197 					"/>
					<polygon fill="#AEAEAE" points="239.188,81.515 223.115,79.894 223.192,79.041 239.259,80.66 					"/>
					<polygon fill="#AEAEAE" points="239.052,82.974 222.981,81.353 223.061,80.499 239.132,82.119 					"/>
					<polygon fill="#AEAEAE" points="238.92,84.46 222.849,82.842 222.924,81.989 238.996,83.607 					"/>
				</g>
				<g>
					<polygon fill="#AEAEAE" points="238.54,88.669 222.468,87.05 222.543,86.193 238.617,87.814 					"/>
					<polygon fill="#AEAEAE" points="238.41,90.104 222.341,88.482 222.412,87.628 238.488,89.247 					"/>
					<polygon fill="#AEAEAE" points="238.278,91.563 222.208,89.941 222.285,89.087 238.356,90.708 					"/>
					<polygon fill="#AEAEAE" points="238.147,93.022 222.078,91.399 222.153,90.546 238.225,92.167 					"/>
					<polygon fill="#AEAEAE" points="238.013,94.511 221.944,92.888 222.019,92.034 238.088,93.655 					"/>
				</g>
				<g>
					<polygon fill="#AEAEAE" points="246.82,101.404 239.861,100.704 239.936,99.845 246.895,100.547 					"/>
					<polygon fill="#AEAEAE" points="246.688,102.838 239.731,102.138 239.809,101.282 246.768,101.981 					"/>
					<polygon fill="#AEAEAE" points="246.556,104.298 239.6,103.596 239.677,102.744 246.634,103.446 					"/>
					<polygon fill="#AEAEAE" points="246.425,105.757 239.468,105.053 239.543,104.199 246.5,104.9 					"/>
					<polygon fill="#AEAEAE" points="246.293,107.246 239.334,106.545 239.409,105.687 246.368,106.389 					"/>
					<polygon fill="#AEAEAE" points="246.136,108.937 239.179,108.236 239.257,107.379 246.213,108.08 					"/>
				</g>
				<g>
					<polygon fill="#AEAEAE" points="240.778,94.053 241.312,88.14 240.98,88.104 240.416,94.361 246.453,94.968 246.486,94.625 
											"/>
					<g>
						<polygon fill="#E04426" points="246.091,90.791 245.32,90.794 245.499,91.034 243.869,92.226 243.115,91.756 241.347,92.998 
							241.3,93.505 243.143,92.207 243.904,92.678 245.71,91.327 245.894,91.585 						"/>
						<g>
							<g>
								<path fill="#056F9A" d="M241.405,92.389l1.237-2.061c0.019-0.029,0.061-0.043,0.092-0.027l0,0l1.105,0.564l0.491-0.125
									l0.6-1.819c0.009-0.024,0.033-0.043,0.061-0.047l0,0c0.023-0.002,0.049,0.008,0.066,0.034l0,0l0.573,0.93l0.959-0.244
									l0.033,0.145l-1.006,0.254c-0.028,0.004-0.062-0.004-0.08-0.031l0,0l-0.522-0.848l-0.564,1.709
									c-0.004,0.024-0.023,0.042-0.047,0.05l0,0l-0.552,0.141c-0.017,0.005-0.036,0.002-0.05-0.008l0,0l-1.072-0.544l-1.35,2.248
									L241.405,92.389z"/>
								<path fill="#056F9A" d="M246.688,89.91l0.198-0.362c0-0.006,0-0.01,0-0.014c0-0.005-0.005-0.008-0.014-0.011l-0.367-0.081
									c-0.01,0-0.012,0.001-0.019,0.006c-0.002,0.005-0.005,0.011-0.005,0.019l0.174,0.442c0.004,0.007,0.009,0.013,0.016,0.01
									C246.679,89.919,246.688,89.916,246.688,89.91z"/>
							</g>
						</g>
						<g>
							<g>
								<g>
									<g>
										<path fill="#F26622" d="M241.554,93.62h0.004h-0.002l0.383-0.083l0,0h0.005l0.023,0.132l-0.094,0.02l-0.162,0.034l0,0
											l-0.127,0.033L241.554,93.62L241.554,93.62z M242.071,93.509h0.002l0,0l0.383-0.083l0,0l0,0l0.028,0.131l-0.127,0.027l0,0
											l-0.131,0.027l0,0l-0.127,0.027L242.071,93.509L242.071,93.509z M242.588,93.396L242.588,93.396L242.588,93.396
											l0.381-0.081l0,0h0.002l0.026,0.129l-0.127,0.029l0,0l-0.129,0.027l0,0l-0.127,0.029L242.588,93.396L242.588,93.396z
											 M245.343,93.647L245.343,93.647l-0.15-0.066l-0.094-0.042l0.052-0.126l0.002,0.005v-0.005l0.096,0.042l0.023,0.012l0,0
											l0.24,0.107l0,0l0,0l-0.047,0.125L245.343,93.647L245.343,93.647z M243.103,93.286L243.103,93.286L243.103,93.286
											l0.068-0.013l0.061-0.017l0,0l0.16-0.033l0.096-0.019l0.026,0.133l-0.129,0.026l0,0l-0.129,0.027l0,0l-0.125,0.03
											L243.103,93.286L243.103,93.286z M244.977,93.486L244.977,93.486l-0.357-0.16l0,0l-0.005-0.003l0.052-0.123l0.118,0.057
											l0,0l0.125,0.053l0,0l0.12,0.053L244.977,93.486L244.977,93.486L244.977,93.486z M245.503,93.461l0.059-0.098l0.125-0.196
											l0.033-0.046l0.108,0.075l0,0l0,0l-0.146,0.227l0,0l-0.073,0.113L245.503,93.461L245.503,93.461z M243.618,93.173v0.005
											V93.173l0.385-0.079l0,0l0,0l0.031,0.129l-0.129,0.027l0,0l-0.131,0.029l0,0l-0.129,0.027L243.618,93.173L243.618,93.173z
											 M244.492,93.271L244.492,93.271l-0.223-0.098l-0.054,0.013l-0.052,0.011l0,0l0,0l-0.028-0.132l0.125-0.028l0,0
											l0.021-0.003l0.141,0.061l0.004,0.001l0.118,0.051l-0.052,0.127V93.271L244.492,93.271z M245.792,93.006v-0.002l0,0
											l0.214-0.329l0.108,0.075l-0.144,0.219l0,0l-0.03,0.048l-0.038,0.064l0,0v-0.002L245.792,93.006L245.792,93.006z"/>
									</g>
								</g>
								<g>
									<g>
										<path fill="#F26622" d="M245.712,92.573l-0.104-0.063l0.762-0.295l0.033,0.754L245.712,92.573L245.712,92.573z
											 M246.288,92.77l-0.019-0.396l-0.399,0.156L246.288,92.77L246.288,92.77z"/>
									</g>
								</g>
							</g>
						</g>
					</g>
				</g>
				<g>
					<polygon fill="#AEAEAE" points="241.694,83.707 242.207,78.037 241.892,78.003 241.377,83.675 241.352,84 241.667,84.034 
						247.144,84.585 247.175,84.258 					"/>
					<g>
						<polygon fill="#056F9A" points="243.138,83.447 242.188,83.352 242.296,82.152 243.246,82.249 						"/>
						<polygon fill="#F26622" points="244.403,83.576 243.453,83.478 243.648,81.336 244.596,81.433 						"/>
						<polygon fill="#6C8EA5" points="245.658,83.703 244.708,83.605 244.866,81.8 245.823,81.894 						"/>
						<polygon fill="#E04426" points="246.911,83.828 245.964,83.733 246.263,80.397 247.212,80.492 						"/>
					</g>
					<polygon fill="#AEAEAE" points="247.522,78.675 246.688,78.68 246.881,78.94 245.118,80.228 244.304,79.719 242.391,81.063 
						242.341,81.611 244.333,80.211 245.155,80.72 247.106,79.258 247.309,79.537 					"/>
				</g>
				<g>
					<polygon fill="#8FB0C1" points="220.731,106.343 222.755,103.076 223.277,104.176 224.053,102.4 224.424,104.455 
						226.404,100.375 227.123,104.725 228.172,103.381 231.388,105.479 232.789,103.686 234.317,103.193 236.438,100.257 
						237.463,99.877 236.734,107.958 					"/>
				</g>
			</g>
		</g>
	</g>
	<path fill="#010101" d="M187.523,145.933c0,0,2.75-0.326,3.532,0.117c0.784,0.439,0.737,6.429,0.737,6.429l-1.16-0.092
		c0,0,0-5.2-0.512-5.526c-0.684-0.434-2.504-0.185-2.504-0.185L187.523,145.933z"/>
	<g>
		
			<linearGradient id="SVGID_2_" gradientUnits="userSpaceOnUse" x1="223.4258" y1="124.2925" x2="239.9302" y2="75.4622" gradientTransform="matrix(0.9925 -0.1226 0.1226 0.9925 -9.6137 32.6135)">
			<stop  offset="0" style="stop-color:#FFFFFF"/>
			<stop  offset="0.0889" style="stop-color:#F1EFEE"/>
			<stop  offset="0.2666" style="stop-color:#D9D6D1"/>
			<stop  offset="0.4207" style="stop-color:#CBC6BF"/>
			<stop  offset="0.533" style="stop-color:#C6C0B9"/>
		</linearGradient>
		<path fill="url(#SVGID_2_)" d="M238.963,132.731c0.104-0.027,18.119-25.405,18.119-25.405l-14.574-9.669l-14.867-9.089
			l-9.598,4.521l-14.068,26.118c-0.649,6.787,0.765,12.249,0.765,12.249S225.901,134.052,238.963,132.731z"/>
	</g>
	<path fill="#E9C9BB" d="M263.78,94.117c-17.435,1.85-25.442,0.885-25.442,0.885s-2.522-2.03-5.313-4.16
		c-6.362-4.85-6.767-2.312-6.767-2.312l3.95,4.827l-11.487-0.124c0,0-0.768-0.123-1.387,0.485c-1.859,1.832-3.248,5.413,2.779,7.876
		c8.036,3.281,11.134,0.853,18.493,1.571c8.51,0.831,21.145,3.383,25.235,3.372C267.938,106.526,263.78,94.117,263.78,94.117z"/>
	<polygon fill="#FFFFFF" points="246.596,94.89 242.141,94.612 241.923,106.097 248.263,106.862 	"/>
	<path fill="#0B253F" d="M261.565,52.9c3.639,2.274,7.683,22.682,10.156,31.069c3.009,10.226,4.109,16.304,3.216,18.449
		c-4.114,9.885-28.807,5.836-28.807,5.836l-0.186-14.293c0,0,15.145-0.854,14.477-1.857c-2.407-3.611-6.724-10.572-6.496-12.435
		C255.875,63.8,261.565,52.9,261.565,52.9z"/>
</g>
<g>
	<g>
		<path fill="#010101" d="M367.363,282.494l3.376-1.523c0,0-2.698-3.146-3.229-3.042
			C366.969,278.037,367.363,282.494,367.363,282.494z"/>
		<path fill="#091D28" d="M363.691,263.39c-0.555,4.114-1.435,11.644-0.301,17.353c0.338,1.718,4.123,1.704,4.123,1.704
			s-1.607-4.477,4.119,0.917c5.967,5.623,15.568,3.735,17.05,2.896c1.499-0.855,3.258-2.163-0.165-5.558
			c-2.943-2.915-7.933-5.774-9.042-8.482c-1.104-2.694-1.27-11.132-1.27-11.132L363.691,263.39z"/>
	</g>
	<g>
		<polygon fill="#2B2C2B" points="382.852,152.291 380.482,268.539 361.209,268.708 356.634,140.059 381.145,136.218 		"/>
		<g>
			<polygon fill="#010101" points="356.342,146.466 357.048,144.417 368.873,140.643 370.425,163.579 371.36,268.811 
				359.939,269.967 			"/>
		</g>
	</g>
	<g>
		<g>
			<path fill="#010101" d="M349.355,282.881l-3.414-1.587c0,0,2.699-3.146,3.235-3.037
				C349.717,278.363,349.355,282.881,349.355,282.881z"/>
			<path fill="#091D28" d="M353.112,263.818c0.55,4.118,1.42,11.651,0.277,17.359c-0.339,1.716-4.124,1.692-4.124,1.692
				s1.613-4.471-4.123,0.917c-5.981,5.609-15.578,3.71-17.055,2.863c-1.495-0.855-3.253-2.162,0.179-5.558
				c2.938-2.908,7.933-5.76,9.052-8.463c1.104-2.692,1.283-11.135,1.283-11.135L353.112,263.818z"/>
		</g>
		<g>
			<polygon fill="#010101" points="331.972,152.681 334.76,269.713 356.149,269.583 358.867,139.476 334.29,137.395 			"/>
		</g>
	</g>
	<path fill="#E9C9BB" d="M357.96,57.406l-11.567-4.46c0,0,3.169-16.42,3.169-18.073l7.759-0.629V34.24l0.042,0.003l0.038-0.003
		v0.003l7.603,0.379c0,1.646,2.736,16.07,2.736,16.07L357.96,57.406L357.96,57.406L357.96,57.406z"/>
	<g>
		<g>
			
				<linearGradient id="SVGID_3_" gradientUnits="userSpaceOnUse" x1="567.7676" y1="50.1489" x2="561.4669" y2="29.4894" gradientTransform="matrix(-1 0 0 1 920.7031 0)">
				<stop  offset="0" style="stop-color:#FFFFFF"/>
				<stop  offset="0.6703" style="stop-color:#C6C0B9"/>
			</linearGradient>
			<path fill="url(#SVGID_3_)" d="M357.076,34.236V34.23l0.051,0.006l0.048-0.006v0.006l6.657,0.362c0,0.542,0.202,2.359,0.471,4.56
				c-1.674,2.478-10.998,11.675-14.219,11.675c-2.681,0-1.665,2.312-3.371,0.506c0.348-2.713,2.943-16.082,2.943-16.716
				L357.076,34.236z"/>
		</g>
	</g>
	<path fill="#D1E6E8" d="M366.475,43.106c-1.001,1.256-6.253,8.87-9.258,8.549c-3.005-0.316-7.961-6.585-8.957-8.733
		c-0.823,0.897-3.936,3.314-3.936,3.314l13.255,30.896l12.361-29.727L366.475,43.106z"/>
	<g>
		<path fill="#FFFFFF" d="M348.316,42.961c0.996,2.154,5.971,7.575,8.976,7.895c0.085,0,0.268,26.144,0.268,26.144l-13.179-30.724
			C344.381,46.276,347.493,43.856,348.316,42.961z"/>
	</g>
	<g>
		<defs>
			<path id="SVGID_4_" d="M366.648,42.484c-0.992,1.254-6.211,5.299-9.211,4.975c-3.009-0.316-8.003-3.01-8.994-5.154
				c-0.833,0.896-3.94,3.315-3.94,3.315l12.935,31.743l12.672-30.585L366.648,42.484z"/>
		</defs>
		<clipPath id="SVGID_5_">
			<use xlink:href="#SVGID_4_"  overflow="visible"/>
		</clipPath>
		<g clip-path="url(#SVGID_5_)">
			<g>
				<g>
					<polygon fill="#B11F24" points="355.401,55.534 357.598,55.534 357.598,49.789 353.248,49.789 353.211,52.263 					"/>
					<polygon fill="#B11F24" points="355.124,54.66 351.302,90.915 357.354,95.66 357.484,95.531 357.711,54.687 					"/>
					<polygon fill="#CC3333" points="359.276,55.534 357.438,55.534 357.438,49.789 361.896,49.789 361.867,52.263 					"/>
					<polygon fill="#CC3333" points="359.582,54.66 363.414,90.915 357.354,95.66 357.442,54.66 					"/>
				</g>
			</g>
		</g>
	</g>
	<g>
		<g>
			<path fill="#E9C9BB" d="M344.131,23.141c1.266,9.819,7.66,18.537,12.404,18.485c10.683-0.124,12.672-5.992,13.208-18.695
				c0.441-10.529,0.343-20.382-12.573-20.382C345.043,2.549,342.801,12.854,344.131,23.141z"/>
		</g>
		<g>
			<path fill="#DDAC9E" d="M344.348,22.931c0.127-10.047,0.672-20.343,12.752-20.382c0,0,0.211,39.077,0.159,39.077
				C349.007,41.795,344.183,35.914,344.348,22.931z"/>
		</g>
	</g>
	<g>
		<path fill="#5E2115" d="M366.762,25.875l-6.992,0.005l0,0c-0.846-0.005-1.429-0.72-1.429-1.516v-2.44l0,0
			c0-0.791,0.583-1.505,1.429-1.518h6.992l0,0c0.837,0.013,1.434,0.727,1.434,1.518v2.44l0,0
			C368.195,25.161,367.599,25.875,366.762,25.875L366.762,25.875z M367.011,21.925c0-0.222-0.15-0.326-0.249-0.326h-6.992l0,0
			c-0.099,0-0.249,0.104-0.254,0.326v2.44l0,0c0.005,0.213,0.155,0.321,0.254,0.321h6.992l0,0c0.099,0,0.249-0.108,0.249-0.321
			V21.925L367.011,21.925z"/>
		<rect x="354.875" y="21.708" fill="#5E2115" width="4.246" height="1.392"/>
		<polygon fill="#5E2115" points="370.049,21.123 367.806,23.367 367.857,21.364 370.049,19.931 		"/>
		<path fill="#30130D" d="M353.935,25.875h-6.991l0,0c-0.837,0-1.435-0.715-1.435-1.511v-2.448l0,0c0-0.783,0.598-1.497,1.435-1.509
			h6.991l0,0c0.837,0.013,1.435,0.727,1.435,1.509v2.448l0,0C355.369,25.161,354.771,25.875,353.935,25.875L353.935,25.875z
			 M354.188,21.917c-0.005-0.208-0.146-0.317-0.254-0.317h-6.991l0,0c-0.09,0-0.245,0.109-0.245,0.317v2.448l0,0
			c0,0.213,0.155,0.321,0.245,0.321h6.991l0,0c0.108,0,0.249-0.108,0.254-0.321V21.917L354.188,21.917z"/>
		<polygon fill="#30130D" points="345.848,21.265 343.581,19.931 343.685,21.066 345.838,23.367 		"/>
	</g>
	<path fill="#30130D" d="M344.804,23.375c0-2.374,2.158-4.322,1.288-6.053c-0.86-1.728-1.688-3.698-1.081-5.841
		c1.298-4.545,6.493-6.489,8.012-6.921c1.51-0.438,0.217-2.813,0.217-2.813s-2.596-0.648-4.979,0.866
		c-2.38,1.509-4.109,2.593-6.057,6.706c-1.941,4.111-2.158,7.575-1.73,10.167c0.433,2.597,1.293,3.244,1.293,3.244h2.168
		L344.804,23.375z"/>
	<path fill="#5E1D17" d="M352.581,5.64c1.734,2.163,7.941,2.984,9.098,1.297c0.753-1.109,2.205-0.542,3.673,0.218
		c3.301,1.709,4.302,3.65,4.302,6.463c0,2.812-0.409,9.33-0.409,9.33l2.812,0.865c0,0,3.456-4.108,2.812-8.869
		c-0.649-4.758-2.13-4.758-2.784-6.925c-0.648-2.161,0.4-2.161-1.758-4.322c-2.163-2.167-10.166-3.9-12.767-3.677
		c-2.595,0.211-4.979,0.211-5.402,1.51C351.725,2.833,352.581,5.64,352.581,5.64z"/>
	<path fill="#E9C9BB" d="M369.023,22.28c1.434-0.718,2.581-2.008,3.014,0.431c0.428,2.438-0.86,6.022-1.866,7.03
		c-1.002,1.006-2.44,1.294-2.44,0.861C367.73,30.177,369.023,22.28,369.023,22.28z"/>
	<path fill="#DDAC9E" d="M344.86,22.28c-1.43-0.718-2.577-2.008-3.015,0.431c-0.428,2.438,0.86,6.022,1.867,7.03
		c1.006,1.006,2.44,1.294,2.44,0.861C346.153,30.177,344.86,22.28,344.86,22.28z"/>
	<g>
		<path fill="#010101" d="M359.562,149.193c0,0-29.998,0.478-29.998-0.73c0-18.914,4.256-37.146,4.387-41.678
			c0.17-6.026-2.591-22.893-3.456-25.479c-0.869-2.586-9.201-8.629-9.201-8.629s-2.718-17.671,5.242-19.224
			c6.945-1.356,7.147-2.605,19.396-7.78l1.359,4.115c0.052,0.244,0.117,0.457,0.179,0.693c0.141,3.98,0.832,8.828,2.92,13.008
			c2.12,4.245,3.677,9.944,5.76,12.294c2.026,3.225,4.48,2.628,4.48,2.628l0.212,12.756L359.562,149.193L359.562,149.193z"/>
	</g>
	<path fill="#2B2C2B" d="M356.051,149.377l-0.396-72.078c0,0,8.055-9.396,12.362-27.361l-0.287-4.482
		c10.748,5.178,14.247,6.055,21.088,9.086c3.428,1.518,3.202,5.707,3.202,5.707s-6.996,20.403-7.853,22.989
		c-0.865,2.583-2.976,17.67-2.807,23.698c0.104,3.545,3.526,29.627,3.526,41.861L356.051,149.377z"/>
	<path fill="#DDAC9E" d="M350.103,88.485c0,0-9.483-3.318-10.622-3.476c-1.123-0.155-3.149,0.275-5.341,1.301
		c-1.637,0.769-0.602,1.918,1.152,1.643c1.467-0.226,3.169-0.554,3.169-0.554l0.413,0.877l0.01,0.388c0,0-3.226,0.738-3.752,0.837
		c-0.536,0.098-3.108,1.342-3.823,1.555c-1.006,0.304-1.452,1.66,0.175,1.545c1.631-0.122,4.796-0.953,5.858-1.15
		c1.062-0.198,1.321-0.053,1.321-0.053c-2.967,0.579-6.56,1.367-7.345,2.068c-0.79,0.693-0.272,1.514,1.505,1.188
		c1.772-0.335,6.559-1.379,6.559-1.379l-5.581,2.095c0,0-1.363,1.714,1.293,1.223c5.379-1.002,8.601-0.23,9.465-0.472
		C346.487,95.596,353.112,92.865,350.103,88.485z"/>
	<polygon fill="#D1E6E8" points="356.196,49.764 350.605,55.882 347.112,48.407 346.134,45.105 348.076,42.968 	"/>
	<polygon fill="#FFFFFF" points="359.328,49.91 364.345,55.734 368.953,45.591 366.249,42.676 	"/>
	<path fill="#2B2C2B" d="M347.752,42.721c0-0.316-5.487,4.848-5.487,4.848l-0.969,10.119l5.92-0.754l-6.099,5.739l17.435,17.649
		c0,0-8.312-23.75-9.978-28.423C346.539,46.171,347.752,42.721,347.752,42.721z"/>
	<path fill="#010101" d="M367.481,42.721c0-0.316,5.491,4.848,5.491,4.848l0.964,10.119l-5.919-0.754l2.872,3.94l-15.455,17.462
		c0,0,8.929-22.808,10.965-27.323C368.449,46.5,367.481,42.721,367.481,42.721z"/>
	<path fill="#010101" d="M321.882,59.668c-2.337,6.987-0.099,44.272,6.112,49.71c6.211,5.436,38.542,3.495,43.206,1.942
		c-0.39-5.438-0.583-13.98-0.583-13.98l-30.195-5.05l-7.769-29.519L321.882,59.668z"/>
	<polygon fill="#FFFFFF" points="349.355,86.902 348.09,96.625 355.176,97.969 355.176,88.065 	"/>
	<path fill="#010101" d="M391.974,60.249c1.396,4.193,4.278,37.866-1.552,47.185c-1.57,2.52-19.518,0.584-28.837-2.912
		c-9.319-3.496-9.319-3.496-9.319-3.496l1.749-14.563l27.671,3.496l2.327-17.282L391.974,60.249z"/>
	<path fill="#E9C9BB" d="M372.851,88.889c0,0,4.759-9.393,5.591-10.232c0.837-0.837,2.788-1.755,5.242-2.283
		c1.829-0.391,1.698,1.204,0.085,2.08c-1.358,0.732-2.977,1.537-2.977,1.537l-0.827,1.788l-0.174,0.39c0,0,4.579-2.285,5.078-2.537
		c0.508-0.254,3.408-0.842,4.123-1.108c1.025-0.389,2.248,0.457,0.828,1.382c-1.42,0.921-4.557,2.224-5.562,2.727
		c-1.002,0.502-1.119,0.782-1.119,0.782c2.812-1.375,6.281-2.982,7.363-2.899c1.091,0.083,1.176,1.088-0.498,1.927
		c-1.67,0.837-6.277,2.978-6.277,2.978l5.92-1.771c0,0,2.205,0.561-0.297,1.817c-5.078,2.552-6.606,3.755-7.471,4.106
		C379.955,90.344,374.506,89.473,372.851,88.889z"/>
	<polygon fill="#010101" points="368.873,123.361 382.852,128.021 383.144,135.398 369.16,132.195 	"/>
	<polygon fill="#2B2C2B" points="345.853,123.361 331.873,128.021 331.582,135.398 345.565,132.195 	"/>
</g>
<path fill="#2B2C2B" d="M328.234,81.902c0.587,0.875,5.102,11.798,5.388,15.583c0.297,3.79-1.452,8.158-5.092,8.158
	c-3.644,0-10.485-16.458-10.34-17.915C318.336,86.273,328.234,81.902,328.234,81.902z"/>
<path fill="#DDAC9E" d="M258.215,156.487c-1.817,2.628-4.244,7.071-4.042,9.092c0.203,2.022,3.682,5.328,5.906,7.347
	c2.222,2.02,3.708-3.322,4.514-3.933c0.809-0.602-2.539,0.724-3.348-1.167c-0.809-1.888-1.819-1.034-1.615-1.845
	c0.2-0.807,2.424-1.413,2.424-1.413s0.607,6.061,1.411,6.867c0.811,0.809,2.226,1.211,1.824-2.826c-0.404-4.042-0.809-5.252,0-6.867
	c0.806-1.618,0-5.453,0-7.069c0-1.621-0.809-4.855-0.809-4.855l-6.265-0.399V156.487z"/>
<path fill="#010101" d="M266.853,178.75c0,0,0.435-5.532-2.476-5.605c-1.5-0.037-9.249,0.438-10.345,2.333
	c-1.3,2.252-2.741,21.14-3.131,28.324c2.333,0,2.333,0,2.333,0l2.186-25.052l8.196-0.009L266.853,178.75z"/>
<path fill="#010101" d="M255.419,177.222c0,0,4.006,1.533,5.75,1.458c3.353-0.146,4.806-1.819,5.534-0.658
	c0.731,1.168,2.694,44.93,2.257,45.661c-0.437,0.727-0.183,0.875-2.257,0.071c-2.257-0.875-9.15-0.729-11.042,0.292
	c-0.999,0.541-2.236,0.39-2.715-0.292c-1.022-6.698,1.963-43.329,2.252-44.636L255.419,177.222z"/>
<path fill="#010101" d="M259.496,165.354l2.558-0.785c0,0,1.667,15.202,1.084,16.659c-0.585,1.455-3.496,0-3.496,0L259.496,165.354z
	"/>
<polygon fill="#D1E6E8" points="256.002,149.188 254.982,155.742 266.196,157.052 266.488,150.642 "/>
<path fill="#010101" d="M306.299,52.173c1.241,0.827,7.669,2.693,10.151,15.956c0.813,4.324-0.409,17.413-3.31,23.007l-6.009-1.659
	c0,0-0.306-25.603-1.453-29.638c-0.83-2.898-0.83-6.216-0.83-6.216L306.299,52.173z"/>
<g>
	<path fill="#E9C9BB" d="M315.078,202.006c-1.373,8.233,0.277,13.448,0.277,16.744c0,3.301,0.545,15.38-3.296,30.2
		c-3.841,14.83-3.296,16.472-2.196,21.963c1.101,5.497,4.392,10.434,1.65,12.635c-2.75,2.195-10.988,0.543-10.988-6.593
		c0-7.142,0-12.079,0.55-15.37c0.555-3.297-1.095-18.126-1.646-28.01c-0.552-9.883,0.165-13.1-0.552-17.564
		c-1.088-6.872,0.552-14.005,0.552-14.005H315.078z"/>
	<path fill="#2B2C2B" d="M310.503,273.503c1.091,2.474,1.288,8.12-0.64,8.394c-1.918,0.268-8.068-0.865-9.237-10.533
		c-0.317-5.275,0-6.154,0-6.154s-2.542,7.646-1.439,12.31s1.869,5.151,3.517,9.271c1.646,4.116,7.446,6.779,9.369,5.409
		c1.918-1.373,1.509-5.798,0.974-9.646C312.492,278.713,310.503,273.503,310.503,273.503z"/>
</g>
<g>
	<path fill="#DDAC9E" d="M281.111,202.006c1.373,8.233-0.275,13.448-0.275,16.744c0,3.301-0.548,15.38,3.294,30.2
		c3.846,14.83,3.296,16.472,2.195,21.963c-1.098,5.497-4.392,10.434-1.641,12.635c2.741,2.195,10.974,0.543,10.974-6.593
		c0-7.142,0-12.079-0.545-15.37c-0.545-3.297,1.096-18.126,1.646-28.01c0.552-9.883-0.165-13.1,0.552-17.564
		c1.098-6.872-0.552-14.005-0.552-14.005H281.111z"/>
	<path fill="#010101" d="M285.456,274.038c-1.096,2.466-2.092,7.372,0.87,7.859c1.918,0.317,6.691-2.502,8.75-10.85
		c0.433-2.617,0.536-4.806,0.277-6.322c0,0,2.05,8.287,0.957,12.951c-1.1,4.667-1.751,4.809-3.997,8.636
		c-2.767,4.706-8.076,7.109-10.001,5.738c-1.921-1.375-1-7.689,0.451-11.292C283.989,277.708,285.456,274.038,285.456,274.038z"/>
</g>
<g>
	<path fill="#E9C9BB" d="M298.828,74.183l-9.084-8.688c0,0,1.648-12.829,1.648-14.51l6.783-0.362V50.62l0.044,0.003l0.038-0.003
		v0.003l6.794,0.362c0,1.681,1.855,15.431,1.855,15.431L298.828,74.183L298.828,74.183L298.828,74.183z"/>
	<g>
		<path fill="#DDAC9E" d="M291.258,50.985l8.29,1.335l-2.008,19.927l-7.88-7.148C289.659,65.099,291.258,52.666,291.258,50.985z"/>
	</g>
	<g>
		
			<linearGradient id="SVGID_6_" gradientUnits="userSpaceOnUse" x1="44.4722" y1="70.603" x2="37.4851" y2="47.1812" gradientTransform="matrix(-1 0 0 1 337.5781 0)">
			<stop  offset="0" style="stop-color:#FFFFFF"/>
			<stop  offset="0.6429" style="stop-color:#C6C0B9"/>
		</linearGradient>
		<path fill="url(#SVGID_6_)" d="M298.073,50.319v-0.004l0.049,0.004l0.052-0.004v0.004l6.771,0.374c0,0.548,0.207,2.396,0.475,4.63
			c-1.692,2.532-10.006,11.021-13.283,11.021c-2.732,0-0.677,0.938-2.421-0.906c0.357-2.756,1.575-14.107,1.575-14.746
			L298.073,50.319z"/>
	</g>
</g>
<g>
	<g>
		<path fill="#E9C9BB" d="M283.537,39.047c1.291,9.984,9.39,18.503,14.212,18.503c5.381-0.003,12.293-5.472,14.367-18.245
			c1.688-10.494-0.959-20.923-14.099-20.923C285.686,18.383,282.188,28.572,283.537,39.047z"/>
	</g>
	<g>
		<path fill="#DDAC9E" d="M283.537,39.039c-0.921-10.496,2.13-20.607,14.412-20.656v39.138c-0.061,0-0.141,0.026-0.2,0.026
			C292.927,57.547,284.687,52.192,283.537,39.039z"/>
	</g>
</g>
<path fill="#010101" d="M298.153,25.846c-4.048,3.865-10.728,0.609-12.308,7.366c-0.691,2.999-2.24,8.702,0.038,14.502
	c1.416,3.592-4.142-9.117-4.142-9.117s-4.312-13.005,5.863-19.729c4.497-2.968,10.814-1.905,11.068-1.296
	C298.903,18.186,298.153,25.846,298.153,25.846z"/>
<path fill="#2B2C2B" d="M298.146,25.79c3.019,3.392,9.912,0.372,11.355,7.124c0.536,2.409,2.083,10.449,0.423,14.179
	c-2.167,4.884,4.354-9.325,4.354-9.325s3.381-12.823-5.2-18.336c-4.58-2.938-10.847-2.805-10.88-1.94
	C298.17,18.149,298.146,25.79,298.146,25.79z"/>
<g>
	<path fill="#FFFFFF" d="M306.631,63.479c0.402-0.517,4.305,2.255,8.616,2.487c2.078,0.109-5.746,22.077-15.869,25.919
		c-14.952,5.662-18.337-21.162-18.789-23.432c-0.456-2.267,9.282-4.079,9.282-5.208C293.82,65.495,302.848,68.34,306.631,63.479z"/>
	<g>
		<path fill="#D1E6E8" d="M280.641,68.396c-0.451-2.262,9.287-4.078,9.287-5.202c1.161,2.205,4.7,2.699,8.261,2.784l-0.353,26.586
			C287.113,91.396,281.02,70.286,280.641,68.396z"/>
	</g>
</g>
<path fill="#010101" d="M289.029,62.112c-8.454,3.575-12.752,3.398-17.04,6.259c-4.288,2.859-6.611,14.6-6.611,14.6
	s7.918,10.002,8.642,12.149c0.715,2.144,4.403,16.62,4.403,26.792c0,1.455,21.97,0.415,21.97,0.415l-1.817-27.509
	c0,0-6.211-14.054-9.785-28.978L289.029,62.112z"/>
<path fill="#2B2C2B" d="M308.138,63.479c8.473,3.573,10.448,2.031,14.736,4.892c4.297,2.859,8.106,16.924,8.106,16.924
	s-9.963,8.158-10.683,10.305c-0.724,2.143-6.432,21.082-5.812,26.311c0.127,1.033-15.751,1.246-15.751,1.246l-0.741-28.924
	c0,0,6.12-13.118,9.693-28.039L308.138,63.479z"/>
<path fill="#010101" d="M306.252,60.91c0-0.272,4.688,2.967,4.688,2.967l2.394,8.22l-6.507-0.447l4.373,5.106l-13.593,18.062
	c0,0,5.346-24.163,7.039-27.916C306.349,63.146,306.252,60.91,306.252,60.91z"/>
<path fill="#2B2C2B" d="M290.097,60.303c0-0.274-5.412,3.573-5.412,3.573l-0.804,8.399l4.911-0.625l-3.223,3.842l12.425,19.518
	c0,0-2.541-19.297-3.98-23.155C292.095,66.695,290.097,60.303,290.097,60.303z"/>
<path fill="#010101" d="M265.454,82.492c0,0-3.355,26.859-4.312,28.776c-0.959,1.918-8.233,40.681-8.233,40.681l13.983,2.643
	c0,0,3.696-24.682,6.16-40.527c1.467-9.447,2.14-15.026,2.316-15.744C275.85,96.402,265.454,82.492,265.454,82.492z"/>
<g>
	<path fill="#2B2C2B" d="M314.072,122.74c1.265,3.456,8.487,23.076,6.766,42.976c-1.726,19.896-2.882,50.294-2.882,50.294h-22.174
		v-93.239L314.072,122.74z"/>
	<path fill="#010101" d="M278.424,122.327c-1.267,3.457-8.696,23.49-6.971,43.39c1.726,19.896,2.875,50.294,2.875,50.294h22.181
		v-93.239L278.424,122.327z"/>
</g>
<g>
	<polygon fill="#DDAC9E" points="277.568,120.461 295.513,120.461 295.513,123.017 277.726,123.017 	"/>
</g>
<polygon fill="#E9C9BB" points="314.97,120.461 277.568,120.461 277.726,123.017 314.655,123.017 "/>
<g>
	<path fill="#010101" d="M294.549,122.772c0,1.064,0.863,1.924,1.923,1.924h3.033c1.062,0,1.918-0.86,1.918-1.924v-2.073
		c0-1.058-0.856-1.92-1.918-1.92h-3.033c-1.06,0-1.923,0.862-1.923,1.92V122.772z"/>
	<path fill="#FFFFFF" d="M296.472,125.656c-1.594,0-2.882-1.292-2.882-2.884l0,0v-2.077c0-1.588,1.289-2.875,2.882-2.875l0,0h3.033
		c1.589,0,2.878,1.287,2.878,2.875l0,0v2.077c0,1.592-1.281,2.88-2.878,2.884l0,0H296.472L296.472,125.656z M296.472,123.736h3.033
		c0.527,0,0.959-0.43,0.959-0.964l0,0v-2.077c0-0.53-0.433-0.956-0.959-0.96l0,0h-3.033c-0.531,0.004-0.964,0.436-0.964,0.96l0,0
		v2.077C295.508,123.306,295.941,123.736,296.472,123.736L296.472,123.736z"/>
</g>
<path fill="#FFFFFF" d="M290.129,58.796c0,0,3.395,3.686,7.669,7.281c-2.525,2.526-7.476,8.157-7.476,8.157l-3.592-11.847
	L290.129,58.796z"/>
<polygon fill="#FFFFFF" points="297.993,66.077 305.763,73.844 309.934,63.746 306.248,59.668 "/>
<g>
	<linearGradient id="SVGID_7_" gradientUnits="userSpaceOnUse" x1="289.6602" y1="143.0767" x2="305.3889" y2="106.3764">
		<stop  offset="0.3077" style="stop-color:#FFFFFF"/>
		<stop  offset="0.3722" style="stop-color:#F9F9F9"/>
		<stop  offset="0.4591" style="stop-color:#E8E8E8"/>
		<stop  offset="0.5586" style="stop-color:#CCCCCC"/>
		<stop  offset="0.6676" style="stop-color:#A4A4A4"/>
		<stop  offset="0.7842" style="stop-color:#727272"/>
		<stop  offset="0.9054" style="stop-color:#363636"/>
		<stop  offset="1" style="stop-color:#010101"/>
	</linearGradient>
	<polygon opacity="0.5" fill="url(#SVGID_7_)" points="318.219,122.793 301.585,142.196 278.285,123.265 306.304,86.767 	"/>
	<g>
		<g>
			<path fill="#FFFFFF" d="M326.607,93.706L306.925,86.8c-0.651-0.231-1.356,0.134-1.57,0.813l-8.574,26.754
				c-0.216,0.678,0.134,1.417,0.78,1.645l19.685,6.906c0.653,0.228,1.354-0.138,1.57-0.816l8.572-26.754
				C327.604,94.668,327.256,93.932,326.607,93.706z M297.883,113.975c-0.35-0.121-0.541-0.522-0.423-0.891
				c0.118-0.367,0.499-0.567,0.851-0.44c0.348,0.121,0.541,0.522,0.423,0.891C298.612,113.899,298.233,114.099,297.883,113.975z
				 M300.525,103.441c0.113-0.369,0.494-0.568,0.846-0.446c0.353,0.125,0.541,0.522,0.423,0.891
				c-0.12,0.369-0.499,0.565-0.851,0.442C300.596,104.203,300.398,103.807,300.525,103.441z M298.649,111.591
				c-0.355-0.124-0.543-0.521-0.426-0.889c0.115-0.372,0.496-0.57,0.849-0.444c0.353,0.123,0.541,0.522,0.421,0.888
				C299.378,111.515,298.997,111.713,298.649,111.591z M299.435,109.13c-0.353-0.123-0.543-0.521-0.423-0.889
				c0.118-0.368,0.494-0.565,0.851-0.444c0.353,0.125,0.536,0.522,0.421,0.89C300.163,109.055,299.787,109.254,299.435,109.13z
				 M300.22,106.669c-0.348-0.122-0.541-0.522-0.421-0.89c0.115-0.366,0.496-0.563,0.849-0.441c0.353,0.126,0.543,0.52,0.423,0.889
				C300.953,106.595,300.572,106.792,300.22,106.669z M301.76,101.88c-0.353-0.127-0.543-0.522-0.426-0.891s0.496-0.568,0.854-0.444
				c0.348,0.124,0.534,0.52,0.421,0.89C302.488,101.801,302.107,102.001,301.76,101.88z M302.523,99.495
				c-0.353-0.125-0.541-0.523-0.425-0.891c0.12-0.367,0.5-0.566,0.849-0.444c0.353,0.125,0.543,0.525,0.423,0.891
				C303.252,99.42,302.874,99.622,302.523,99.495z M303.299,97.06c-0.353-0.124-0.541-0.52-0.42-0.891
				c0.12-0.367,0.496-0.565,0.849-0.438c0.353,0.121,0.538,0.517,0.423,0.888C304.033,96.987,303.654,97.181,303.299,97.06z
				 M304.08,94.625c-0.348-0.122-0.541-0.522-0.421-0.89c0.115-0.367,0.496-0.567,0.849-0.443c0.353,0.126,0.543,0.524,0.421,0.891
				C304.809,94.549,304.433,94.749,304.08,94.625z M304.86,92.19c-0.353-0.125-0.541-0.522-0.423-0.891
				c0.117-0.366,0.498-0.565,0.851-0.443c0.353,0.124,0.538,0.524,0.42,0.89C305.594,92.115,305.213,92.315,304.86,92.19z
				 M305.641,89.756c-0.353-0.125-0.543-0.523-0.423-0.89c0.118-0.365,0.499-0.565,0.851-0.441c0.353,0.121,0.536,0.518,0.421,0.888
				C306.37,89.682,305.994,89.879,305.641,89.756z"/>
			<path fill="#D1E6E8" d="M306.153,89.175c-0.065,0.216-0.272,0.34-0.46,0.274l-1.681-0.592c-0.183-0.062-0.28-0.289-0.209-0.508
				l0,0c0.07-0.215,0.277-0.338,0.46-0.274l1.684,0.592C306.13,88.73,306.219,88.958,306.153,89.175L306.153,89.175z"/>
			<path fill="#D1E6E8" d="M305.378,91.602c-0.071,0.218-0.273,0.339-0.461,0.274l-1.684-0.592
				c-0.183-0.063-0.275-0.289-0.207-0.508l0,0c0.066-0.215,0.272-0.34,0.458-0.275l1.686,0.592
				C305.354,91.16,305.443,91.384,305.378,91.602L305.378,91.602z"/>
			<path fill="#D1E6E8" d="M304.602,94.027c-0.068,0.215-0.275,0.338-0.458,0.274l-1.688-0.589
				c-0.181-0.065-0.277-0.294-0.205-0.512l0,0c0.07-0.216,0.272-0.338,0.454-0.277l1.686,0.594
				C304.579,93.581,304.67,93.811,304.602,94.027L304.602,94.027z"/>
			<path fill="#D1E6E8" d="M303.821,96.449c-0.066,0.218-0.277,0.343-0.454,0.279l-1.69-0.595c-0.181-0.061-0.275-0.292-0.202-0.509
				l0,0c0.066-0.215,0.271-0.341,0.456-0.276l1.683,0.595C303.803,96.005,303.892,96.235,303.821,96.449L303.821,96.449z"/>
			<path fill="#D1E6E8" d="M303.048,98.875c-0.07,0.216-0.275,0.34-0.458,0.275l-1.688-0.59c-0.183-0.067-0.275-0.295-0.207-0.51
				l0,0c0.071-0.216,0.275-0.34,0.458-0.275l1.686,0.591C303.022,98.431,303.116,98.658,303.048,98.875L303.048,98.875z"/>
			<path fill="#D1E6E8" d="M302.268,101.301c-0.068,0.217-0.271,0.343-0.454,0.275l-1.688-0.59
				c-0.183-0.065-0.277-0.294-0.209-0.508l0,0c0.073-0.216,0.277-0.34,0.458-0.278l1.688,0.595
				C302.246,100.857,302.34,101.083,302.268,101.301L302.268,101.301z"/>
			<path fill="#D1E6E8" d="M301.492,103.727c-0.068,0.215-0.273,0.338-0.458,0.273l-1.688-0.592
				c-0.179-0.062-0.273-0.29-0.205-0.508l0,0c0.068-0.216,0.275-0.339,0.454-0.275l1.693,0.592
				C301.47,103.281,301.564,103.511,301.492,103.727L301.492,103.727z"/>
			<path fill="#D1E6E8" d="M300.716,106.148c-0.073,0.22-0.277,0.343-0.458,0.278l-1.688-0.591
				c-0.179-0.063-0.275-0.293-0.207-0.511l0,0c0.071-0.212,0.277-0.336,0.461-0.271l1.683,0.59
				C300.694,105.708,300.784,105.936,300.716,106.148L300.716,106.148z"/>
			<path fill="#D1E6E8" d="M299.938,108.576c-0.07,0.216-0.272,0.34-0.456,0.277l-1.686-0.592c-0.186-0.062-0.28-0.291-0.209-0.508
				l0,0c0.071-0.219,0.278-0.342,0.457-0.279l1.688,0.595C299.914,108.134,300.008,108.362,299.938,108.576L299.938,108.576z"/>
			<path fill="#D1E6E8" d="M299.157,111.003c-0.066,0.215-0.268,0.34-0.454,0.275l-1.686-0.591c-0.183-0.063-0.277-0.295-0.209-0.51
				l0,0c0.07-0.215,0.28-0.341,0.458-0.276l1.688,0.591C299.141,110.557,299.23,110.786,299.157,111.003L299.157,111.003z"/>
			<path fill="#D1E6E8" d="M298.381,113.426c-0.066,0.217-0.271,0.342-0.456,0.277l-1.688-0.592
				c-0.184-0.064-0.273-0.294-0.207-0.509l0,0c0.075-0.215,0.28-0.341,0.463-0.275l1.681,0.593
				C298.362,112.981,298.454,113.209,298.381,113.426L298.381,113.426z"/>
		</g>
	</g>
</g>
<g>
	<path fill="#E9C9BB" d="M323.179,107.063c-1.815-0.643-7.951-1.76-8.821-2.765c-0.875-1.005-3.272-4.238-4.41-4.844
		c-1.133-0.616-5.177-3.321-5.983-3.159c-0.813,0.166-0.877,0.676-0.059,1.353c0.811,0.673,3.15,3.07,2.503,3.2
		c-0.651,0.133-6.841-2.389-8.014-2.567c-1.933-0.289-1.298,0.765-1.298,0.765l5.37,2.576c0,0-5.722-1.756-6.564-1.756
		s-2.074,0.585-0.776,1.17c1.298,0.578,6.46,3.137,6.46,3.137s-5.468-1.868-6.15-1.897c-0.68-0.029-1.089,0.582,0.865,1.597
		c1.773,0.923,5.351,2.099,5.351,2.099l-5.315,0.124c0,0-1.422,0.455,2.503,1.518c3.922,1.056,11.628,1.538,12.634,1.502
		c1.006-0.033,8.835,2.915,11.524,3.719C325.695,113.633,323.179,107.063,323.179,107.063z"/>
	<polygon fill="#FFFFFF" points="317.899,103.893 313.658,102.828 311.016,111.9 316.3,113.504 	"/>
	<path fill="#2B2C2B" d="M327.896,77.339c3.69,6.409,8.962,23.916,8.854,29.987c-0.112,6.073,0.118,7.316-2.394,7.929
		c-2.501,0.617-14.519,1.409-20.171-0.436c1.411-1.984,1.819-9.614,1.965-12.234c0.084-1.534,9.987-0.422,11.36-0.729
		c0.653-0.147,1.091,0.436,3.085-6.597L327.896,77.339z"/>
</g>
<g>
	<rect x="423.052" y="101.155" fill="#EEF0F0" width="47.356" height="65.85"/>
	<rect x="421.44" y="102.207" fill="#D1E6E8" width="50.44" height="66.129"/>
	<rect x="419.059" y="103.607" fill="#EEF0F0" width="51.979" height="65.849"/>
	<rect x="419.199" y="104.308" fill="#D1E6E8" width="51.279" height="65.849"/>
	<rect x="417.098" y="105.008" fill="#EEF0F0" width="50.718" height="65.849"/>
	<rect x="416.188" y="105.78" fill="#D1E6E8" width="50.439" height="66.128"/>
	<rect x="413.806" y="107.181" fill="#EEF0F0" width="51.979" height="65.848"/>
	<rect x="413.945" y="107.88" fill="#D1E6E8" width="51.278" height="65.85"/>
	<g>
		<g>
			<path fill="#EEF0F0" d="M463.656,176.614c0,0.294-0.233,0.532-0.521,0.532h-52.049c-0.29,0-0.521-0.238-0.521-0.532v-66.646
				c0-0.292,0.23-0.53,0.521-0.53h52.049c0.288,0,0.521,0.237,0.521,0.53V176.614z"/>
			<g>
				<g>
					<rect x="416.632" y="120.943" fill="#AEAEAE" width="26.498" height="1.361"/>
					<rect x="416.632" y="123.227" fill="#AEAEAE" width="26.498" height="1.361"/>
					<rect x="416.632" y="125.55" fill="#AEAEAE" width="26.498" height="1.362"/>
					<rect x="416.632" y="127.872" fill="#AEAEAE" width="26.498" height="1.361"/>
					<rect x="416.632" y="130.239" fill="#AEAEAE" width="26.498" height="1.362"/>
				</g>
				<g>
					<rect x="416.632" y="136.932" fill="#AEAEAE" width="26.498" height="1.363"/>
					<rect x="416.632" y="139.219" fill="#AEAEAE" width="26.498" height="1.361"/>
					<rect x="416.632" y="141.541" fill="#AEAEAE" width="26.498" height="1.362"/>
					<rect x="416.632" y="143.861" fill="#AEAEAE" width="26.498" height="1.361"/>
					<rect x="416.632" y="146.23" fill="#AEAEAE" width="26.498" height="1.361"/>
				</g>
				<g>
					<rect x="447.062" y="155.699" fill="#AEAEAE" width="11.471" height="1.363"/>
					<rect x="447.062" y="157.984" fill="#AEAEAE" width="11.471" height="1.36"/>
					<rect x="447.062" y="160.307" fill="#AEAEAE" width="11.471" height="1.361"/>
					<rect x="447.062" y="162.628" fill="#AEAEAE" width="11.471" height="1.361"/>
					<rect x="447.062" y="164.996" fill="#AEAEAE" width="11.471" height="1.361"/>
					<rect x="447.062" y="167.688" fill="#AEAEAE" width="11.471" height="1.361"/>
				</g>
				<g>
					<polygon fill="#AEAEAE" points="447.577,146.429 447.577,137.021 447.032,137.021 447.032,146.973 456.99,146.973 
						456.99,146.429 					"/>
					<g>
						<polygon fill="#E04426" points="455.778,140.44 454.523,140.568 454.847,140.921 452.36,143.054 451.057,142.437 
							448.355,144.677 448.355,145.484 451.17,143.147 452.486,143.771 455.235,141.348 455.578,141.724 						"/>
						<g>
							<g>
								<path fill="#056F9A" d="M448.362,143.71l1.715-3.449c0.026-0.054,0.091-0.077,0.146-0.057l0,0l1.891,0.711l0.781-0.275
									l0.713-2.959c0.008-0.042,0.043-0.074,0.086-0.085l0,0c0.044-0.01,0.091,0.007,0.116,0.042l0,0l1.077,1.373l1.527-0.535
									l0.076,0.219l-1.604,0.563c-0.047,0.017-0.1,0.002-0.132-0.037l0,0l-0.978-1.25l-0.669,2.786
									c-0.01,0.04-0.037,0.069-0.075,0.083l0,0l-0.881,0.311c-0.025,0.008-0.054,0.008-0.081,0l0,0l-1.832-0.689l-1.871,3.755
									L448.362,143.71z"/>
								<path fill="#056F9A" d="M456.628,138.958l0.263-0.601c0.004-0.01,0.004-0.019,0-0.025c-0.003-0.006-0.012-0.012-0.021-0.012
									l-0.612-0.072c-0.015-0.001-0.023,0.004-0.03,0.012c-0.007,0.009-0.007,0.021-0.003,0.029l0.349,0.672
									c0.005,0.01,0.017,0.015,0.026,0.015C456.611,138.975,456.624,138.968,456.628,138.958z"/>
							</g>
						</g>
						<g>
							<g>
								<g>
									<g>
										<path fill="#F26622" d="M448.787,145.623h0.003h-0.001l0.614-0.193l0,0h0.002l0.062,0.204l-0.152,0.049l-0.259,0.081l0,0
											l-0.205,0.064L448.787,145.623L448.787,145.623z M449.614,145.366L449.614,145.366L449.614,145.366l0.615-0.192l0,0
											l0.002,0l0.063,0.203l-0.203,0.066l0,0l-0.211,0.064l0,0l-0.203,0.062L449.614,145.366L449.614,145.366z M450.439,145.109
											h0.002l0,0l0.615-0.192l0,0h0.001l0.063,0.204l-0.204,0.064l0,0l-0.211,0.065l0,0l-0.203,0.062L450.439,145.109
											L450.439,145.109z M454.978,145.063L454.978,145.063l-0.251-0.079l-0.159-0.051l0.062-0.203l0.002,0.001v-0.001
											l0.16,0.051l0.044,0.013l0,0l0.412,0.13l0,0l0.002,0.001l-0.063,0.203L454.978,145.063L454.978,145.063z M451.267,144.852
											l0.002,0l0,0l0.105-0.034l0.096-0.029l0,0l0.259-0.081l0.154-0.046l0.064,0.203l-0.203,0.062l0,0l-0.211,0.064l0,0
											l-0.204,0.065L451.267,144.852L451.267,144.852z M454.359,144.868L454.359,144.868l-0.617-0.194l0,0l-0.002-0.001
											l0.065-0.203l0.206,0.064l0,0l0.206,0.065l0,0l0.205,0.065L454.359,144.868L454.359,144.868L454.359,144.868z
											 M455.209,144.747l0.086-0.162l0.179-0.333l0.039-0.077l0.189,0.101v0.001l0,0l-0.204,0.381l0,0l-0.1,0.187
											L455.209,144.747L455.209,144.747z M452.091,144.595h0.002l0,0l0.614-0.191l0,0h0.002l0.064,0.203l-0.203,0.062l0,0
											l-0.212,0.064l0,0l-0.202,0.065L452.091,144.595L452.091,144.595z M453.534,144.607L453.534,144.607l-0.382-0.12
											l-0.084,0.027l-0.088,0.028l0,0l0,0l-0.064-0.203l0.207-0.066v0.001l0.03-0.01l0.238,0.076l0,0l0.207,0.064
											L453.534,144.607L453.534,144.607L453.534,144.607z M455.617,143.984l0.001-0.003l0,0l0.299-0.556l0.186,0.102
											l-0.195,0.369l0,0l-0.043,0.083l-0.058,0.104l0,0l-0.003,0.002L455.617,143.984L455.617,143.984z"/>
									</g>
								</g>
								<g>
									<g>
										<path fill="#F26622" d="M455.421,143.308l-0.176-0.076l1.206-0.591l0.157,1.183L455.421,143.308L455.421,143.308z
											 M456.39,143.532l-0.084-0.621l-0.631,0.311L456.39,143.532L456.39,143.532z"/>
									</g>
								</g>
							</g>
						</g>
					</g>
				</g>
				<g>
					<polygon fill="#AEAEAE" points="447.555,129.971 447.555,120.943 447.032,120.943 447.032,129.971 447.032,130.49 
						447.555,130.49 456.585,130.49 456.585,129.971 					"/>
					<g>
						<rect x="448.307" y="127.421" fill="#056F9A" width="1.567" height="1.909"/>
						<rect x="450.394" y="125.918" fill="#F26622" width="1.565" height="3.412"/>
						<rect x="452.462" y="126.458" fill="#6C8EA5" width="1.565" height="2.873"/>
						<rect x="454.529" y="124.022" fill="#E04426" width="1.566" height="5.309"/>
					</g>
					<polygon fill="#AEAEAE" points="456.333,121.111 454.971,121.246 455.319,121.627 452.634,123.935 451.225,123.269 
						448.3,125.691 448.3,126.561 451.347,124.036 452.771,124.711 455.743,122.092 456.112,122.498 					"/>
				</g>
				<g>
					<polygon fill="#8FB0C1" points="416.632,168.999 419.463,163.525 420.473,165.181 421.486,162.251 422.396,165.435 
						425.026,158.687 426.845,165.435 428.363,163.143 433.922,165.944 435.945,162.889 438.373,161.87 441.406,156.905 
						443.023,156.142 443.023,168.999 					"/>
				</g>
			</g>
		</g>
	</g>
</g>
<g>
	<g>
		<path fill="#0B253F" d="M549.299,190.809c0,1.06-0.858,1.919-1.922,1.919h-81.871c-1.06,0-1.92-0.859-1.92-1.919v-50.18
			c0-1.061,0.86-1.918,1.92-1.918h81.871c1.063,0,1.922,0.858,1.922,1.918V190.809z"/>
		<g>
			<g>
				<path fill="#0B253F" d="M556.71,194.095c0,1.125-2.434,2.041-3.657,2.041h-94.481c-1.225,0-3.659-0.916-3.659-2.041H556.71z"/>
				<path fill="#FFFFFF" d="M556.949,194.111c0,0.376-0.43,0.684-0.959,0.684H455.631c-0.528,0-0.959-0.308-0.959-0.684v-2.232
					c0-0.377,0.431-0.685,0.959-0.685H555.99c0.529,0,0.959,0.308,0.959,0.685V194.111z"/>
			</g>
			<g>
				<path fill="#0B253F" d="M550.987,193.058c0,0.14-0.109,0.227-0.209,0.227h-7.057c-0.101,0-0.154-0.087-0.154-0.227l0,0
					c0-0.14,0.079-0.199,0.181-0.199h7.06C550.904,192.859,550.987,192.918,550.987,193.058L550.987,193.058z"/>
				<path fill="#6C8EA5" d="M550.793,192.75H543.8c-0.197,0-0.357,0.102-0.357,0.3c0,0.196,0.132,0.329,0.331,0.329h6.992
					c0.195,0,0.385-0.133,0.385-0.329C551.15,192.851,550.991,192.75,550.793,192.75z M550.76,193.191
					c-0.006,0-0.016,0.001-0.024,0.001h-6.935c-0.094,0-0.142-0.049-0.142-0.143c0-0.091,0.068-0.106,0.155-0.111
					c0.004,0,0.01-0.003,0.014-0.003h6.938c0.094,0,0.172,0.02,0.172,0.114C550.938,193.137,550.842,193.177,550.76,193.191z"/>
			</g>
			<g>
				<g>
					<circle fill="#6C8EA5" cx="463.135" cy="193.064" r="0.571"/>
					<circle fill="#0B253F" cx="463.134" cy="193.064" r="0.367"/>
				</g>
				<g>
					<circle fill="#6C8EA5" cx="461.213" cy="193.064" r="0.57"/>
					<circle fill="#0B253F" cx="461.214" cy="193.064" r="0.366"/>
				</g>
			</g>
		</g>
		<path fill="#FFFFFF" d="M544.688,187.129c0,0.208-0.168,0.375-0.375,0.375h-76.048c-0.207,0-0.373-0.167-0.373-0.375v-42.932
			c0-0.207,0.166-0.375,0.373-0.375h76.048c0.207,0,0.375,0.167,0.375,0.375V187.129z"/>
		<path fill="#6C8EA5" d="M544.703,143.597h-76.521c-0.2,0-0.363,0.167-0.363,0.37v43.503c0,0.205,0.163,0.37,0.363,0.37h76.521
			c0.201,0,0.364-0.165,0.364-0.37v-43.503C545.067,143.764,544.904,143.597,544.703,143.597z M544.588,186.873
			c0,0.198-0.157,0.36-0.354,0.36H468.65c-0.196,0-0.354-0.163-0.354-0.36v-42.476c0-0.199,0.157-0.359,0.354-0.359h75.584
			c0.196,0,0.354,0.16,0.354,0.359V186.873z"/>
		<g>
			<g>
				<polygon fill="#6C8EA5" points="472.817,184.669 472.817,172.56 473.09,172.56 473.09,184.396 492.35,184.396 492.35,184.669 
					472.817,184.669 				"/>
				<g>
					<polygon fill="#6C8EA5" points="472.353,172.766 473.53,172.766 472.978,171.796 					"/>
					<polygon fill="#6C8EA5" points="492.331,185.145 492.331,183.967 493.299,184.522 					"/>
				</g>
			</g>
			<g>
				<g>
					<rect x="488.507" y="173.9" fill="#A65997" width="1.026" height="9.401"/>
					<rect x="489.533" y="179.591" fill="#33AFCC" width="1.024" height="3.711"/>
					<rect x="490.521" y="178.54" fill="#6C8EA5" width="1.028" height="4.762"/>
				</g>
				<g>
					<rect x="481.237" y="180.438" fill="#6C8EA5" width="1.028" height="2.863"/>
					<rect x="479.189" y="178.991" fill="#A65997" width="1.023" height="4.311"/>
					<rect x="480.213" y="176.596" fill="#33AFCC" width="1.024" height="6.706"/>
				</g>
				<g>
					<rect x="485.989" y="178.76" fill="#6C8EA5" width="1.022" height="4.542"/>
					<rect x="483.939" y="178.794" fill="#A65997" width="1.024" height="4.507"/>
					<rect x="484.964" y="176.902" fill="#33AFCC" width="1.025" height="6.4"/>
				</g>
				<g>
					<rect x="475.568" y="179.113" fill="#33AFCC" width="1.023" height="4.189"/>
					<rect x="476.559" y="178.229" fill="#6C8EA5" width="1.024" height="5.072"/>
					<rect x="474.542" y="175.971" fill="#A65997" width="1.026" height="7.331"/>
				</g>
			</g>
		</g>
		<path fill="#6C8EA5" d="M541.137,172.885l-0.536-0.289c0.037-0.187,0.054-0.383,0.046-0.583c-0.008-0.234-0.049-0.458-0.113-0.671
			l0.519-0.33c0.057-0.037,0.079-0.112,0.051-0.165l-0.181-0.381c-0.025-0.057-0.092-0.086-0.16-0.065l-0.598,0.197
			c-0.219-0.304-0.503-0.558-0.826-0.742l0.179-0.644c0.016-0.068-0.016-0.139-0.075-0.156l-0.389-0.164
			c-0.056-0.028-0.128-0.001-0.164,0.059l-0.343,0.608c-0.003,0.001-0.003,0.003-0.003,0.003c-0.189-0.036-0.382-0.052-0.578-0.045
			c-0.184,0.008-0.361,0.032-0.53,0.075c-0.004-0.004-0.004-0.008-0.007-0.013l-0.391-0.577c-0.038-0.059-0.113-0.08-0.166-0.047
			l-0.375,0.19c-0.057,0.024-0.087,0.095-0.06,0.163l0.221,0.62c-0.333,0.214-0.611,0.502-0.818,0.839l-0.651-0.163
			c-0.068-0.016-0.136,0.02-0.153,0.08l-0.15,0.391c-0.028,0.056,0,0.128,0.061,0.161l0.583,0.314
			c-0.047,0.21-0.065,0.428-0.058,0.651c0.007,0.192,0.036,0.377,0.08,0.555l-0.554,0.354c-0.06,0.036-0.082,0.112-0.051,0.167
			l0.179,0.377c0.025,0.059,0.096,0.087,0.162,0.065l0.603-0.198c0.226,0.344,0.527,0.629,0.885,0.834l-0.142,0.584
			c-0.018,0.068,0.019,0.136,0.076,0.154l0.395,0.15c0.053,0.026,0.128-0.003,0.16-0.063l0.285-0.535
			c0.195,0.038,0.399,0.056,0.605,0.047c0.189-0.006,0.377-0.034,0.557-0.08l0.318,0.503c0.037,0.058,0.112,0.081,0.166,0.049
			l0.381-0.177c0.058-0.021,0.086-0.092,0.065-0.158l-0.178-0.548c0.356-0.231,0.649-0.544,0.854-0.911l0.572,0.142
			c0.069,0.017,0.14-0.018,0.159-0.076l0.15-0.391C541.227,172.99,541.197,172.917,541.137,172.885z M538.124,173.938
			c-1.01,0.037-1.859-0.75-1.899-1.761c-0.037-1.011,0.754-1.863,1.765-1.901c1.013-0.037,1.862,0.754,1.897,1.765
			C539.927,173.051,539.136,173.902,538.124,173.938z M538.004,170.645c-0.807,0.031-1.438,0.709-1.406,1.517
			c0.029,0.807,0.707,1.439,1.515,1.408c0.808-0.03,1.438-0.709,1.405-1.516C539.485,171.247,538.81,170.617,538.004,170.645z
			 M538.078,172.646c-0.297,0.01-0.546-0.221-0.559-0.518c-0.01-0.297,0.222-0.546,0.518-0.558c0.297-0.01,0.547,0.221,0.56,0.519
			C538.607,172.386,538.375,172.635,538.078,172.646z"/>
		<path fill="#33AFCC" d="M530.385,170.352c-0.312-0.018-0.589,0.151-0.729,0.41c-0.212,0.027-0.349-0.104-0.384-0.143
			c-0.349-0.344-0.563-0.953-0.524-1.629c0-0.039,0.004-0.073,0.01-0.11c-0.015-0.032-0.068-0.009-0.104,0l-1.094,0.338
			c0,0-0.324,0.077-0.327,0.3c-0.006,0.118,0.048,0.224,0.142,0.275l0.018,0.013c0.167,0.152,0.244,0.364,0.232,0.606
			c-0.025,0.431-0.391,0.759-0.821,0.734c-0.431-0.023-0.757-0.391-0.734-0.822c0.005-0.049,0.005-0.077,0.023-0.145
			c0.019-0.063,0.031-0.082,0.038-0.128c0.022-0.168-0.081-0.345-0.223-0.323l-1.364,0.421c-0.045,0.015-0.131,0.053-0.103,0.094
			c0.271,0.266,0.454,0.868,0.475,1.592c0,0.037,0.031,0.266-0.331,0.248c-0.063-0.022-0.134-0.039-0.207-0.042
			c-0.428-0.023-0.796,0.305-0.819,0.733c-0.025,0.43,0.304,0.798,0.733,0.82c0.283,0.018,0.542-0.123,0.688-0.343
			c0.233-0.003,0.418,0.172,0.439,0.199c0.234,0.291,0.389,0.844,0.41,1.501c0,0.077,0.117,0.098,0.194,0.077l1.344-0.415
			c0,0,0.078-0.036,0.08-0.13c0.002-0.074-0.018-0.131-0.122-0.165c-0.219-0.083-0.354-0.396-0.34-0.68
			c0.024-0.428,0.392-0.757,0.821-0.734c0.43,0.025,0.758,0.393,0.735,0.822c-0.006,0.068-0.019,0.132-0.037,0.193
			c-0.015,0.025-0.021,0.053-0.021,0.084c-0.01,0.106,0.061,0.176,0.153,0.202c0.019,0.004,0.055-0.003,0.055-0.003l1.441-0.446
			c0.021-0.006,0.049-0.016,0.04-0.029c-0.311-0.355-0.49-0.92-0.454-1.555c0-0.026,0.021-0.126,0.043-0.163
			c0.045-0.106,0.163-0.175,0.315-0.18c0.065,0.021,0.183,0.054,0.253,0.057c0.431,0.025,0.766-0.285,0.788-0.715
			C531.142,170.745,530.817,170.376,530.385,170.352z"/>
		<rect x="472.273" y="146.722" fill="#0B253F" width="47.896" height="3.358"/>
		<g>
			<rect x="472.273" y="152.962" fill="#AEAEAE" width="19.398" height="1.153"/>
			<rect x="472.273" y="154.37" fill="#AEAEAE" width="19.398" height="1.152"/>
			<rect x="472.273" y="155.811" fill="#AEAEAE" width="19.398" height="1.151"/>
			<rect x="472.273" y="157.25" fill="#AEAEAE" width="19.398" height="1.151"/>
			<rect x="472.273" y="158.728" fill="#AEAEAE" width="19.398" height="1.153"/>
		</g>
		<g>
			<rect x="472.273" y="162.962" fill="#AEAEAE" width="19.398" height="1.152"/>
			<rect x="472.273" y="164.37" fill="#AEAEAE" width="19.398" height="1.151"/>
			<rect x="472.273" y="165.811" fill="#AEAEAE" width="19.398" height="1.151"/>
			<rect x="472.273" y="167.247" fill="#AEAEAE" width="19.398" height="1.152"/>
			<rect x="472.273" y="168.728" fill="#AEAEAE" width="19.398" height="1.15"/>
		</g>
		<g>
			<rect x="522.671" y="148.608" fill="#AEAEAE" width="19.397" height="1.152"/>
			<rect x="522.671" y="150.015" fill="#AEAEAE" width="19.397" height="1.15"/>
			<rect x="522.671" y="151.456" fill="#AEAEAE" width="19.397" height="1.152"/>
			<rect x="522.671" y="152.896" fill="#AEAEAE" width="19.397" height="1.149"/>
			<rect x="522.671" y="154.373" fill="#AEAEAE" width="19.397" height="1.151"/>
		</g>
		<g>
			<rect x="522.671" y="157.814" fill="#AEAEAE" width="19.397" height="1.151"/>
			<rect x="522.671" y="159.223" fill="#AEAEAE" width="19.397" height="1.151"/>
			<rect x="522.671" y="160.664" fill="#AEAEAE" width="19.397" height="1.15"/>
			<rect x="522.671" y="162.101" fill="#AEAEAE" width="19.397" height="1.151"/>
			<rect x="522.671" y="163.581" fill="#AEAEAE" width="19.397" height="1.15"/>
			<rect x="522.671" y="165.021" fill="#AEAEAE" width="19.397" height="1.152"/>
		</g>
		<path fill="#6C8EA5" d="M504.746,159.543c0-0.018-0.004-0.037-0.014-0.055c-0.032-0.266-0.146-1.083-0.285-1.24
			c-0.471-0.533-1.473-0.875-1.562-0.917c-0.05-0.025-0.147-0.182-0.207-0.337c0.157-0.155,0.284-0.364,0.366-0.61
			c0.14-0.086,0.229-0.408,0.229-0.616c0-0.145-0.043-0.202-0.113-0.225c0.015-0.293,0.059-0.604-0.048-0.82
			c-0.204-0.409-0.77-0.662-1.153-0.662c-0.372,0-0.842,0.216-1.049,0.599c-0.125,0.236-0.061,0.544-0.045,0.862
			c-0.078,0.021-0.126,0.076-0.126,0.229c0,0.226,0.102,0.582,0.261,0.632c0.086,0.229,0.207,0.429,0.355,0.584
			c-0.06,0.162-0.165,0.337-0.22,0.363c-0.086,0.042-1.091,0.384-1.562,0.917c-0.138,0.157-0.252,0.974-0.287,1.24
			c-0.006,0.018-0.012,0.037-0.012,0.055c0,0.004,0.003,0.011,0.003,0.017c0,0.009-0.003,0.013-0.003,0.013h0.004
			c0.066,0.346,1.263,0.62,2.732,0.62c1.468,0,2.666-0.274,2.73-0.62h0.004c0,0,0-0.004-0.002-0.013
			C504.744,159.554,504.746,159.548,504.746,159.543z M501.243,158.207l-0.038-0.712l0.209-0.334l0.489,0.393l-0.009,0l-0.151,0.167
			l0.141,0.292l-0.089,0.455l-0.274-0.532L501.243,158.207z M502.792,158.195l-0.264-0.281l-0.238,0.556l-0.104-0.441l0.142-0.325
			l-0.15-0.174l0.431-0.383l0.207,0.336L502.792,158.195z"/>
		<g>
			<g>
				<g>
					<g>
						<path fill="#6C8EA5" d="M511.615,156.766c0.11-0.108,0.197-0.253,0.254-0.422c0.097-0.06,0.157-0.281,0.157-0.425
							c0-0.1-0.029-0.14-0.077-0.156c0.012-0.203,0.038-0.417-0.033-0.564c-0.141-0.285-0.532-0.46-0.798-0.46
							c-0.257,0-0.579,0.151-0.722,0.413c-0.089,0.164-0.043,0.377-0.033,0.595c-0.054,0.016-0.085,0.054-0.085,0.16
							c0,0.155,0.069,0.401,0.179,0.437c0.06,0.159,0.143,0.297,0.245,0.402c-0.04,0.113-0.115,0.234-0.153,0.251
							c-0.059,0.03-0.753,0.267-1.076,0.635c-0.096,0.108-0.174,0.67-0.197,0.857c-0.005,0.011-0.009,0.024-0.009,0.038
							c0,0.003,0.002,0.006,0.002,0.009c0,0.006-0.002,0.009-0.002,0.009h0.002c0.041,0.227,0.731,0.409,1.671,0.427
							c-0.001,0.004,0.004-0.027,0.004-0.027c0.058-0.339,0.139-0.7,0.231-0.804c0.005-0.002,0.022-0.024,0.034-0.037h0.002
							c0.329-0.353,0.868-0.627,1.232-0.787c-0.309-0.185-0.644-0.3-0.687-0.322C511.726,156.979,511.657,156.871,511.615,156.766z
							 M511.073,157.152l-0.103,0.114l0.099,0.202l-0.063,0.313l-0.188-0.367l-0.195,0.186l-0.022-0.49l0.143-0.232l0.336,0.274
							H511.073z M511.693,157.595l-0.183-0.195l-0.161,0.383l-0.077-0.301l0.102-0.226l-0.104-0.121l0.296-0.266l0.146,0.233
							L511.693,157.595z"/>
					</g>
				</g>
				<g>
					<g>
						<path fill="#6C8EA5" d="M518.18,158.527c0-0.014-0.004-0.027-0.007-0.038c-0.024-0.187-0.105-0.75-0.2-0.857
							c-0.324-0.369-1.02-0.605-1.075-0.635c-0.037-0.017-0.105-0.125-0.147-0.231c0.11-0.108,0.197-0.253,0.256-0.422
							c0.096-0.06,0.156-0.281,0.156-0.425c0-0.1-0.028-0.14-0.078-0.156c0.011-0.203,0.042-0.417-0.033-0.564
							c-0.139-0.285-0.531-0.46-0.797-0.46c-0.255,0-0.58,0.151-0.722,0.413c-0.089,0.164-0.044,0.377-0.033,0.595
							c-0.056,0.016-0.087,0.054-0.087,0.16c0,0.155,0.07,0.401,0.181,0.437c0.059,0.159,0.143,0.297,0.244,0.402
							c-0.04,0.113-0.114,0.234-0.151,0.251c-0.04,0.022-0.392,0.142-0.707,0.34c0.376,0.165,0.929,0.443,1.246,0.806
							c0.094,0.104,0.172,0.492,0.229,0.831c0.938-0.019,1.683-0.201,1.726-0.427h0.001c0,0,0-0.003-0.001-0.009
							C518.179,158.533,518.18,158.53,518.18,158.527z M516.211,157.152l-0.103,0.114l0.096,0.2l-0.064,0.313l-0.186-0.365
							l-0.193,0.186l-0.027-0.49l0.144-0.232l0.339,0.274H516.211z M516.828,157.595l-0.179-0.195l-0.166,0.384l-0.07-0.303
							l0.097-0.226l-0.102-0.121l0.292-0.266l0.146,0.233L516.828,157.595z"/>
					</g>
				</g>
				<g>
					<g>
						<path fill="#6C8EA5" d="M516.445,159.543c0-0.018-0.004-0.037-0.011-0.055c-0.034-0.268-0.153-1.083-0.287-1.24
							c-0.472-0.533-1.476-0.875-1.562-0.917c-0.05-0.025-0.146-0.182-0.208-0.337c0.156-0.155,0.285-0.366,0.368-0.61
							c0.137-0.086,0.226-0.407,0.226-0.617c0-0.144-0.042-0.203-0.108-0.224c0.013-0.293,0.057-0.604-0.051-0.82
							c-0.205-0.409-0.77-0.662-1.154-0.662c-0.368,0-0.84,0.216-1.045,0.599c-0.129,0.236-0.062,0.544-0.049,0.862
							c-0.076,0.021-0.124,0.076-0.124,0.228c0,0.226,0.101,0.583,0.26,0.633c0.088,0.229,0.208,0.429,0.354,0.584
							c-0.057,0.162-0.163,0.334-0.218,0.363c-0.087,0.042-1.091,0.384-1.561,0.917c-0.138,0.157-0.253,0.973-0.29,1.24
							c-0.004,0.018-0.01,0.037-0.01,0.055c0,0.004,0.001,0.011,0.001,0.017c0,0.009-0.001,0.013-0.001,0.013h0.003
							c0.065,0.346,1.266,0.62,2.732,0.62c1.469,0,2.668-0.274,2.734-0.62h0.001c0,0,0-0.004-0.001-0.013
							C516.445,159.554,516.445,159.548,516.445,159.543z M512.939,158.206l-0.034-0.711l0.206-0.334l0.488,0.393l-0.007,0
							l-0.15,0.165l0.143,0.293l-0.089,0.454l-0.275-0.532L512.939,158.206z M514.49,158.195l-0.263-0.281l-0.238,0.556
							l-0.104-0.441l0.141-0.325l-0.146-0.174l0.427-0.383l0.209,0.336L514.49,158.195z"/>
					</g>
				</g>
			</g>
		</g>
		<g>
			<rect x="512.55" y="162.603" fill="#6C8EA5" width="6.04" height="3.571"/>
			<g>
				<g>
					<path fill="#A65997" d="M509.828,162.603h2.693c0.097,0,0.178,0.082,0.178,0.179v3.214c0,0.098-0.081,0.178-0.178,0.178h-3.214
						c-0.099,0-0.181-0.08-0.181-0.178v-2.691L509.828,162.603z"/>
					<path fill="#8BD7F8" d="M509.71,163.305c0.066,0,0.12-0.054,0.12-0.12v-0.582l-0.703,0.702H509.71z"/>
				</g>
				<g>
					<g>
						<path fill="#D1E6E8" d="M510.327,164.334c0.034-0.031,0.06-0.075,0.077-0.128c0.03-0.018,0.048-0.086,0.048-0.132
							c0-0.03-0.009-0.042-0.022-0.047c0.004-0.062,0.012-0.128-0.009-0.174c-0.046-0.087-0.167-0.141-0.246-0.141
							c-0.08,0-0.178,0.046-0.223,0.126c-0.026,0.051-0.014,0.116-0.011,0.183c-0.016,0.006-0.027,0.018-0.027,0.049
							c0,0.049,0.024,0.124,0.054,0.135c0.021,0.048,0.046,0.092,0.078,0.124c-0.015,0.034-0.035,0.07-0.046,0.078
							c-0.019,0.008-0.203,0.081-0.301,0.195c-0.032,0.034-0.056,0.206-0.062,0.264c-0.002,0.003-0.002,0.006-0.002,0.01
							c0,0.001,0,0.002,0,0.002c0,0.004,0,0.005,0,0.005l0,0c0.013,0.069,0.12,0.126,0.41,0.131c-0.003,0.001,0-0.008,0-0.008
							c0.02-0.104,0.04-0.199,0.081-0.248l0.017-0.017c0.102-0.108,0.305-0.194,0.417-0.243c-0.094-0.058-0.176-0.087-0.189-0.093
							C510.361,164.401,510.341,164.37,510.327,164.334z M510.161,164.455l-0.032,0.036l0.029,0.061l-0.021,0.099l-0.058-0.114
							l-0.06,0.058l-0.008-0.151l0.047-0.07L510.161,164.455L510.161,164.455z M510.352,164.591l-0.056-0.059l-0.051,0.118
							l-0.023-0.093l0.03-0.069l-0.031-0.038l0.09-0.081l0.045,0.073L510.352,164.591z"/>
						<path fill="#D1E6E8" d="M512.194,164.877c0-0.004,0-0.007-0.003-0.01c-0.007-0.058-0.033-0.23-0.062-0.264
							c-0.1-0.114-0.282-0.187-0.301-0.195c-0.013-0.007-0.031-0.039-0.044-0.074c0.031-0.031,0.061-0.075,0.076-0.128
							c0.031-0.018,0.048-0.086,0.048-0.132c0-0.03-0.005-0.042-0.023-0.047c0.007-0.062,0.014-0.128-0.011-0.174
							c-0.041-0.087-0.161-0.141-0.244-0.141c-0.078,0-0.179,0.046-0.223,0.126c-0.027,0.051-0.014,0.116-0.01,0.183
							c-0.018,0.006-0.026,0.018-0.026,0.049c0,0.049,0.021,0.124,0.056,0.135c0.018,0.048,0.044,0.092,0.074,0.124
							c-0.011,0.034-0.035,0.07-0.047,0.078c-0.012,0.005-0.096,0.034-0.193,0.094c0.128,0.047,0.32,0.144,0.419,0.253
							c0.04,0.044,0.063,0.134,0.085,0.257c0.287-0.006,0.414-0.059,0.429-0.128l0,0c0,0,0,0,0-0.004
							C512.194,164.881,512.194,164.879,512.194,164.877z M511.617,164.455l-0.032,0.036l0.03,0.061l-0.019,0.099l-0.058-0.114
							l-0.06,0.058l-0.008-0.151l0.043-0.07l0.104,0.083H511.617z M511.808,164.591l-0.056-0.059l-0.052,0.118l-0.021-0.094
							l0.031-0.069l-0.034-0.038l0.093-0.081l0.044,0.073L511.808,164.591z"/>
						<path fill="#D1E6E8" d="M511.752,165.192c0-0.006,0-0.011-0.003-0.019c-0.012-0.083-0.045-0.333-0.087-0.382
							c-0.147-0.164-0.457-0.269-0.481-0.282c-0.02-0.008-0.044-0.057-0.065-0.104c0.046-0.047,0.089-0.111,0.114-0.188
							c0.04-0.026,0.069-0.125,0.069-0.189c0-0.044-0.013-0.062-0.036-0.069c0.005-0.09,0.019-0.186-0.014-0.251
							c-0.063-0.126-0.236-0.205-0.354-0.205c-0.114,0-0.259,0.066-0.323,0.184c-0.038,0.073-0.021,0.168-0.015,0.267
							c-0.023,0.006-0.037,0.023-0.037,0.069c0,0.069,0.029,0.18,0.08,0.194c0.025,0.072,0.064,0.134,0.109,0.181
							c-0.021,0.05-0.052,0.104-0.068,0.112c-0.027,0.013-0.337,0.118-0.479,0.282c-0.044,0.049-0.081,0.3-0.089,0.382
							c-0.001,0.007-0.004,0.012-0.004,0.019c0,0.002,0,0.002,0,0.004c0,0.002,0,0.003,0,0.003l0,0
							c0.02,0.106,0.392,0.191,0.84,0.191c0.455,0,0.824-0.085,0.844-0.191l0,0c0,0,0-0.001,0-0.003
							C511.752,165.195,511.752,165.195,511.752,165.192z M510.674,164.78l-0.012-0.22l0.064-0.104l0.15,0.123h-0.001l-0.047,0.049
							l0.041,0.092l-0.027,0.138l-0.084-0.165L510.674,164.78z M511.148,164.777l-0.078-0.087l-0.074,0.171l-0.032-0.136l0.043-0.1
							l-0.044-0.053l0.13-0.119l0.063,0.104L511.148,164.777z"/>
					</g>
				</g>
			</g>
			<g>
				<rect x="513.671" y="163.609" fill="#D1E6E8" width="3.873" height="0.277"/>
				<rect x="513.671" y="164.07" fill="#D1E6E8" width="3.873" height="0.276"/>
				<rect x="513.671" y="164.532" fill="#D1E6E8" width="3.873" height="0.276"/>
				<rect x="513.671" y="165.002" fill="#D1E6E8" width="3.873" height="0.278"/>
			</g>
		</g>
		<g>
			<g>
				<rect x="497.42" y="169.156" fill="#0B253F" width="10.072" height="1.151"/>
				<rect x="497.42" y="170.562" fill="#AEAEAE" width="10.072" height="1.152"/>
				<rect x="497.42" y="172.003" fill="#AEAEAE" width="10.072" height="1.151"/>
				<rect x="497.42" y="173.441" fill="#AEAEAE" width="10.072" height="1.151"/>
				<rect x="497.42" y="174.919" fill="#AEAEAE" width="10.072" height="1.153"/>
			</g>
			<g>
				<rect x="509.056" y="169.156" fill="#0B253F" width="10.07" height="1.151"/>
				<rect x="509.056" y="170.562" fill="#AEAEAE" width="10.07" height="1.152"/>
				<rect x="509.056" y="172.003" fill="#AEAEAE" width="10.07" height="1.151"/>
				<rect x="509.056" y="173.441" fill="#AEAEAE" width="10.07" height="1.151"/>
				<rect x="509.056" y="174.919" fill="#AEAEAE" width="10.07" height="1.153"/>
			</g>
			<g>
				<rect x="497.42" y="177.6" fill="#AEAEAE" width="10.072" height="1.151"/>
				<rect x="497.42" y="179.007" fill="#AEAEAE" width="10.072" height="1.154"/>
				<rect x="497.42" y="180.45" fill="#AEAEAE" width="10.072" height="1.151"/>
				<rect x="497.42" y="181.886" fill="#AEAEAE" width="10.072" height="1.152"/>
				<rect x="497.42" y="183.366" fill="#AEAEAE" width="10.072" height="1.151"/>
			</g>
			<g>
				<rect x="509.056" y="177.6" fill="#AEAEAE" width="10.07" height="1.151"/>
				<rect x="509.056" y="179.007" fill="#AEAEAE" width="10.07" height="1.154"/>
				<rect x="509.056" y="180.45" fill="#AEAEAE" width="10.07" height="1.151"/>
				<rect x="509.056" y="181.886" fill="#AEAEAE" width="10.07" height="1.152"/>
				<rect x="509.056" y="183.366" fill="#AEAEAE" width="10.07" height="1.151"/>
			</g>
		</g>
		<rect x="522.671" y="177.6" fill="#0B253F" width="8.897" height="1.151"/>
		<rect x="522.671" y="179.007" fill="#AEAEAE" width="8.897" height="1.154"/>
		<rect x="522.671" y="180.45" fill="#AEAEAE" width="8.897" height="1.151"/>
		<rect x="522.671" y="181.886" fill="#AEAEAE" width="8.897" height="1.152"/>
		<rect x="522.671" y="183.366" fill="#AEAEAE" width="8.897" height="1.151"/>
		<rect x="533.169" y="177.6" fill="#0B253F" width="8.899" height="1.151"/>
		<rect x="533.169" y="179.007" fill="#AEAEAE" width="8.899" height="1.154"/>
		<rect x="533.169" y="180.45" fill="#AEAEAE" width="8.899" height="1.151"/>
		<rect x="533.169" y="181.886" fill="#AEAEAE" width="8.899" height="1.152"/>
		<rect x="533.169" y="183.366" fill="#AEAEAE" width="8.899" height="1.151"/>
		<g>
			<g>
				<rect x="500.83" y="162.708" fill="#6C8EA5" width="6.041" height="3.569"/>
				<g>
					<rect x="501.928" y="163.609" fill="#D1E6E8" width="3.872" height="0.277"/>
					<rect x="501.928" y="164.07" fill="#D1E6E8" width="3.872" height="0.276"/>
					<rect x="501.928" y="164.532" fill="#D1E6E8" width="3.872" height="0.276"/>
					<rect x="501.928" y="165.002" fill="#D1E6E8" width="3.872" height="0.278"/>
				</g>
			</g>
			<g>
				<g>
					<path fill="#33AFCC" d="M498.122,162.708h2.69c0.098,0,0.178,0.079,0.178,0.178v3.212c0,0.1-0.08,0.179-0.178,0.179h-3.216
						c-0.097,0-0.177-0.08-0.177-0.179v-2.689L498.122,162.708z"/>
					<path fill="#49ABE0" d="M498.002,163.409c0.065,0,0.12-0.054,0.12-0.12v-0.581l-0.702,0.701H498.002z"/>
				</g>
				<path fill="#D1E6E8" d="M500.049,165.201c0-0.005-0.002-0.011-0.004-0.017c-0.012-0.083-0.046-0.335-0.088-0.383
					c-0.146-0.163-0.455-0.268-0.481-0.283c-0.015-0.007-0.045-0.054-0.063-0.103c0.049-0.047,0.087-0.112,0.114-0.189
					c0.041-0.026,0.068-0.125,0.068-0.188c0-0.044-0.013-0.063-0.035-0.069c0.005-0.09,0.017-0.187-0.016-0.252
					c-0.062-0.126-0.234-0.206-0.355-0.206c-0.113,0-0.258,0.069-0.322,0.186c-0.038,0.072-0.019,0.167-0.015,0.264
					c-0.023,0.008-0.037,0.024-0.037,0.071c0,0.069,0.03,0.179,0.079,0.193c0.028,0.073,0.063,0.135,0.108,0.182
					c-0.016,0.049-0.049,0.102-0.066,0.11c-0.027,0.015-0.335,0.12-0.478,0.283c-0.044,0.047-0.08,0.3-0.092,0.383
					c-0.002,0.006-0.003,0.011-0.003,0.017c0,0.001,0.001,0.003,0.001,0.004c-0.001,0.003-0.001,0.006-0.001,0.006h0.001
					c0.021,0.105,0.39,0.191,0.841,0.191c0.453,0,0.821-0.085,0.842-0.191h0.002c0,0-0.002-0.003-0.002-0.006
					C500.047,165.204,500.049,165.203,500.049,165.201z M498.967,164.789l-0.01-0.218l0.065-0.104l0.149,0.121h-0.002l-0.046,0.051
					l0.045,0.09l-0.031,0.14l-0.082-0.163L498.967,164.789z M499.444,164.787l-0.08-0.088l-0.072,0.171l-0.036-0.135l0.047-0.1
					l-0.047-0.053l0.135-0.119l0.062,0.103L499.444,164.787z"/>
			</g>
		</g>
	</g>
</g>
<g>
	<g>
		<g>
			<path fill="#6C8EA5" d="M442.411,227.964c0,0.393-0.312,0.713-0.704,0.713h-46.508c-0.393,0-0.707-0.32-0.707-0.713v-34.917
				c0-0.392,0.314-0.711,0.707-0.711h46.508c0.392,0,0.704,0.319,0.704,0.711V227.964z"/>
			<path fill="#EEF0F0" d="M442.381,220.582c-0.029,0.03-6.713,7.63-6.713,7.647h-41.026c-0.396,0-0.712-0.318-0.712-0.712v-34.915
				c0-0.394,0.316-0.71,0.712-0.71h47.031c0.391,0,0.708,0.316,0.708,0.71V220.582z"/>
			<g>
				<g>
					<g>
						<path fill="#8FB0C1" d="M436.847,220.634h5.545l-6.693,7.638v-6.491C435.698,221.147,436.21,220.634,436.847,220.634z"/>
					</g>
				</g>
			</g>
			<g>
				<g>
					<rect x="400.254" y="204.806" fill="#AEAEAE" width="3.78" height="2.703"/>
					<rect x="405.697" y="204.806" fill="#AEAEAE" width="3.779" height="2.703"/>
					<rect x="411.137" y="204.806" fill="#E04426" width="3.782" height="2.703"/>
					<rect x="416.58" y="204.806" fill="#AEAEAE" width="3.777" height="2.703"/>
					<rect x="422.021" y="204.806" fill="#AEAEAE" width="3.778" height="2.703"/>
					<rect x="427.463" y="204.806" fill="#AEAEAE" width="3.773" height="2.703"/>
					<rect x="432.902" y="204.806" fill="#AEAEAE" width="3.78" height="2.703"/>
				</g>
				<g>
					<rect x="416.58" y="200.046" fill="#AEAEAE" width="3.777" height="2.702"/>
					<rect x="422.021" y="200.046" fill="#AEAEAE" width="3.778" height="2.702"/>
					<rect x="427.463" y="200.046" fill="#AEAEAE" width="3.773" height="2.702"/>
					<rect x="432.902" y="200.046" fill="#AEAEAE" width="3.78" height="2.702"/>
				</g>
				<g>
					<rect x="400.254" y="209.792" fill="#AEAEAE" width="3.78" height="2.703"/>
					<rect x="405.697" y="209.792" fill="#AEAEAE" width="3.779" height="2.703"/>
					<rect x="411.137" y="209.792" fill="#AEAEAE" width="3.782" height="2.703"/>
					<rect x="416.58" y="209.792" fill="#AEAEAE" width="3.777" height="2.703"/>
					<rect x="422.021" y="209.792" fill="#AEAEAE" width="3.778" height="2.703"/>
					<rect x="427.463" y="209.792" fill="#AEAEAE" width="3.773" height="2.703"/>
					<rect x="432.902" y="209.792" fill="#AEAEAE" width="3.78" height="2.703"/>
				</g>
				<g>
					<rect x="400.254" y="214.779" fill="#AEAEAE" width="3.78" height="2.702"/>
					<rect x="405.697" y="214.779" fill="#AEAEAE" width="3.779" height="2.702"/>
					<rect x="411.137" y="214.779" fill="#AEAEAE" width="3.782" height="2.702"/>
					<rect x="416.58" y="214.779" fill="#AEAEAE" width="3.777" height="2.702"/>
					<rect x="422.021" y="214.779" fill="#AEAEAE" width="3.778" height="2.702"/>
					<rect x="427.463" y="214.779" fill="#AEAEAE" width="3.773" height="2.702"/>
					<rect x="432.902" y="214.779" fill="#AEAEAE" width="3.78" height="2.702"/>
				</g>
				<g>
					<rect x="400.254" y="219.764" fill="#AEAEAE" width="3.78" height="2.703"/>
					<rect x="405.697" y="219.764" fill="#AEAEAE" width="3.779" height="2.703"/>
					<rect x="411.137" y="219.764" fill="#AEAEAE" width="3.782" height="2.703"/>
				</g>
			</g>
		</g>
		<path fill="#E04426" d="M442.396,196.344v-7.838c0-0.393-0.32-0.712-0.714-0.712h-47.027c-0.396,0-0.712,0.319-0.712,0.712v7.838
			H442.396z"/>
		<g>
			<g>
				<g>
					<path fill="#0B253F" d="M398.777,190.214c0,0.455-0.286,0.829-0.631,0.829h-0.043c-0.344,0-0.629-0.374-0.629-0.829v-3.183
						c0-0.452,0.285-0.827,0.629-0.827h0.043c0.345,0,0.631,0.375,0.631,0.827V190.214z"/>
				</g>
				<g>
					<path fill="#0B253F" d="M402.784,190.214c0,0.455-0.285,0.829-0.629,0.829h-0.041c-0.346,0-0.63-0.374-0.63-0.829v-3.183
						c0-0.452,0.284-0.827,0.63-0.827h0.041c0.344,0,0.629,0.375,0.629,0.827V190.214z"/>
				</g>
				<g>
					<path fill="#0B253F" d="M406.793,190.214c0,0.455-0.279,0.829-0.627,0.829h-0.046c-0.343,0-0.623-0.374-0.623-0.829v-3.183
						c0-0.452,0.28-0.827,0.623-0.827h0.046c0.348,0,0.627,0.375,0.627,0.827V190.214z"/>
				</g>
				<g>
					<path fill="#0B253F" d="M410.804,190.214c0,0.455-0.282,0.829-0.627,0.829h-0.051c-0.341,0-0.626-0.374-0.626-0.829v-3.183
						c0-0.452,0.285-0.827,0.626-0.827h0.051c0.345,0,0.627,0.375,0.627,0.827V190.214z"/>
				</g>
				<g>
					<path fill="#0B253F" d="M414.81,190.214c0,0.455-0.282,0.829-0.625,0.829h-0.048c-0.342,0-0.625-0.374-0.625-0.829v-3.183
						c0-0.452,0.283-0.827,0.625-0.827h0.048c0.343,0,0.625,0.375,0.625,0.827V190.214z"/>
				</g>
				<g>
					<path fill="#0B253F" d="M418.82,190.214c0,0.455-0.284,0.829-0.627,0.829h-0.045c-0.345,0-0.627-0.374-0.627-0.829v-3.183
						c0-0.452,0.282-0.827,0.627-0.827h0.045c0.343,0,0.627,0.375,0.627,0.827V190.214z"/>
				</g>
				<g>
					<path fill="#0B253F" d="M422.831,190.214c0,0.455-0.289,0.829-0.628,0.829h-0.048c-0.344,0-0.626-0.374-0.626-0.829v-3.183
						c0-0.452,0.282-0.827,0.626-0.827h0.048c0.339,0,0.628,0.375,0.628,0.827V190.214z"/>
				</g>
				<g>
					<path fill="#0B253F" d="M426.838,190.214c0,0.455-0.282,0.829-0.627,0.829h-0.044c-0.348,0-0.627-0.374-0.627-0.829v-3.183
						c0-0.452,0.279-0.827,0.627-0.827h0.044c0.345,0,0.627,0.375,0.627,0.827V190.214z"/>
				</g>
				<g>
					<path fill="#0B253F" d="M430.845,190.214c0,0.455-0.28,0.829-0.628,0.829h-0.045c-0.342,0-0.625-0.374-0.625-0.829v-3.183
						c0-0.452,0.283-0.827,0.625-0.827h0.045c0.348,0,0.628,0.375,0.628,0.827V190.214z"/>
				</g>
				<g>
					<path fill="#0B253F" d="M434.853,190.214c0,0.455-0.28,0.829-0.625,0.829h-0.046c-0.344,0-0.629-0.374-0.629-0.829v-3.183
						c0-0.452,0.285-0.827,0.629-0.827h0.046c0.345,0,0.625,0.375,0.625,0.827V190.214z"/>
				</g>
				<g>
					<path fill="#0B253F" d="M438.865,190.214c0,0.455-0.284,0.829-0.63,0.829h-0.04c-0.348,0-0.631-0.374-0.631-0.829v-3.183
						c0-0.452,0.283-0.827,0.631-0.827h0.04c0.346,0,0.63,0.375,0.63,0.827V190.214z"/>
				</g>
			</g>
		</g>
	</g>
</g>
<g>
	<polygon fill="#33AFCC" points="529.691,22.957 523.458,23.586 525.052,25.333 512.736,35.919 506.267,32.855 500.738,37.464 
		502.212,39.921 506.823,36.38 513.354,39.474 526.989,27.46 528.687,29.319 	"/>
	<g>
		<path fill="#FFFFFF" d="M492.452,31.224l2.876-5.882c0.132-0.265,0.445-0.389,0.72-0.283l0,0l9.382,3.524l3.876-1.366
			l3.526-14.674c0.052-0.214,0.224-0.381,0.438-0.428l0,0c0.216-0.047,0.441,0.033,0.579,0.207l0,0l5.335,6.809l7.58-2.656
			l0.385,1.092l-7.973,2.794c-0.232,0.082-0.494,0.007-0.645-0.188l0,0l-4.856-6.195l-3.32,13.814
			c-0.046,0.191-0.187,0.345-0.368,0.41l0,0l-4.371,1.543c-0.128,0.045-0.269,0.043-0.396-0.003l0,0l-9.09-3.416l-3.646,7.404
			L492.452,31.224z"/>
		<path fill="#FFFFFF" d="M527.819,18.869l1.313-2.981c0.018-0.04,0.015-0.083-0.005-0.119c-0.019-0.035-0.058-0.058-0.103-0.064
			l-3.048-0.35c-0.054-0.007-0.11,0.017-0.146,0.06c-0.032,0.044-0.042,0.101-0.018,0.147l1.736,3.332
			c0.025,0.047,0.079,0.074,0.136,0.07C527.744,18.958,527.796,18.919,527.819,18.869z"/>
	</g>
	<g>
		<g>
			<path fill="#F26622" d="M519.645,49.155L519.645,49.155l-1.248-0.394l-0.802-0.25l0.32-1.011l0.006,0.003v-0.002l0.795,0.252
				l0.212,0.066l0,0l2.041,0.643v0l0.009,0.001l-0.32,1.01L519.645,49.155L519.645,49.155z M516.558,48.182v0.001l-3.045-0.96l0,0
				l-0.011-0.002l0.319-1.009l1.014,0.318l0,0l1.037,0.325l0,0l1.013,0.32l-0.32,1.01L516.558,48.182L516.558,48.182z
				 M520.784,47.581l0.426-0.796l0.888-1.658l0.202-0.376l0.931,0.5l-0.002,0.005l0,0l-1.009,1.89l0,0l-0.502,0.935L520.784,47.581
				L520.784,47.581z M512.469,46.894L512.469,46.894l-1.882-0.592l-0.418,0.131l-0.434,0.134l0,0l-0.01,0.002l-0.311-1.01
				l1.013-0.316v0.001l0.163-0.051l1.188,0.376l0,0l1.014,0.319l-0.317,1.008L512.469,46.894L512.469,46.894z M522.809,43.8
				l0.003-0.006l0,0l1.479-2.76l0.933,0.502l-0.982,1.827l0,0l-0.216,0.409l-0.279,0.521l0,0l-0.003,0.006L522.809,43.8
				L522.809,43.8z"/>
			<path fill="#F26622" d="M521.846,40.456l-0.886-0.386l5.979-2.929l0.789,5.86L521.846,40.456L521.846,40.456z M526.635,41.558
				l-0.412-3.072l-3.138,1.536L526.635,41.558L526.635,41.558z"/>
		</g>
	</g>
	<path fill="#D1E6E8" d="M510.606,58.228c-0.002-16.007-12.977-28.98-28.985-28.982c-16.006,0.002-28.98,12.976-28.982,28.982
		c0.002,16.008,12.977,28.982,28.982,28.982h0.009c0.002,0,0.004,0,0.004,0C497.637,87.204,510.604,74.231,510.606,58.228z
		 M501.872,72.854c-1.938-0.966-4.132-1.788-6.517-2.442c0.793-3.359,1.254-7.061,1.346-10.961h11.427
		c-0.239,5.267-2.01,10.121-4.884,14.15C502.803,73.343,502.346,73.093,501.872,72.854z M503.192,42.781
		c2.9,4.043,4.693,8.928,4.936,14.226h-11.434c-0.085-3.938-0.565-7.664-1.378-11.045c2.385-0.657,4.578-1.477,6.516-2.444
		C502.305,43.283,502.752,43.035,503.192,42.781z M494.26,57.007h-11.414v-9.326c3.574-0.074,6.982-0.465,10.107-1.145
		C493.721,49.716,494.183,53.263,494.26,57.007z M482.846,45.251V31.824c1.15,0.241,2.278,0.825,3.389,1.76
		c2.45,2.038,4.606,5.798,6.072,10.593C489.388,44.806,486.197,45.185,482.846,45.251z M477.009,33.584
		c1.11-0.935,2.241-1.519,3.391-1.762v13.413c-3.347-0.077-6.54-0.446-9.451-1.072c0.56-1.832,1.21-3.527,1.954-5.015
		C474.101,36.745,475.517,34.846,477.009,33.584z M480.399,47.692v9.315h-11.402c0.081-3.751,0.546-7.294,1.309-10.479
		C473.43,47.205,476.83,47.607,480.399,47.692z M466.544,57.007h-11.425c0.24-5.31,2.043-10.207,4.952-14.254
		c2.243,1.297,4.885,2.378,7.84,3.192C467.104,49.327,466.638,53.067,466.544,57.007z M466.549,59.451
		c0.087,3.915,0.562,7.622,1.366,10.987c-2.972,0.822-5.627,1.915-7.871,3.223c-2.897-4.039-4.685-8.917-4.925-14.209H466.549z
		 M468.985,59.451h11.414v9.231c-3.581,0.088-6.992,0.495-10.121,1.178C469.521,66.696,469.062,63.172,468.985,59.451z
		 M480.399,71.138v13.497c-1.149-0.244-2.28-0.826-3.391-1.761c-2.458-2.046-4.622-5.827-6.086-10.649
		C473.84,71.593,477.041,71.218,480.399,71.138z M486.234,82.874c-1.11,0.935-2.238,1.518-3.389,1.761V71.12
		c3.359,0.063,6.561,0.442,9.482,1.069c-0.563,1.873-1.225,3.605-1.984,5.121C489.144,79.712,487.729,81.612,486.234,82.874z
		 M482.846,68.688v-9.238h11.401c-0.081,3.711-0.535,7.218-1.284,10.376C489.831,69.149,486.421,68.762,482.846,68.688z
		 M501.66,40.843c-1.971,1.084-4.334,2.021-6.982,2.753c-0.604-2.005-1.314-3.875-2.148-5.543c-1.053-2.111-2.287-3.919-3.679-5.355
		c4.42,1.248,8.373,3.608,11.536,6.767C500.828,39.907,501.25,40.37,501.66,40.843z M474.399,32.697
		c-2.482,2.568-4.479,6.339-5.843,10.877c-2.213-0.613-4.232-1.369-5.981-2.246c-0.337-0.168-0.643-0.347-0.955-0.524
		c0.397-0.458,0.808-0.909,1.238-1.34C466.021,36.304,469.977,33.944,474.399,32.697z M461.581,75.608
		c0.34-0.191,0.669-0.387,1.032-0.566c1.738-0.869,3.742-1.622,5.938-2.232c0.606,2.025,1.322,3.913,2.162,5.595
		c1.057,2.111,2.287,3.919,3.679,5.356c-4.42-1.249-8.372-3.608-11.534-6.77C462.415,76.548,461.991,76.084,461.581,75.608z
		 M488.849,83.761c2.5-2.589,4.505-6.397,5.873-10.983c2.654,0.734,5.026,1.676,7,2.766c-0.43,0.498-0.87,0.984-1.335,1.447
		C497.224,80.154,493.271,82.513,488.849,83.761z"/>
	<g>
		<polygon fill="#D1E6E8" points="518.077,90.457 521.137,93.02 519.875,94.545 516.82,91.981 		"/>
		<g>
			<path fill="#FFFFFF" d="M504.924,86.131c-0.268,4.082,2.825,7.609,6.91,7.878c4.079,0.268,7.606-2.825,7.876-6.908
				c0.27-4.082-2.825-7.609-6.906-7.876C508.721,78.958,505.195,82.049,504.924,86.131z M517.639,83.457
				c1.731,2.959,0.731,6.759-2.227,8.489c-2.957,1.731-6.759,0.734-8.49-2.226c-1.728-2.958-0.732-6.758,2.226-8.489
				C512.106,79.5,515.907,80.498,517.639,83.457z"/>
		</g>
		<path fill="#010101" d="M518.001,93.506l8.301,8.006c0.716,0.653,1.827,0.606,2.48-0.11l0,0c0.655-0.715,0.606-1.825-0.108-2.479
			l-8.853-7.476L518.001,93.506z"/>
	</g>
</g>
<g>
	<path fill="#1F4D6C" d="M90.129,244.697c0,0.914-0.741,1.651-1.653,1.651l0,0c-0.912,0-1.651-0.737-1.651-1.651V92.054
		c0-0.913,0.739-1.652,1.651-1.652l0,0c0.912,0,1.653,0.739,1.653,1.652V244.697z"/>
	<path fill="#1F4D6C" d="M30.464,260.748c-0.343,0.848-1.309,1.255-2.154,0.91l0,0c-0.847-0.345-1.256-1.307-0.912-2.154
		l57.38-141.447c0.34-0.847,1.304-1.253,2.15-0.912l0,0c0.85,0.344,1.256,1.31,0.908,2.154L30.464,260.748z"/>
	<path fill="#1F4D6C" d="M142.083,260.748c0.34,0.848,1.311,1.255,2.154,0.91l0,0c0.845-0.345,1.252-1.307,0.91-2.154
		L87.771,118.057c-0.342-0.847-1.311-1.253-2.152-0.912l0,0c-0.846,0.344-1.255,1.31-0.91,2.154L142.083,260.748z"/>
	<g>
		<rect x="8.537" y="56.299" fill="#E0F2F4" width="158.434" height="122.259"/>
		<rect x="4.269" y="51.139" fill="#1F4D6C" width="166.967" height="5.284"/>
		<rect x="4.269" y="176.483" fill="#1F4D6C" width="166.967" height="5.287"/>
	</g>
	<g>
		<polygon fill="#AEAEAE" points="112.907,109.872 112.907,69.375 111.981,69.375 111.981,111.271 153.896,111.271 153.896,109.872 
					"/>
		<g>
			<polygon fill="#E04426" points="148.804,83.771 143.513,84.306 144.869,85.792 134.412,94.776 128.918,92.172 117.541,101.611 
				117.541,104.996 129.391,95.165 134.94,97.786 146.508,87.597 147.942,89.172 			"/>
			<g>
				<g>
					<path fill="#056F9A" d="M117.575,97.533l7.224-14.515c0.111-0.227,0.38-0.327,0.612-0.238l0,0l7.96,2.99l3.288-1.157
						l2.989-12.459c0.044-0.179,0.19-0.317,0.374-0.359l0,0c0.188-0.042,0.376,0.026,0.486,0.174l0,0l4.54,5.783l6.427-2.257
						l0.325,0.928l-6.763,2.37c-0.196,0.069-0.421,0.006-0.549-0.159l0,0l-4.12-5.26L137.545,85.1
						c-0.034,0.164-0.155,0.289-0.309,0.346l0,0l-3.711,1.311c-0.106,0.038-0.226,0.038-0.332-0.003l0,0l-7.714-2.897L117.6,99.661
						L117.575,97.533z"/>
					<path fill="#056F9A" d="M152.367,77.529l1.117-2.534c0.015-0.032,0.01-0.068-0.008-0.098c-0.01-0.029-0.048-0.052-0.088-0.053
						l-2.582-0.301c-0.048-0.001-0.096,0.018-0.124,0.052c-0.029,0.036-0.031,0.084-0.012,0.127l1.474,2.825
						c0.021,0.046,0.066,0.062,0.115,0.062C152.306,77.603,152.352,77.574,152.367,77.529z"/>
				</g>
			</g>
			<g>
				<g>
					<g>
						<g>
							<path fill="#F26622" d="M119.37,105.583h0.01h-0.004l2.59-0.806l0,0h0.01l0.261,0.857l-0.651,0.203l-1.088,0.338l0,0
								l-0.86,0.272L119.37,105.583L119.37,105.583z M122.849,104.506l0.002-0.002l0,0l2.592-0.809l0,0l0.011-0.002l0.261,0.855
								l-0.858,0.273l0,0l-0.881,0.276l0,0l-0.856,0.265L122.849,104.506L122.849,104.506z M126.324,103.422h0.008l0,0l2.582-0.808
								l0,0l0.01-0.003l0.265,0.859l-0.86,0.273l0,0l-0.881,0.272l0,0l-0.864,0.265L126.324,103.422L126.324,103.422z
								 M145.429,103.232L145.429,103.232l-1.058-0.337l-0.681-0.213l0.27-0.859l0.008,0.008v-0.008l0.674,0.216l0.182,0.053l0,0
								l1.73,0.548l0,0l0.006,0.003l-0.271,0.853L145.429,103.232L145.429,103.232z M129.802,102.343l0.006-0.003l0,0l0.453-0.14
								l0.398-0.127l0,0l1.094-0.338l0.647-0.199l0.271,0.855l-0.864,0.264l0,0l-0.879,0.273l0,0l-0.868,0.271L129.802,102.343
								L129.802,102.343z M142.813,102.405L142.813,102.405l-2.588-0.815l0,0l-0.01-0.006l0.275-0.852l0.86,0.272l0,0l0.881,0.271
								l0,0l0.854,0.273l-0.265,0.855H142.813L142.813,102.405z M146.399,101.891l0.363-0.678l0.749-1.401l0.171-0.321l0.793,0.427
								l-0.002,0.005l0,0l-0.86,1.598l0,0l-0.424,0.796L146.399,101.891L146.399,101.891z M133.271,101.261h0.011v-0.005l2.59-0.803
								l0,0h0.004l0.271,0.856l-0.86,0.264l0,0l-0.887,0.273l0,0l-0.858,0.268L133.271,101.261L133.271,101.261z M139.342,101.312
								L139.342,101.312l-1.597-0.503l-0.355,0.112l-0.369,0.115l0,0h-0.004l-0.265-0.856l0.862-0.274v0.003l0.136-0.043
								l1.004,0.318l0,0l0.864,0.271l-0.269,0.856H139.342L139.342,101.312z M148.111,98.686l0.013-0.012l0,0l1.252-2.334
								l0.787,0.423l-0.829,1.552l0,0l-0.182,0.347L148.91,99.1l0,0l-0.004,0.012L148.111,98.686L148.111,98.686z"/>
						</g>
					</g>
					<g>
						<g>
							<path fill="#F26622" d="M147.295,95.844l-0.743-0.326l5.072-2.488l0.668,4.979L147.295,95.844L147.295,95.844z
								 M151.363,96.784l-0.344-2.609l-2.666,1.306L151.363,96.784L151.363,96.784z"/>
						</g>
					</g>
				</g>
			</g>
		</g>
	</g>
	<g>
		<polygon fill="#AEAEAE" points="112.726,164.426 112.726,124.312 111.599,124.312 111.599,163.437 111.599,165.697 
			113.859,165.697 153.005,165.697 153.005,164.426 		"/>
		<g>
			<rect x="117.115" y="152.395" fill="#056F9A" width="6.796" height="8.271"/>
			<rect x="126.162" y="145.876" fill="#F26622" width="6.786" height="14.79"/>
			<rect x="135.128" y="148.208" fill="#6C8EA5" width="6.783" height="12.458"/>
			<rect x="144.089" y="137.657" fill="#E04426" width="6.792" height="23.01"/>
		</g>
		<polygon fill="#AEAEAE" points="151.897,125.037 146,125.63 147.512,127.283 135.877,137.285 129.762,134.388 117.095,144.895 
			117.095,148.666 130.292,137.719 136.464,140.648 149.347,129.288 150.947,131.051 		"/>
	</g>
	<g>
		<polygon fill="#F26622" points="19.965,166.822 23.636,135.229 37.23,141.841 43.108,136.699 61.106,143.309 76.537,142.942 
			81.313,130.819 95.274,165.35 		"/>
		<g>
			<g>
				<polygon fill="#73BBE7" points="23.453,166.822 31.422,151.413 34.267,156.07 37.114,147.828 39.677,156.786 47.074,137.797 
					52.2,156.786 56.469,150.338 72.123,158.218 77.815,149.62 84.644,146.752 93.183,132.779 97.733,130.628 97.733,166.822 				
					"/>
			</g>
		</g>
	</g>
	<g>
		<g>
			<rect x="24.74" y="75.523" fill="#73BBE7" width="5.876" height="36.368"/>
			<rect x="33.191" y="86.544" fill="#73BBE7" width="5.876" height="25.347"/>
			<rect x="41.641" y="83.238" fill="#73BBE7" width="5.876" height="28.653"/>
			<rect x="50.088" y="72.951" fill="#73BBE7" width="5.875" height="38.94"/>
			<rect x="58.537" y="84.1" fill="#73BBE7" width="5.879" height="27.791"/>
			<rect x="66.988" y="92.522" fill="#73BBE7" width="5.875" height="19.369"/>
			<rect x="75.435" y="89.994" fill="#73BBE7" width="5.878" height="21.897"/>
			<rect x="83.884" y="82.136" fill="#73BBE7" width="5.88" height="29.755"/>
		</g>
	</g>
</g>
</svg>
