<?xml version="1.0" encoding="utf-8"?>
<!-- Generator: Adobe Illustrator 16.0.0, SVG Export Plug-In . SVG Version: 6.00 Build 0)  -->
<!DOCTYPE svg PUBLIC "-//W3C//DTD SVG 1.1//EN" "http://www.w3.org/Graphics/SVG/1.1/DTD/svg11.dtd">
<svg version="1.1" id="Layer_1" xmlns="http://www.w3.org/2000/svg" xmlns:xlink="http://www.w3.org/1999/xlink" x="0px" y="0px"
	 width="146.688px" height="50.697px" viewBox="0 0 146.688 50.697" enable-background="new 0 0 146.688 50.697"
	 xml:space="preserve">
<g>
	<path fill="#A51E22" d="M30.468,6.883c0-2.807-0.566-4.022-2.321-4.022c-1.97,0-2.429,1.971-2.429,7.423
		c0,5.831,0.81,6.883,2.483,6.883c1.403,0,2.429-0.729,2.429-4.886h3.888c0,4.157-1.026,7.747-6.128,7.747
		c-5.83,0-6.56-4.157-6.56-10.014S22.56,0,28.39,0c5.561,0,5.966,4.076,5.966,6.883H30.468z"/>
	<path fill="#A51E22" d="M36.924,19.651V0.378h3.887v19.273H36.924z"/>
	<path fill="#A51E22" d="M51.933,6.883c0-2.807-0.566-4.022-2.321-4.022c-1.97,0-2.429,1.971-2.429,7.423
		c0,5.831,0.81,6.883,2.483,6.883c1.403,0,2.429-0.729,2.429-4.886h3.888c0,4.157-1.026,7.747-6.128,7.747
		c-5.83,0-6.56-4.157-6.56-10.014S44.024,0,49.854,0c5.561,0,5.966,4.076,5.966,6.883H51.933z"/>
	<path fill="#A51E22" d="M58.198,19.651V0.378h3.887v16.088h6.884v3.185H58.198z"/>
	<path fill="#A51E22" d="M76.854,0c5.83,0,6.56,4.157,6.56,10.015s-0.729,10.014-6.56,10.014s-6.56-4.157-6.56-10.014
		S71.023,0,76.854,0z M76.854,17.167c2.295,0,2.673-1.97,2.673-7.153c0-5.156-0.378-7.153-2.673-7.153
		c-2.294,0-2.672,1.998-2.672,7.153C74.182,15.197,74.56,17.167,76.854,17.167z"/>
	<path fill="#A51E22" d="M92.381,0.378h6.37c5.398,0,6.37,3.698,6.37,9.367c0,6.829-1.458,9.906-6.613,9.906h-6.127V0.378z
		 M96.268,16.79h1.728c2.699,0,3.239-1.701,3.239-6.937c0-4.373-0.352-6.613-3.32-6.613h-1.646V16.79z"/>
	<path fill="#A51E22" d="M118.459,0.378v3.185h-6.884v4.535h6.479v3.185h-6.479v5.183h7.153v3.185h-11.04V0.378H118.459z"/>
	<path fill="#A51E22" d="M8.638,31.884c0-2.808-0.566-4.022-2.321-4.022c-1.97,0-2.429,1.971-2.429,7.423
		c0,5.83,0.81,6.883,2.483,6.883c1.403,0,2.429-0.729,2.429-4.885h3.888c0,4.156-1.026,7.746-6.128,7.746
		c-5.83,0-6.56-4.156-6.56-10.014S0.729,25,6.56,25c5.561,0,5.966,4.076,5.966,6.884H8.638z"/>
	<path fill="#A51E22" d="M18.17,25.378h4.805l5.102,19.273h-4.049l-0.891-4.076h-5.129l-0.891,4.076h-4.049L18.17,25.378z
		 M18.683,37.39h3.779L20.6,28.726h-0.055L18.683,37.39z"/>
	<path fill="#A51E22" d="M29.431,25.378h6.802c3.941,0,5.291,2.889,5.291,5.776c0,3.995-2.456,5.804-6.127,5.804h-2.079v7.693
		h-3.887V25.378z M33.317,34.097h1.728c1.539,0,2.592-0.918,2.592-2.889c0-1.889-0.756-2.969-2.699-2.969h-1.62V34.097z"/>
	<path fill="#A51E22" d="M45.737,25.378h4.805l5.102,19.273h-4.049l-0.891-4.076h-5.129l-0.891,4.076h-4.049L45.737,25.378z
		 M46.25,37.39h3.779l-1.862-8.664h-0.055L46.25,37.39z"/>
	<path fill="#A51E22" d="M65.229,31.884c0-2.808-0.566-4.022-2.321-4.022c-1.97,0-2.429,1.971-2.429,7.423
		c0,5.83,0.81,6.883,2.483,6.883c1.403,0,2.429-0.729,2.429-4.885h3.888c0,4.156-1.026,7.746-6.128,7.746
		c-5.83,0-6.56-4.156-6.56-10.014S57.321,25,63.151,25c5.561,0,5.966,4.076,5.966,6.884H65.229z"/>
	<path fill="#A51E22" d="M71.686,44.651V25.378h3.887v19.273H71.686z"/>
	<path fill="#A51E22" d="M89.745,25.378v3.186h-4.211v16.088h-3.887V28.563h-4.211v-3.186H89.745z"/>
	<path fill="#A51E22" d="M93.689,25.378h4.805l5.102,19.273h-4.049l-0.891-4.076h-5.129l-0.891,4.076h-4.049L93.689,25.378z
		 M94.202,37.39h3.779l-1.862-8.664h-0.055L94.202,37.39z"/>
	<path fill="#A51E22" d="M110.645,45.028c-5.426-0.242-6.101-4.318-6.101-10.014c0-5.857,0.729-10.015,6.56-10.015
		c5.561,0,5.966,4.076,5.966,6.884h-3.888c0-2.808-0.566-4.022-2.321-4.022c-1.97,0-2.429,1.971-2.429,7.423
		c0,5.83,0.81,6.883,2.483,6.883c1.403,0,2.429-0.729,2.429-4.885h3.888c0,3.887-0.892,7.261-5.129,7.72l-0.81,1.296
		c0.323-0.082,0.566-0.135,0.891-0.135c1.053,0,2.268,0.729,2.268,1.997c0,1.565-1.215,2.537-3.401,2.537
		c-1.188,0-2.268-0.271-2.699-0.513l0.513-1.242c0.378,0.217,1.188,0.405,1.862,0.405c0.756,0,1.35-0.405,1.35-0.918
		c0-0.54-0.459-0.917-1.188-0.917c-0.378,0-0.621,0.053-0.918,0.162l-0.594-0.541L110.645,45.028z"/>
	<path fill="#A51E22" d="M122.714,25.378h4.805l5.102,19.273h-4.049l-0.891-4.076h-5.129l-0.891,4.076h-4.049L122.714,25.378z
		 M120.879,24.001c0.297-2.105,1.133-3.347,2.51-3.347c0.486,0,0.837,0.054,1.161,0.189l1.295,0.567
		c0.271,0.108,0.54,0.162,0.811,0.162c0.513,0,0.756-0.621,0.756-0.972h1.943c-0.189,1.917-1.134,3.347-2.511,3.347
		c-1.16,0-2.349-0.917-3.212-0.917c-0.405,0-0.729,0.297-0.864,0.971H120.879z M123.227,37.39h3.779l-1.862-8.664h-0.055
		L123.227,37.39z"/>
	<path fill="#A51E22" d="M140.128,25c5.83,0,6.56,4.157,6.56,10.015s-0.729,10.014-6.56,10.014s-6.56-4.156-6.56-10.014
		S134.298,25,140.128,25z M140.128,42.167c2.295,0,2.673-1.97,2.673-7.152c0-5.156-0.378-7.153-2.673-7.153
		c-2.294,0-2.672,1.997-2.672,7.153C137.456,40.197,137.834,42.167,140.128,42.167z"/>
</g>
</svg>
