<?xml version="1.0" encoding="utf-8"?>
<!-- Generator: Adobe Illustrator 16.0.0, SVG Export Plug-In . SVG Version: 6.00 Build 0)  -->
<!DOCTYPE svg PUBLIC "-//W3C//DTD SVG 1.1//EN" "http://www.w3.org/Graphics/SVG/1.1/DTD/svg11.dtd">
<svg version="1.1" id="Layer_1" xmlns="http://www.w3.org/2000/svg" xmlns:xlink="http://www.w3.org/1999/xlink" x="0px" y="0px"
	 width="201px" height="200px" viewBox="0 0 201 200" enable-background="new 0 0 201 200" xml:space="preserve">
<circle fill="none" cx="1" cy="200" r="137.5"/>
<text transform="matrix(0.5679 -0.8231 0.8231 0.5679 -114.8823 125.814)"><tspan x="0" y="0" fill="#FFFFFF" font-family="'HelveticaNeueLTStd-Cn'" font-size="20">V</tspan><tspan x="9.033" y="-0.007" fill="#FFFFFF" font-family="'HelveticaNeueLTStd-Cn'" font-size="20" rotate="3.754">e</tspan><tspan x="18.021" y="0.54" fill="#FFFFFF" font-family="'HelveticaNeueLTStd-Cn'" font-size="20" rotate="7.869">n</tspan><tspan x="28.778" y="2.016" fill="#FFFFFF" font-family="'HelveticaNeueLTStd-Cn'" font-size="20" rotate="12.363">d</tspan><tspan x="39.402" y="4.358" fill="#FFFFFF" font-family="'HelveticaNeueLTStd-Cn'" font-size="20" rotate="16.637">a</tspan><tspan x="48.761" y="7.145" fill="#FFFFFF" font-family="'HelveticaNeueLTStd-Cn'" font-size="20" rotate="20.689">s</tspan></text>
<circle fill="none" cx="1" cy="200" r="137.5"/>
<text transform="matrix(0.8836 0.4682 -0.4682 0.8836 61.0303 76.1675)"><tspan x="0" y="0" fill="#FFFFFF" font-family="'HelveticaNeueLTStd-Cn'" font-size="20">P</tspan><tspan x="8.882" y="-0.052" fill="#FFFFFF" font-family="'HelveticaNeueLTStd-Cn'" font-size="20" rotate="4.016">รณ</tspan><tspan x="19.25" y="0.67" fill="#FFFFFF" font-family="'HelveticaNeueLTStd-Cn'" font-size="20" rotate="8.104">s</tspan><tspan x="28.458" y="2.003" fill="#FFFFFF" font-family="'HelveticaNeueLTStd-Cn'" font-size="20" rotate="11.349">-</tspan><tspan x="34.699" y="3.207" fill="#FFFFFF" font-family="'HelveticaNeueLTStd-Cn'" font-size="20" rotate="14.438">V</tspan><tspan x="42.959" y="5.311" fill="#FFFFFF" font-family="'HelveticaNeueLTStd-Cn'" font-size="20" rotate="17.971">e</tspan><tspan x="51.097" y="7.891" fill="#FFFFFF" font-family="'HelveticaNeueLTStd-Cn'" font-size="20" rotate="21.89">n</tspan><tspan x="60.742" y="11.735" fill="#FFFFFF" font-family="'HelveticaNeueLTStd-Cn'" font-size="20" rotate="26.194">d</tspan><tspan x="70.047" y="16.306" fill="#FFFFFF" font-family="'HelveticaNeueLTStd-Cn'" font-size="20" rotate="30.273">a</tspan><tspan x="78.064" y="20.957" fill="#FFFFFF" font-family="'HelveticaNeueLTStd-Cn'" font-size="20" rotate="34.137">s</tspan></text>
<circle fill="none" cx="0.999" cy="200" r="150"/>
<text transform="matrix(0.9711 -0.2386 0.2386 0.9711 31.8691 346.9121)"><tspan x="0" y="0" fill="#FFFFFF" font-family="'HelveticaNeueLTStd-Cn'" font-size="20">R</tspan><tspan x="10.971" y="-0.04" fill="#FFFFFF" font-family="'HelveticaNeueLTStd-Cn'" font-size="20" rotate="-4.006">e</tspan><tspan x="20.833" y="-0.734" fill="#FFFFFF" font-family="'HelveticaNeueLTStd-Cn'" font-size="20" rotate="-8.024">c</tspan><tspan x="31.728" y="-2.293" fill="#FFFFFF" font-family="'HelveticaNeueLTStd-Cn'" font-size="20" rotate="-12.251">u</tspan><tspan x="42.48" y="-4.653" fill="#FFFFFF" font-family="'HelveticaNeueLTStd-Cn'" font-size="20" rotate="-16.464">r</tspan><tspan x="53.032" y="-7.801" fill="#FFFFFF" font-family="'HelveticaNeueLTStd-Cn'" font-size="20" rotate="-20.594">s</tspan><tspan x="62.984" y="-11.544" fill="#FFFFFF" font-family="'HelveticaNeueLTStd-Cn'" font-size="20" rotate="-24.851">o</tspan><tspan x="73.66" y="-16.539" fill="#FFFFFF" font-family="'HelveticaNeueLTStd-Cn'" font-size="20" rotate="-29.115">s</tspan><tspan x="82.748" y="-21.69" fill="#FFFFFF" font-family="'HelveticaNeueLTStd-Cn'" font-size="20" rotate="-32.093"> </tspan><tspan x="87.251" y="-24.435" fill="#FFFFFF" font-family="'HelveticaNeueLTStd-Cn'" font-size="20" rotate="-35.221">H</tspan><tspan x="96.513" y="-31.009" fill="#FFFFFF" font-family="'HelveticaNeueLTStd-Cn'" font-size="20" rotate="-39.469">u</tspan><tspan x="105.141" y="-38.052" fill="#FFFFFF" font-family="'HelveticaNeueLTStd-Cn'" font-size="20" rotate="-44.416">m</tspan><tspan x="115.642" y="-48.507" fill="#FFFFFF" font-family="'HelveticaNeueLTStd-Cn'" font-size="20" rotate="-49.302">a</tspan><tspan x="122.593" y="-56.594" fill="#FFFFFF" font-family="'HelveticaNeueLTStd-Cn'" font-size="20" rotate="-53.609">n</tspan><tspan x="129.563" y="-66.097" fill="#FFFFFF" font-family="'HelveticaNeueLTStd-Cn'" font-size="20" rotate="-58.142">o</tspan><tspan x="135.742" y="-76.125" fill="#FFFFFF" font-family="'HelveticaNeueLTStd-Cn'" font-size="20" rotate="-62.459">s</tspan></text>
<circle fill="none" cx="1" cy="199.999" r="150"/>
<text transform="matrix(0.3048 0.9524 -0.9524 0.3048 -143.3032 241.3481)" fill="#FFFFFF" font-family="'HelveticaNeueLTStd-Cn'" font-size="20">T</text>
<text transform="matrix(0.3706 0.9288 -0.9288 0.3706 -140.2969 250.7368)" fill="#FFFFFF" font-family="'HelveticaNeueLTStd-Cn'" font-size="20">r</text>
<text transform="matrix(0.4368 0.8995 -0.8995 0.4368 -136.1938 260.9409)" fill="#FFFFFF" font-family="'HelveticaNeueLTStd-Cn'" font-size="20">a</text>
<text transform="matrix(0.5029 0.8643 -0.8643 0.5029 -131.54 270.5171)" fill="#FFFFFF" font-family="'HelveticaNeueLTStd-Cn'" font-size="20">d</text>
<text transform="matrix(0.5638 0.8259 -0.8259 0.5638 -125.5801 280.647)" fill="#FFFFFF" font-family="'HelveticaNeueLTStd-Cn'" font-size="20">e</text>
<text transform="matrix(0.604 0.797 -0.797 0.604 -120.0732 288.5972)" fill="#FFFFFF" font-family="'HelveticaNeueLTStd-Cn'" font-size="20"> </text>
<text transform="matrix(0.6556 0.7551 -0.7551 0.6556 -116.9263 292.9731)" fill="#FFFFFF" font-family="'HelveticaNeueLTStd-Cn'" font-size="20">M</text>
<text transform="matrix(0.717 0.697 -0.697 0.717 -107.1289 304.0781)" fill="#FFFFFF" font-family="'HelveticaNeueLTStd-Cn'" font-size="20">a</text>
<text transform="matrix(0.765 0.644 -0.644 0.765 -99.5083 311.4668)" fill="#FFFFFF" font-family="'HelveticaNeueLTStd-Cn'" font-size="20">r</text>
<text transform="matrix(0.8092 0.5874 -0.5875 0.8093 -91.0693 318.5332)" fill="#FFFFFF" font-family="'HelveticaNeueLTStd-Cn'" font-size="20">k</text>
<text transform="matrix(0.8473 0.5311 -0.5311 0.8473 -82.4824 324.7246)" fill="#FFFFFF" font-family="'HelveticaNeueLTStd-Cn'" font-size="20">e</text>
<text transform="matrix(0.8802 0.4745 -0.4745 0.8802 -74.1499 329.9258)" fill="#FFFFFF" font-family="'HelveticaNeueLTStd-Cn'" font-size="20">t</text>
<text transform="matrix(0.9017 0.4324 -0.4324 0.9017 -65.6138 334.4492)" fill="#FFFFFF" font-family="'HelveticaNeueLTStd-Cn'" font-size="20">i</text>
<text transform="matrix(0.9238 0.3829 -0.3829 0.9238 -61.522 336.502)" fill="#FFFFFF" font-family="'HelveticaNeueLTStd-Cn'" font-size="20">n</text>
<text transform="matrix(0.9508 0.3099 -0.3099 0.9508 -50.6313 340.9805)" fill="#FFFFFF" font-family="'HelveticaNeueLTStd-Cn'" font-size="20">g</text>
<g>
	<g>
		<path fill="none" stroke="#FFFFFF" stroke-width="2" stroke-miterlimit="10" d="M187.405,185.102
			C180.134,92.635,106,19.034,13,12.925V125"/>
		<g>
			<path fill="#FFFFFF" d="M196.212,170.638c-0.489-0.254-1.094-0.062-1.348,0.428l-7.04,13.584l-9.333-12.124
				c-0.337-0.438-0.966-0.52-1.402-0.183s-0.516,0.969-0.183,1.403l10.29,13.368c0.209,0.271,0.541,0.417,0.882,0.386
				s0.642-0.233,0.799-0.536l7.764-14.978c0.09-0.175,0.124-0.365,0.107-0.548C196.719,171.109,196.527,170.802,196.212,170.638z"/>
		</g>
	</g>
</g>
</svg>
