<?xml version="1.0" encoding="utf-8"?>
<!-- Generator: Adobe Illustrator 16.0.0, SVG Export Plug-In . SVG Version: 6.00 Build 0)  -->
<!DOCTYPE svg PUBLIC "-//W3C//DTD SVG 1.1//EN" "http://www.w3.org/Graphics/SVG/1.1/DTD/svg11.dtd">
<svg version="1.1" id="Layer_1" xmlns="http://www.w3.org/2000/svg" xmlns:xlink="http://www.w3.org/1999/xlink" x="0px" y="0px"
	 width="199px" height="200px" viewBox="0 0 199 200" enable-background="new 0 0 199 200" xml:space="preserve">
<circle fill="none" cx="200" cy="200" r="137.5"/>
<text transform="matrix(0.5679 -0.8231 0.8231 0.5679 84.1177 125.814)"><tspan x="0" y="0" fill="#FFFFFF" font-family="'HelveticaNeueLTStd-Cn'" font-size="20">V</tspan><tspan x="9.033" y="-0.007" fill="#FFFFFF" font-family="'HelveticaNeueLTStd-Cn'" font-size="20" rotate="3.754">e</tspan><tspan x="18.021" y="0.54" fill="#FFFFFF" font-family="'HelveticaNeueLTStd-Cn'" font-size="20" rotate="7.869">n</tspan><tspan x="28.778" y="2.016" fill="#FFFFFF" font-family="'HelveticaNeueLTStd-Cn'" font-size="20" rotate="12.363">d</tspan><tspan x="39.402" y="4.358" fill="#FFFFFF" font-family="'HelveticaNeueLTStd-Cn'" font-size="20" rotate="16.637">a</tspan><tspan x="48.761" y="7.145" fill="#FFFFFF" font-family="'HelveticaNeueLTStd-Cn'" font-size="20" rotate="20.689">s</tspan></text>
<circle fill="none" cx="200" cy="200" r="137.5"/>
<text transform="matrix(0.8836 0.4682 -0.4682 0.8836 260.0303 76.1675)"><tspan x="0" y="0" fill="#FFFFFF" font-family="'HelveticaNeueLTStd-Cn'" font-size="20">P</tspan><tspan x="8.882" y="-0.052" fill="#FFFFFF" font-family="'HelveticaNeueLTStd-Cn'" font-size="20" rotate="4.016">รณ</tspan><tspan x="19.25" y="0.67" fill="#FFFFFF" font-family="'HelveticaNeueLTStd-Cn'" font-size="20" rotate="8.104">s</tspan><tspan x="28.458" y="2.003" fill="#FFFFFF" font-family="'HelveticaNeueLTStd-Cn'" font-size="20" rotate="11.349">-</tspan><tspan x="34.699" y="3.207" fill="#FFFFFF" font-family="'HelveticaNeueLTStd-Cn'" font-size="20" rotate="14.438">V</tspan><tspan x="42.959" y="5.311" fill="#FFFFFF" font-family="'HelveticaNeueLTStd-Cn'" font-size="20" rotate="17.971">e</tspan><tspan x="51.097" y="7.891" fill="#FFFFFF" font-family="'HelveticaNeueLTStd-Cn'" font-size="20" rotate="21.89">n</tspan><tspan x="60.742" y="11.735" fill="#FFFFFF" font-family="'HelveticaNeueLTStd-Cn'" font-size="20" rotate="26.194">d</tspan><tspan x="70.047" y="16.306" fill="#FFFFFF" font-family="'HelveticaNeueLTStd-Cn'" font-size="20" rotate="30.273">a</tspan><tspan x="78.064" y="20.957" fill="#FFFFFF" font-family="'HelveticaNeueLTStd-Cn'" font-size="20" rotate="34.137">s</tspan></text>
<circle fill="none" cx="199.999" cy="200" r="150"/>
<text transform="matrix(0.9711 -0.2386 0.2386 0.9711 230.8691 346.9121)"><tspan x="0" y="0" fill="#FFFFFF" font-family="'HelveticaNeueLTStd-Cn'" font-size="20">R</tspan><tspan x="10.971" y="-0.04" fill="#FFFFFF" font-family="'HelveticaNeueLTStd-Cn'" font-size="20" rotate="-4.006">e</tspan><tspan x="20.833" y="-0.734" fill="#FFFFFF" font-family="'HelveticaNeueLTStd-Cn'" font-size="20" rotate="-8.024">c</tspan><tspan x="31.728" y="-2.293" fill="#FFFFFF" font-family="'HelveticaNeueLTStd-Cn'" font-size="20" rotate="-12.251">u</tspan><tspan x="42.48" y="-4.653" fill="#FFFFFF" font-family="'HelveticaNeueLTStd-Cn'" font-size="20" rotate="-16.464">r</tspan><tspan x="53.031" y="-7.801" fill="#FFFFFF" font-family="'HelveticaNeueLTStd-Cn'" font-size="20" rotate="-20.594">s</tspan><tspan x="62.984" y="-11.544" fill="#FFFFFF" font-family="'HelveticaNeueLTStd-Cn'" font-size="20" rotate="-24.851">o</tspan><tspan x="73.66" y="-16.539" fill="#FFFFFF" font-family="'HelveticaNeueLTStd-Cn'" font-size="20" rotate="-29.115">s</tspan><tspan x="82.748" y="-21.69" fill="#FFFFFF" font-family="'HelveticaNeueLTStd-Cn'" font-size="20" rotate="-32.093"> </tspan><tspan x="87.251" y="-24.435" fill="#FFFFFF" font-family="'HelveticaNeueLTStd-Cn'" font-size="20" rotate="-35.221">H</tspan><tspan x="96.513" y="-31.009" fill="#FFFFFF" font-family="'HelveticaNeueLTStd-Cn'" font-size="20" rotate="-39.469">u</tspan><tspan x="105.141" y="-38.052" fill="#FFFFFF" font-family="'HelveticaNeueLTStd-Cn'" font-size="20" rotate="-44.416">m</tspan><tspan x="115.642" y="-48.507" fill="#FFFFFF" font-family="'HelveticaNeueLTStd-Cn'" font-size="20" rotate="-49.302">a</tspan><tspan x="122.593" y="-56.594" fill="#FFFFFF" font-family="'HelveticaNeueLTStd-Cn'" font-size="20" rotate="-53.609">n</tspan><tspan x="129.563" y="-66.097" fill="#FFFFFF" font-family="'HelveticaNeueLTStd-Cn'" font-size="20" rotate="-58.142">o</tspan><tspan x="135.742" y="-76.125" fill="#FFFFFF" font-family="'HelveticaNeueLTStd-Cn'" font-size="20" rotate="-62.459">s</tspan></text>
<circle fill="none" cx="200" cy="199.999" r="150"/>
<text transform="matrix(0.3048 0.9524 -0.9524 0.3048 55.6968 241.3481)" fill="#FFFFFF" font-family="'HelveticaNeueLTStd-Cn'" font-size="20">T</text>
<text transform="matrix(0.3706 0.9288 -0.9288 0.3706 58.7031 250.7368)" fill="#FFFFFF" font-family="'HelveticaNeueLTStd-Cn'" font-size="20">r</text>
<text transform="matrix(0.4368 0.8995 -0.8995 0.4368 62.8062 260.9409)" fill="#FFFFFF" font-family="'HelveticaNeueLTStd-Cn'" font-size="20">a</text>
<text transform="matrix(0.5029 0.8643 -0.8643 0.5029 67.46 270.5171)" fill="#FFFFFF" font-family="'HelveticaNeueLTStd-Cn'" font-size="20">d</text>
<text transform="matrix(0.5638 0.8259 -0.8259 0.5638 73.4199 280.647)" fill="#FFFFFF" font-family="'HelveticaNeueLTStd-Cn'" font-size="20">e</text>
<text transform="matrix(0.604 0.797 -0.797 0.604 78.9268 288.5972)" fill="#FFFFFF" font-family="'HelveticaNeueLTStd-Cn'" font-size="20"> </text>
<text transform="matrix(0.6556 0.7551 -0.7551 0.6556 82.0737 292.9731)" fill="#FFFFFF" font-family="'HelveticaNeueLTStd-Cn'" font-size="20">M</text>
<text transform="matrix(0.717 0.697 -0.697 0.717 91.8711 304.0781)" fill="#FFFFFF" font-family="'HelveticaNeueLTStd-Cn'" font-size="20">a</text>
<text transform="matrix(0.765 0.644 -0.644 0.765 99.4917 311.4668)" fill="#FFFFFF" font-family="'HelveticaNeueLTStd-Cn'" font-size="20">r</text>
<text transform="matrix(0.8092 0.5874 -0.5875 0.8093 107.9307 318.5332)" fill="#FFFFFF" font-family="'HelveticaNeueLTStd-Cn'" font-size="20">k</text>
<text transform="matrix(0.8473 0.5311 -0.5311 0.8473 116.5176 324.7246)" fill="#FFFFFF" font-family="'HelveticaNeueLTStd-Cn'" font-size="20">e</text>
<text transform="matrix(0.8802 0.4745 -0.4745 0.8802 124.8501 329.9258)" fill="#FFFFFF" font-family="'HelveticaNeueLTStd-Cn'" font-size="20">t</text>
<text transform="matrix(0.9017 0.4324 -0.4324 0.9017 133.3862 334.4492)" fill="#FFFFFF" font-family="'HelveticaNeueLTStd-Cn'" font-size="20">i</text>
<text transform="matrix(0.9238 0.3829 -0.3829 0.9238 137.478 336.502)" fill="#FFFFFF" font-family="'HelveticaNeueLTStd-Cn'" font-size="20">n</text>
<text transform="matrix(0.9508 0.3099 -0.3099 0.9508 148.3687 340.9805)" fill="#FFFFFF" font-family="'HelveticaNeueLTStd-Cn'" font-size="20">g</text>
<g>
	<g>
		<path fill="none" stroke="#FFFFFF" stroke-width="2" stroke-miterlimit="10" d="M185.102,13.595
			C92.635,20.866,19.034,95,12.925,188H125"/>
		<g>
			<path fill="#FFFFFF" d="M170.638,4.788c-0.254,0.49-0.062,1.094,0.428,1.348l13.584,7.04l-12.124,9.333
				c-0.438,0.337-0.52,0.966-0.183,1.403s0.969,0.516,1.403,0.183l13.368-10.291c0.271-0.208,0.417-0.541,0.386-0.881
				s-0.233-0.642-0.536-0.799L171.986,4.36c-0.175-0.09-0.365-0.125-0.548-0.108C171.109,4.281,170.802,4.473,170.638,4.788z"/>
		</g>
	</g>
</g>
</svg>
