<?xml version="1.0" encoding="utf-8"?>
<!-- Generator: Adobe Illustrator 16.0.0, SVG Export Plug-In . SVG Version: 6.00 Build 0)  -->
<!DOCTYPE svg PUBLIC "-//W3C//DTD SVG 1.1//EN" "http://www.w3.org/Graphics/SVG/1.1/DTD/svg11.dtd">
<svg version="1.1" id="Layer_1" xmlns="http://www.w3.org/2000/svg" xmlns:xlink="http://www.w3.org/1999/xlink" x="0px" y="0px"
	 width="931.895px" height="111.506px" viewBox="0 0 931.895 111.506" enable-background="new 0 0 931.895 111.506"
	 xml:space="preserve">
<g>
	<path fill="#FFFFFF" d="M32.002,41.803c0-10.401-2.1-14.901-8.6-14.901c-7.301,0-9.001,7.3-9.001,27.501
		c0,21.601,3,25.501,9.201,25.501c5.2,0,9-2.7,9-18.102h14.401c0,15.401-3.8,28.702-22.701,28.702C2.7,90.505,0,75.104,0,53.403
		c0-21.701,2.7-37.103,24.302-37.103c20.601,0,22.101,15.101,22.101,25.502H32.002z"/>
	<path fill="#FFFFFF" d="M55.899,89.106V17.701H70.3v71.405H55.899z"/>
	<path fill="#FFFFFF" d="M111.5,41.803c0-10.401-2.1-14.901-8.6-14.901c-7.301,0-9.001,7.3-9.001,27.501
		c0,21.601,3,25.501,9.201,25.501c5.2,0,9-2.7,9-18.102h14.401c0,15.401-3.8,28.702-22.701,28.702
		c-21.602,0-24.302-15.401-24.302-37.102c0-21.701,2.7-37.103,24.302-37.103c20.601,0,22.101,15.101,22.101,25.502H111.5z"/>
	<path fill="#FFFFFF" d="M134.697,89.106V17.701h14.401v59.604H174.6v11.801H134.697z"/>
	<path fill="#FFFFFF" d="M203.798,16.301c21.601,0,24.301,15.401,24.301,37.103c0,21.701-2.7,37.102-24.301,37.102
		c-21.602,0-24.302-15.401-24.302-37.102C179.497,31.702,182.197,16.301,203.798,16.301z M203.798,79.905
		c8.5,0,9.9-7.301,9.9-26.501c0-19.101-1.4-26.501-9.9-26.501s-9.901,7.4-9.901,26.501
		C193.897,72.604,195.298,79.905,203.798,79.905z"/>
	<path fill="#FFFFFF" d="M261.296,17.701h23.602c20.001,0,23.602,13.701,23.602,34.702c0,25.301-5.4,36.703-24.501,36.703h-22.702
		V17.701z M275.697,78.504h6.4c10.001,0,12.001-6.3,12.001-25.701c0-16.201-1.3-24.501-12.301-24.501h-6.101V78.504z"/>
	<path fill="#FFFFFF" d="M357.897,17.701v11.801h-25.501v16.801h24.001v11.801h-24.001v19.201h26.501v11.801h-40.902V17.701H357.897
		z"/>
	<path fill="#FFFFFF" d="M420.594,41.803c0-10.401-2.1-14.901-8.6-14.901c-7.301,0-9.001,7.3-9.001,27.501
		c0,21.601,3,25.501,9.201,25.501c5.2,0,9-2.7,9-18.102h14.401c0,15.401-3.8,28.702-22.701,28.702
		c-21.602,0-24.302-15.401-24.302-37.102c0-21.701,2.7-37.103,24.302-37.103c20.601,0,22.101,15.101,22.101,25.502H420.594z"/>
	<path fill="#FFFFFF" d="M455.894,17.701h17.801l18.902,71.405h-15.001l-3.3-15.102h-19.001l-3.3,15.102h-15.001L455.894,17.701z
		 M457.793,62.204h14.001l-6.9-32.102h-0.2L457.793,62.204z"/>
	<path fill="#FFFFFF" d="M497.592,17.701h25.201c14.602,0,19.602,10.701,19.602,21.401c0,14.801-9.1,21.501-22.701,21.501h-7.7
		v28.502h-14.401V17.701z M511.994,50.003h6.4c5.7,0,9.601-3.4,9.601-10.701c0-7-2.801-11-10.001-11h-6V50.003z"/>
	<path fill="#FFFFFF" d="M557.995,17.701h17.801l18.901,71.405h-15.001l-3.301-15.102h-19l-3.301,15.102h-15.001L557.995,17.701z
		 M559.895,62.204h14l-6.9-32.102h-0.199L559.895,62.204z"/>
	<path fill="#FFFFFF" d="M630.196,41.803c0-10.401-2.101-14.901-8.601-14.901c-7.301,0-9.001,7.3-9.001,27.501
		c0,21.601,3,25.501,9.201,25.501c5.199,0,9-2.7,9-18.102h14.4c0,15.401-3.8,28.702-22.701,28.702
		c-21.602,0-24.301-15.401-24.301-37.102c0-21.701,2.699-37.103,24.301-37.103c20.602,0,22.102,15.101,22.102,25.502H630.196z"/>
	<path fill="#FFFFFF" d="M654.092,89.106V17.701h14.4v71.405H654.092z"/>
	<path fill="#FFFFFF" d="M720.995,17.701v11.801h-15.601v59.604h-14.401V29.502h-15.601V17.701H720.995z"/>
	<path fill="#FFFFFF" d="M735.593,17.701h17.801l18.901,71.405h-15.001l-3.3-15.102h-19.002l-3.3,15.102h-15.001L735.593,17.701z
		 M737.493,62.204h14.002l-6.9-32.102h-0.201L737.493,62.204z"/>
	<path fill="#FFFFFF" d="M798.393,90.505c-20.101-0.899-22.602-16.001-22.602-37.102c0-21.701,2.701-37.103,24.303-37.103
		c20.601,0,22.101,15.101,22.101,25.502h-14.401c0-10.401-2.1-14.901-8.6-14.901c-7.301,0-9.001,7.3-9.001,27.501
		c0,21.601,3.001,25.501,9.2,25.501c5.201,0,9.001-2.7,9.001-18.102h14.401c0,14.401-3.301,26.902-19.002,28.603l-3,4.8
		c1.2-0.3,2.101-0.5,3.301-0.5c3.9,0,8.4,2.7,8.4,7.4c0,5.801-4.5,9.4-12.602,9.4c-4.399,0-8.4-1-10-1.899l1.9-4.601
		c1.4,0.801,4.4,1.5,6.9,1.5c2.8,0,5-1.5,5-3.4c0-2-1.7-3.4-4.4-3.4c-1.4,0-2.3,0.201-3.4,0.601l-2.199-2L798.393,90.505z"/>
	<path fill="#FFFFFF" d="M843.093,17.701h17.801l18.901,71.405h-15.001l-3.3-15.102h-19.002l-3.3,15.102h-15.001L843.093,17.701z
		 M836.292,12.601c1.101-7.8,4.2-12.4,9.301-12.4c1.8,0,3.101,0.2,4.3,0.7l4.801,2.1c1,0.4,2,0.6,3,0.6c1.9,0,2.801-2.3,2.801-3.6
		h7.199c-0.699,7.101-4.199,12.401-9.3,12.401c-4.3,0-8.7-3.4-11.901-3.4c-1.5,0-2.699,1.1-3.199,3.6H836.292z M844.993,62.204
		h14.002l-6.9-32.102h-0.201L844.993,62.204z"/>
	<path fill="#FFFFFF" d="M907.593,16.301c21.601,0,24.302,15.401,24.302,37.103c0,21.701-2.701,37.102-24.302,37.102
		c-21.602,0-24.302-15.401-24.302-37.102C883.292,31.702,885.992,16.301,907.593,16.301z M907.593,79.905
		c8.501,0,9.9-7.301,9.9-26.501c0-19.101-1.399-26.501-9.9-26.501s-9.901,7.4-9.901,26.501
		C897.692,72.604,899.092,79.905,907.593,79.905z"/>
</g>
</svg>
